%TF.GenerationSoftware,KiCad,Pcbnew,(5.99.0-13025-gf345eacf13)*%
%TF.CreationDate,2021-10-31T04:57:43-07:00*%
%TF.ProjectId,6_axis_I2S_v1p8s,365f6178-6973-45f4-9932-535f76317038,rev?*%
%TF.SameCoordinates,Original*%
%TF.FileFunction,Legend,Bot*%
%TF.FilePolarity,Positive*%
%FSLAX46Y46*%
G04 Gerber Fmt 4.6, Leading zero omitted, Abs format (unit mm)*
G04 Created by KiCad (PCBNEW (5.99.0-13025-gf345eacf13)) date 2021-10-31 04:57:43*
%MOMM*%
%LPD*%
G01*
G04 APERTURE LIST*
%ADD10C,0.076000*%
%ADD11C,0.254000*%
%ADD12C,0.152400*%
%ADD13C,0.177800*%
G04 APERTURE END LIST*
D10*
X167134366Y-53921000D02*
X167134366Y-53262000D01*
X165307366Y-55281000D02*
G75*
G03*
X165273366Y-55473000I481042J-184195D01*
G01*
X172343366Y-55303000D02*
G75*
G03*
X172268366Y-55234000I-137794J-74515D01*
G01*
X166100365Y-55204000D02*
G75*
G03*
X166035366Y-55130000I-273001J-174251D01*
G01*
X168335366Y-54368000D02*
G75*
G03*
X168451366Y-54379000I110423J547334D01*
G01*
D11*
X168635366Y-45992000D02*
X167804366Y-46336000D01*
D10*
X167510366Y-54096000D02*
G75*
G03*
X167556366Y-54021000I-141149J138177D01*
G01*
X164488366Y-54171000D02*
G75*
G03*
X164593366Y-54154000I4129J307256D01*
G01*
X172210366Y-55221000D02*
X172268366Y-55234000D01*
X171885366Y-54338000D02*
G75*
G03*
X172100366Y-54379000I213482J535261D01*
G01*
X168242366Y-53295000D02*
G75*
G03*
X168170366Y-53341000I307597J-560805D01*
G01*
X167863366Y-55793000D02*
G75*
G03*
X167853366Y-55737000I-124160J6721D01*
G01*
X171700366Y-54201000D02*
G75*
G03*
X171788366Y-54284000I406535J342874D01*
G01*
X169685366Y-53627000D02*
X169662366Y-53659000D01*
X167541366Y-55224000D02*
G75*
G03*
X167472366Y-55250000I33685J-193954D01*
G01*
X172513366Y-55169000D02*
G75*
G03*
X172361366Y-55046000I-307781J-224928D01*
G01*
X165850366Y-53457000D02*
G75*
G03*
X165782366Y-53380000I-303708J-199684D01*
G01*
X165436366Y-54379000D02*
G75*
G03*
X165618366Y-54347000I3707J512478D01*
G01*
X168672367Y-53646000D02*
G75*
G03*
X168629366Y-53552000I-255221J-59915D01*
G01*
X171262366Y-54366000D02*
X171485366Y-54366000D01*
X165898366Y-53555000D02*
G75*
G03*
X165850366Y-53457000I-424998J-147407D01*
G01*
X172772366Y-53531000D02*
G75*
G03*
X172760366Y-53642000I786952J-141225D01*
G01*
X166173366Y-55427000D02*
G75*
G03*
X166146366Y-55304000I-676453J-84027D01*
G01*
X172993366Y-55367000D02*
G75*
G03*
X172978366Y-55467000I282220J-93459D01*
G01*
X166719366Y-56124000D02*
X166941366Y-56124000D01*
X170702366Y-55092000D02*
X170862366Y-55284000D01*
X165715366Y-53815000D02*
G75*
G03*
X165697366Y-53665000I-566047J8154D01*
G01*
X170176366Y-55236001D02*
G75*
G03*
X170121366Y-55257000I38962J-184569D01*
G01*
X174526366Y-53712000D02*
X174529366Y-53813000D01*
X167139366Y-54249000D02*
G75*
G03*
X167262366Y-54347000I262525J203308D01*
G01*
X173036366Y-54369000D02*
G75*
G03*
X173130366Y-54379000I91504J413341D01*
G01*
X170408366Y-56127000D02*
G75*
G03*
X170489366Y-56097000I-68463J309198D01*
G01*
X164518366Y-53249000D02*
G75*
G03*
X164347366Y-53281000I-2310J-460548D01*
G01*
X173036366Y-53259000D02*
G75*
G03*
X172955366Y-53290000I70651J-305929D01*
G01*
X173415366Y-55467000D02*
X173415366Y-56124000D01*
X171158366Y-55284001D02*
G75*
G03*
X171009365Y-55229000I-148527J-173044D01*
G01*
X169369366Y-53259000D02*
G75*
G03*
X169256366Y-53290000I91199J-553890D01*
G01*
X170722366Y-53347000D02*
G75*
G03*
X170633366Y-53467000I191686J-235172D01*
G01*
X164063366Y-53715000D02*
X164063366Y-53898000D01*
X165203366Y-54042000D02*
X165203366Y-54042000D01*
X168170366Y-54288000D02*
G75*
G03*
X168242366Y-54334000I354149J474972D01*
G01*
X173268366Y-53478000D02*
G75*
G03*
X173197366Y-53471000I-67470J-320760D01*
G01*
X174015366Y-54288000D02*
G75*
G03*
X174087366Y-54334000I354149J474972D01*
G01*
X170371366Y-55256000D02*
G75*
G03*
X170316366Y-55236000I-91602J-166280D01*
G01*
X165818366Y-55233000D02*
G75*
G03*
X165727366Y-55216000I-88821J-223393D01*
G01*
X169665366Y-53271000D02*
G75*
G03*
X169504366Y-53249000I-156711J-546724D01*
G01*
X168629366Y-53552000D02*
G75*
G03*
X168556366Y-53491000I-145956J-100488D01*
G01*
D11*
X169974366Y-44960000D02*
G75*
G03*
X169922365Y-44916999I-52115J-10080D01*
G01*
D10*
X167234366Y-55200000D02*
G75*
G03*
X167211366Y-55279000I332179J-139559D01*
G01*
X167418366Y-55659000D02*
X167676366Y-55659000D01*
X172760366Y-53988000D02*
G75*
G03*
X172772366Y-54098000I789814J30506D01*
G01*
X169401366Y-53921000D02*
X169597366Y-53902000D01*
X174529366Y-53813000D02*
X174526366Y-53916000D01*
X173282366Y-55245000D02*
G75*
G03*
X173195366Y-55229000I-84886J-217032D01*
G01*
X169398366Y-54162000D02*
G75*
G03*
X169484366Y-54171000I83023J377948D01*
G01*
X167134366Y-53262000D02*
X166912366Y-53262000D01*
X168343366Y-55020000D02*
X168108366Y-55020000D01*
X168733366Y-53341000D02*
G75*
G03*
X168661366Y-53295000I-373759J-505667D01*
G01*
X172189366Y-56141001D02*
G75*
G03*
X172349366Y-56115000I-2100J518225D01*
G01*
X172133366Y-53249000D02*
G75*
G03*
X171963366Y-53281000I-1966J-457119D01*
G01*
X167717366Y-55476000D02*
X167418366Y-55476000D01*
X169118366Y-53815000D02*
G75*
G03*
X169062366Y-53918000I264235J-210386D01*
G01*
D11*
X172139366Y-47390000D02*
G75*
G03*
X172133365Y-47441000I44908J-31137D01*
G01*
D10*
X169256366Y-53290001D02*
G75*
G03*
X169070366Y-53399000I242516J-627033D01*
G01*
X171921366Y-53605000D02*
G75*
G03*
X171901366Y-53715000I342531J-119097D01*
G01*
X167203366Y-55372000D02*
X167203366Y-56128000D01*
D11*
X166699366Y-47441000D02*
X166354366Y-48272000D01*
D10*
X165211366Y-54325000D02*
G75*
G03*
X165317366Y-54366000I208636J381877D01*
G01*
X172151366Y-55008000D02*
G75*
G03*
X171969366Y-55027000I-14347J-743758D01*
G01*
X165455366Y-55822000D02*
X165294366Y-55959000D01*
X165436366Y-53249000D02*
G75*
G03*
X165317366Y-53263000I-193J-511118D01*
G01*
X173286366Y-53281000D02*
G75*
G03*
X173130366Y-53249000I-152021J-344850D01*
G01*
X173130366Y-53249000D02*
G75*
G03*
X173036366Y-53259000I-4103J-408233D01*
G01*
X167786366Y-54085000D02*
G75*
G03*
X167794366Y-53996000I-488193J88742D01*
G01*
X165039366Y-54189000D02*
G75*
G03*
X165211366Y-54325000I457486J401820D01*
G01*
X170609366Y-55150000D02*
G75*
G03*
X170489366Y-55048000I-298943J-230110D01*
G01*
X171130366Y-53487001D02*
G75*
G03*
X171042366Y-53471000I-85224J-218729D01*
G01*
X167687366Y-56141000D02*
G75*
G03*
X167848366Y-56115000I-1618J521496D01*
G01*
X172348367Y-54017000D02*
G75*
G03*
X172367366Y-53898000I-330225J113741D01*
G01*
X172542366Y-55937000D02*
G75*
G03*
X172567366Y-55804000I-311650J127430D01*
G01*
X164200366Y-53375001D02*
G75*
G03*
X164098366Y-53523000I273890J-297911D01*
G01*
X172353367Y-55845000D02*
G75*
G03*
X172365366Y-55793000I-100336J50538D01*
G01*
X169275366Y-53986000D02*
X169300366Y-53953000D01*
X173385366Y-54047000D02*
G75*
G03*
X173415366Y-53815000I-835529J225982D01*
G01*
X165802366Y-55912000D02*
G75*
G03*
X165886366Y-55861000I-83515J232229D01*
G01*
D11*
X172698366Y-46486000D02*
X171983366Y-45771000D01*
D10*
X173195366Y-55229001D02*
G75*
G03*
X173110366Y-55245000I-2077J-222750D01*
G01*
X172365366Y-55793000D02*
G75*
G03*
X172354366Y-55737000I-125900J4350D01*
G01*
X165960366Y-55473000D02*
G75*
G03*
X165941366Y-55363000I-352376J-4224D01*
G01*
X171948366Y-55877000D02*
X171932366Y-55842000D01*
X174191366Y-54138000D02*
G75*
G03*
X174296366Y-54158000I98381J230877D01*
G01*
X164891366Y-53446000D02*
G75*
G03*
X164826366Y-53372000I-268297J-170119D01*
G01*
D11*
X173552366Y-48548000D02*
G75*
G03*
X173509365Y-48495000I-53492J544D01*
G01*
D10*
X171042366Y-53471000D02*
G75*
G03*
X170957366Y-53487000I-1477J-225936D01*
G01*
X165886367Y-55861001D02*
G75*
G03*
X165942366Y-55775000I-146624J156708D01*
G01*
X166430366Y-55243000D02*
G75*
G03*
X166357366Y-55284000I102713J-268368D01*
G01*
X174475366Y-54077000D02*
G75*
G03*
X174518366Y-53984000I-201507J149610D01*
G01*
X170814366Y-55028000D02*
G75*
G03*
X170702366Y-55092000I149506J-391638D01*
G01*
X169672366Y-55020000D02*
X169437366Y-55020000D01*
X174632366Y-54239000D02*
G75*
G03*
X174724366Y-54081000I-315638J289573D01*
G01*
X170159366Y-55043000D02*
G75*
G03*
X170028366Y-55138000I280814J-525049D01*
G01*
X171258366Y-53380000D02*
G75*
G03*
X171135366Y-53282000I-261525J-202052D01*
G01*
X170245366Y-55229000D02*
G75*
G03*
X170176366Y-55236000I-3334J-310713D01*
G01*
X165618366Y-53282001D02*
G75*
G03*
X165436366Y-53249000I-180170J-475281D01*
G01*
X168684366Y-53813000D02*
X168681366Y-53916000D01*
X174506366Y-53295000D02*
G75*
G03*
X174413366Y-53260000I-160533J-285500D01*
G01*
D11*
X169905366Y-50115001D02*
G75*
G03*
X169878365Y-50182999I21926J-48066D01*
G01*
D10*
X170672366Y-55289000D02*
G75*
G03*
X170609366Y-55150000I-319475J-61022D01*
G01*
X168066366Y-55804000D02*
G75*
G03*
X168044366Y-55677000I-358242J3347D01*
G01*
X169284366Y-53720001D02*
G75*
G03*
X169217366Y-53741000I73094J-350588D01*
G01*
X167211366Y-55279000D02*
G75*
G03*
X167203366Y-55372000I537146J-93051D01*
G01*
X164682366Y-53524000D02*
G75*
G03*
X164609366Y-53475000I-154495J-151289D01*
G01*
X174296366Y-54379000D02*
G75*
G03*
X174413366Y-54368000I6488J558715D01*
G01*
X168878366Y-53548000D02*
G75*
G03*
X168787366Y-53390000I-406679J-129021D01*
G01*
X169281366Y-54091000D02*
G75*
G03*
X169328366Y-54135000I104801J64844D01*
G01*
X165927366Y-53956000D02*
G75*
G03*
X165937366Y-53815000I-943050J137737D01*
G01*
X165564366Y-55282000D02*
G75*
G03*
X165514366Y-55363000I159303J-154268D01*
G01*
X167660366Y-55933000D02*
G75*
G03*
X167753366Y-55922000I6540J343339D01*
G01*
X173322366Y-54130000D02*
G75*
G03*
X173385365Y-54047000I-68344J117284D01*
G01*
D11*
X173509366Y-49611000D02*
G75*
G03*
X173552365Y-49559000I-9928J51988D01*
G01*
D10*
X173848366Y-53970000D02*
G75*
G03*
X173869366Y-54081000I576742J51626D01*
G01*
X168681366Y-53712000D02*
X168684366Y-53813000D01*
X172429366Y-54269001D02*
G75*
G03*
X172499366Y-54200000I-160899J233238D01*
G01*
X172763366Y-55302000D02*
G75*
G03*
X172756366Y-55390000I472567J-81869D01*
G01*
X171974366Y-55250001D02*
G75*
G03*
X171933366Y-55295000I60817J-96589D01*
G01*
X169070366Y-53399000D02*
X169208366Y-53561000D01*
X164270366Y-54338000D02*
G75*
G03*
X164484366Y-54379000I212998J532760D01*
G01*
X170957366Y-53487000D02*
G75*
G03*
X170887366Y-53534000I79188J-193569D01*
G01*
X173848366Y-53658000D02*
G75*
G03*
X173842366Y-53813000I1499813J-135674D01*
G01*
X171096366Y-55040000D02*
G75*
G03*
X170933366Y-55007000I-157100J-356915D01*
G01*
X169988366Y-54182000D02*
X169832366Y-54029000D01*
X168012366Y-55169000D02*
G75*
G03*
X167859366Y-55046000I-308344J-226891D01*
G01*
X172133366Y-53458000D02*
G75*
G03*
X172044366Y-53475000I-1084J-235798D01*
G01*
X173072366Y-53498000D02*
G75*
G03*
X173009365Y-53579000I65069J-115610D01*
G01*
X172092366Y-56134000D02*
G75*
G03*
X172189366Y-56141000I93799J624221D01*
G01*
X168672366Y-53646000D02*
X168681366Y-53712000D01*
D11*
X171983366Y-45771000D02*
G75*
G03*
X171916364Y-45764000I-37730J-36981D01*
G01*
D10*
X168451366Y-53471000D02*
G75*
G03*
X168346366Y-53491000I-6362J-252226D01*
G01*
X167977366Y-55572000D02*
G75*
G03*
X167868366Y-55501000I-202223J-191285D01*
G01*
X167446366Y-55877000D02*
X167430366Y-55842000D01*
X172140366Y-55216000D02*
G75*
G03*
X172043366Y-55224000I-11995J-446631D01*
G01*
X167794366Y-53996000D02*
X167794366Y-53996000D01*
D11*
X166315366Y-48304000D02*
X165323366Y-48495000D01*
X172517366Y-49803001D02*
G75*
G03*
X172478366Y-49835000I10220J-52221D01*
G01*
D10*
X167572366Y-53262000D02*
X167572366Y-53921000D01*
X173415366Y-53378000D02*
G75*
G03*
X173286366Y-53281000I-293598J-256177D01*
G01*
X174752366Y-53813000D02*
G75*
G03*
X174745366Y-53658000I-1519050J9055D01*
G01*
X165782366Y-54249000D02*
G75*
G03*
X165850366Y-54173000I-231034J275135D01*
G01*
X172261366Y-55670000D02*
G75*
G03*
X172178366Y-55659000I-90659J-365425D01*
G01*
X165427366Y-54158000D02*
G75*
G03*
X165553366Y-54137000I8341J338451D01*
G01*
X171704366Y-56128000D02*
X171919366Y-56128000D01*
X172354367Y-55737000D02*
G75*
G03*
X172320366Y-55695000I-94651J-41860D01*
G01*
X165693366Y-56137000D02*
G75*
G03*
X165861366Y-56110000I1059J529572D01*
G01*
X166703366Y-55356000D02*
G75*
G03*
X166653366Y-55284000I-158478J-56693D01*
G01*
D11*
X171983366Y-52335000D02*
X172698366Y-51620000D01*
D10*
X171446366Y-56124000D02*
X171446366Y-56124000D01*
X174745366Y-53658000D02*
G75*
G03*
X174724366Y-53548000I-557827J-49490D01*
G01*
X167818366Y-55695000D02*
G75*
G03*
X167759366Y-55670000I-96288J-145118D01*
G01*
X164751366Y-53715000D02*
X164751366Y-53715000D01*
D11*
X168858366Y-44960000D02*
X168667366Y-45952000D01*
D10*
X173960366Y-54239000D02*
G75*
G03*
X174015366Y-54288000I283870J263262D01*
G01*
X170408366Y-55017001D02*
G75*
G03*
X170313366Y-55007000I-91398J-412022D01*
G01*
X173353366Y-55292000D02*
G75*
G03*
X173282366Y-55245000I-146241J-143789D01*
G01*
X165782366Y-53380000D02*
G75*
G03*
X165618366Y-53282000I-365839J-425996D01*
G01*
X170313366Y-56137000D02*
G75*
G03*
X170408366Y-56127000I2794J429703D01*
G01*
X172298366Y-53524000D02*
G75*
G03*
X172224366Y-53475000I-154301J-152648D01*
G01*
X172291366Y-53280000D02*
G75*
G03*
X172133366Y-53249000I-158755J-390989D01*
G01*
X168899366Y-53658000D02*
G75*
G03*
X168878366Y-53548000I-564403J-50745D01*
G01*
X170633366Y-53467000D02*
G75*
G03*
X170610366Y-53544000I338261J-142975D01*
G01*
X168003366Y-53658000D02*
G75*
G03*
X167996366Y-53813000I1499354J-145371D01*
G01*
X169044367Y-54040000D02*
G75*
G03*
X169077366Y-54184000I305058J-5872D01*
G01*
X169328366Y-54135000D02*
G75*
G03*
X169398366Y-54162000I124226J217827D01*
G01*
X171827366Y-55087000D02*
G75*
G03*
X171736366Y-55200000I148881J-213037D01*
G01*
X164937366Y-53546000D02*
G75*
G03*
X164891366Y-53446000I-419587J-132430D01*
G01*
D11*
X170578366Y-51899000D02*
G75*
G03*
X170648365Y-51928000I49447J20372D01*
G01*
X167804366Y-51771000D02*
X168184366Y-51928000D01*
D10*
X169597366Y-53902000D02*
G75*
G03*
X169723366Y-53874000I-28761J426922D01*
G01*
X165203366Y-54042000D02*
X165039366Y-54189000D01*
X166660366Y-53262000D02*
X166438366Y-53262000D01*
X169225366Y-55793000D02*
X169221366Y-55793000D01*
X170028366Y-56124000D02*
X170028366Y-56009000D01*
D11*
X165323366Y-48495000D02*
G75*
G03*
X165280365Y-48548000I10666J-52598D01*
G01*
D10*
X165317366Y-53263000D02*
G75*
G03*
X165211366Y-53303000I98374J-421143D01*
G01*
X172589367Y-53818000D02*
G75*
G03*
X172580366Y-53669000I-1104258J8071D01*
G01*
X167841366Y-55303000D02*
G75*
G03*
X167766366Y-55234000I-137845J-74570D01*
G01*
X165942366Y-55775000D02*
G75*
G03*
X165960366Y-55656000I-335110J111550D01*
G01*
D11*
X170165366Y-45952000D02*
X169974366Y-44960000D01*
D10*
X170603366Y-53632000D02*
X170603366Y-54366000D01*
X173130366Y-54379001D02*
G75*
G03*
X173285366Y-54344000I5526J336241D01*
G01*
X174117366Y-53552000D02*
G75*
G03*
X174075366Y-53646000I239970J-163604D01*
G01*
X168733366Y-54288001D02*
G75*
G03*
X168787366Y-54239000I-230059J307789D01*
G01*
X171963366Y-53281000D02*
G75*
G03*
X171815366Y-53375000I177206J-442516D01*
G01*
X168892366Y-55352000D02*
X169123366Y-56124000D01*
X168272366Y-54077000D02*
G75*
G03*
X168346366Y-54138000I149473J105943D01*
G01*
X164484366Y-54379001D02*
G75*
G03*
X164652366Y-54352000I1563J526437D01*
G01*
X172361366Y-55046000D02*
G75*
G03*
X172263366Y-55017000I-171530J-399567D01*
G01*
X164246366Y-54064000D02*
X164085366Y-54201000D01*
D11*
X173509366Y-48495000D02*
X172517366Y-48304000D01*
D10*
X172267366Y-54352000D02*
G75*
G03*
X172429366Y-54269000I-212180J613728D01*
G01*
X169594366Y-53468001D02*
G75*
G03*
X169504366Y-53458000I-85055J-355491D01*
G01*
D11*
X169905366Y-50115000D02*
G75*
G03*
X168927367Y-50115000I-489000J1062421D01*
G01*
D10*
X171262366Y-53380000D02*
X171258366Y-53380000D01*
X171919366Y-55740000D02*
X171919366Y-55659000D01*
X170316366Y-55236001D02*
G75*
G03*
X170245366Y-55229000I-68611J-332333D01*
G01*
X171704366Y-55372000D02*
X171704366Y-56128000D01*
X173285366Y-54344000D02*
G75*
G03*
X173415366Y-54249000I-252530J482013D01*
G01*
X168024367Y-54081000D02*
G75*
G03*
X168115366Y-54239000I404776J127925D01*
G01*
X170434366Y-55337000D02*
G75*
G03*
X170371365Y-55256000I-127532J-34192D01*
G01*
D11*
X166134366Y-51620000D02*
X166849366Y-52335000D01*
D10*
X164359366Y-54144000D02*
G75*
G03*
X164488366Y-54171000I127858J289211D01*
G01*
X172367366Y-53715000D02*
G75*
G03*
X172348366Y-53605000I-353525J-4423D01*
G01*
X171224366Y-55460000D02*
X171224366Y-56124000D01*
D11*
X166354366Y-49835000D02*
X166699366Y-50666000D01*
D10*
X171919366Y-55740000D02*
X171919366Y-55740000D01*
X172140366Y-55216000D02*
X172210366Y-55221000D01*
X168115366Y-54239000D02*
G75*
G03*
X168170366Y-54288000I280637J259634D01*
G01*
X170688366Y-55571000D02*
G75*
G03*
X170684366Y-55399000I-3116424J13571D01*
G01*
X168809366Y-55020000D02*
X168559366Y-55793000D01*
X166173366Y-55732000D02*
G75*
G03*
X166183366Y-55576000I-1104941J149150D01*
G01*
D11*
X171916366Y-52341999D02*
G75*
G03*
X171983365Y-52334999I29270J43979D01*
G01*
D10*
X171485366Y-54366000D02*
X171485366Y-54366000D01*
X164609366Y-53475000D02*
G75*
G03*
X164518366Y-53458000I-89552J-227308D01*
G01*
X165850366Y-54173000D02*
G75*
G03*
X165898366Y-54075000I-367058J240538D01*
G01*
X165697366Y-55929000D02*
G75*
G03*
X165802366Y-55912000I4655J304011D01*
G01*
X172756366Y-56124000D02*
X172978366Y-56124000D01*
X169825366Y-53812000D02*
G75*
G03*
X169893365Y-53716000I-167485J190717D01*
G01*
X172016366Y-56114000D02*
G75*
G03*
X172092366Y-56134000I121114J305836D01*
G01*
D11*
X169878366Y-50183000D02*
X170578366Y-51899000D01*
D10*
X173960366Y-53390000D02*
G75*
G03*
X173869366Y-53548000I313825J-285954D01*
G01*
D11*
X166849366Y-45771000D02*
X166134366Y-46486000D01*
D10*
X167418366Y-56128000D02*
X167418366Y-56128000D01*
X171788366Y-54284000D02*
G75*
G03*
X171885366Y-54338000I255020J343972D01*
G01*
X169319366Y-56124000D02*
X169672366Y-55020000D01*
X166591366Y-55040000D02*
G75*
G03*
X166427366Y-55007000I-157630J-359357D01*
G01*
X170609365Y-55995000D02*
G75*
G03*
X170672365Y-55856000I-249350J196791D01*
G01*
X167759366Y-55670000D02*
G75*
G03*
X167676366Y-55659000I-90724J-365912D01*
G01*
X174066366Y-53713000D02*
X174075366Y-53646000D01*
D11*
X166127366Y-51553000D02*
G75*
G03*
X166134366Y-51620000I43930J-29276D01*
G01*
D10*
X166912366Y-53262000D02*
X166912366Y-54366000D01*
X165305366Y-54129000D02*
G75*
G03*
X165427366Y-54158000I119798J232859D01*
G01*
D11*
X172478366Y-48272000D02*
X172133366Y-47441000D01*
D10*
X164347366Y-53281000D02*
G75*
G03*
X164200366Y-53375000I178432J-440981D01*
G01*
X170157366Y-56105000D02*
G75*
G03*
X170313366Y-56137000I152310J346265D01*
G01*
D11*
X166699366Y-47441000D02*
G75*
G03*
X166694365Y-47389999I-49845J20858D01*
G01*
D10*
X168217366Y-53815000D02*
X168217366Y-53815000D01*
X167418366Y-55476000D02*
X167418366Y-55359000D01*
X167352366Y-54158001D02*
G75*
G03*
X167439366Y-54142000I1734J235102D01*
G01*
X174724366Y-53548000D02*
G75*
G03*
X174632366Y-53390000I-407755J-131642D01*
G01*
D11*
X166134366Y-46486000D02*
G75*
G03*
X166127365Y-46554000I37533J-38225D01*
G01*
D10*
X168024366Y-53548000D02*
G75*
G03*
X168003366Y-53658000I533472J-158850D01*
G01*
X174526366Y-53916000D02*
X174518366Y-53984000D01*
X171713366Y-53523000D02*
G75*
G03*
X171679366Y-53715000I479776J-183971D01*
G01*
X171713366Y-55279000D02*
G75*
G03*
X171704366Y-55372000I545733J-99749D01*
G01*
D11*
X165280366Y-48548000D02*
X165280366Y-49559000D01*
D10*
X166183366Y-55576000D02*
G75*
G03*
X166173366Y-55427000I-1112241J188D01*
G01*
X173415366Y-54249000D02*
X173415366Y-55138000D01*
X172978367Y-53815000D02*
G75*
G03*
X173009366Y-54051000I844162J-9151D01*
G01*
X172208366Y-54154000D02*
G75*
G03*
X172293366Y-54103000I-81431J232051D01*
G01*
D11*
X168911366Y-44917000D02*
G75*
G03*
X168858365Y-44960000I-445J-53615D01*
G01*
D10*
X174296366Y-53249000D02*
G75*
G03*
X174180366Y-53260000I-7539J-537639D01*
G01*
X173638366Y-53262000D02*
X173415366Y-53262000D01*
X164814366Y-54269000D02*
G75*
G03*
X164884366Y-54200000I-159329J231645D01*
G01*
X172316366Y-55889000D02*
G75*
G03*
X172353366Y-55845000I-87918J111487D01*
G01*
X171224366Y-56124000D02*
X171446366Y-56124000D01*
X165618366Y-54347000D02*
G75*
G03*
X165782366Y-54249000I-203134J526162D01*
G01*
X173638366Y-56124000D02*
X173638366Y-53262000D01*
X174578366Y-54288001D02*
G75*
G03*
X174632366Y-54239000I-230059J307789D01*
G01*
X174518367Y-53646000D02*
G75*
G03*
X174475366Y-53552000I-256640J-60564D01*
G01*
X173415366Y-56124000D02*
X173638366Y-56124000D01*
X171485366Y-53262000D02*
X171262366Y-53262000D01*
X165479366Y-56096000D02*
G75*
G03*
X165693366Y-56137000I212956J532540D01*
G01*
X172162366Y-55933000D02*
G75*
G03*
X172254366Y-55922000I6050J339620D01*
G01*
X164677366Y-54103000D02*
G75*
G03*
X164733366Y-54017000I-144392J155254D01*
G01*
X168787366Y-53390000D02*
G75*
G03*
X168733366Y-53341000I-303205J-279889D01*
G01*
X173400365Y-55367000D02*
G75*
G03*
X173353365Y-55292000I-189751J-66685D01*
G01*
X167196366Y-54096000D02*
G75*
G03*
X167266366Y-54142000I145286J144827D01*
G01*
X172100366Y-54379000D02*
G75*
G03*
X172267366Y-54352000I1047J523484D01*
G01*
X173415366Y-55138000D02*
X173411366Y-55138000D01*
X172044366Y-53475001D02*
G75*
G03*
X171971366Y-53524000I81626J-200485D01*
G01*
X168108366Y-55020000D02*
X168461366Y-56124000D01*
X167418366Y-55740000D02*
G75*
G03*
X167430366Y-55842000I342107J-11458D01*
G01*
X173127366Y-53478000D02*
G75*
G03*
X173072366Y-53498000I35291J-182676D01*
G01*
X170028366Y-56009000D02*
G75*
G03*
X170157366Y-56105000I292944J258972D01*
G01*
X174066366Y-53918000D02*
X174063366Y-53815000D01*
X172786366Y-55225000D02*
G75*
G03*
X172763366Y-55302000I328228J-139978D01*
G01*
X166941366Y-56124000D02*
X166941366Y-56124000D01*
X167134366Y-53921000D02*
G75*
G03*
X167150366Y-54021000I298340J-3546D01*
G01*
X168657366Y-56124000D02*
X168888366Y-55352000D01*
X169123366Y-56124000D02*
X169319366Y-56124000D01*
D11*
X166354366Y-49835000D02*
G75*
G03*
X166315366Y-49802999I-49329J-20353D01*
G01*
D10*
X168040367Y-55937000D02*
G75*
G03*
X168066366Y-55804000I-311151J129867D01*
G01*
X173124366Y-55007000D02*
G75*
G03*
X172997366Y-55031000I-999J-342740D01*
G01*
X169300366Y-53953000D02*
X169342366Y-53932000D01*
D11*
X165280366Y-49559000D02*
G75*
G03*
X165323365Y-49611000I53099J130D01*
G01*
D10*
X168906366Y-53813000D02*
G75*
G03*
X168899366Y-53658000I-1518966J9059D01*
G01*
X171446366Y-56124000D02*
X171446366Y-55020000D01*
X167134366Y-54249000D02*
X167139366Y-54249000D01*
X166421366Y-53598000D02*
G75*
G03*
X166371366Y-53526000I-157730J-56173D01*
G01*
X173415367Y-53815000D02*
G75*
G03*
X173385366Y-53583000I-869420J5514D01*
G01*
X174413366Y-54368001D02*
G75*
G03*
X174506366Y-54334000I-66816J326951D01*
G01*
D11*
X166127366Y-46554000D02*
X166694366Y-47390000D01*
D10*
X169501366Y-54379000D02*
G75*
G03*
X169761366Y-54330000I5179J686814D01*
G01*
X165409366Y-55133000D02*
G75*
G03*
X165307366Y-55281000I273925J-297935D01*
G01*
X165317366Y-54366000D02*
G75*
G03*
X165436366Y-54379000I114048J492832D01*
G01*
X168787366Y-54239000D02*
G75*
G03*
X168878366Y-54081000I-315562J286953D01*
G01*
X174475366Y-53552000D02*
G75*
G03*
X174402366Y-53491000I-144847J-99161D01*
G01*
D11*
X173552366Y-49559000D02*
X173552366Y-48548000D01*
D10*
X167761366Y-55017000D02*
G75*
G03*
X167649366Y-55008000I-101546J-562286D01*
G01*
X166941366Y-55020000D02*
X166719366Y-55020000D01*
X171220366Y-55138000D02*
G75*
G03*
X171096366Y-55040000I-262537J-204741D01*
G01*
X164098366Y-53523000D02*
G75*
G03*
X164063366Y-53715000I478373J-186394D01*
G01*
X164172366Y-54284000D02*
G75*
G03*
X164270366Y-54338000I253671J344441D01*
G01*
X171262366Y-53709000D02*
X171262366Y-54366000D01*
X172348366Y-53605000D02*
G75*
G03*
X172298366Y-53524000I-207692J-72273D01*
G01*
X171919366Y-56128000D02*
X171919366Y-56128000D01*
X164884366Y-54200000D02*
G75*
G03*
X164934366Y-54101000I-325103J226319D01*
G01*
X164934366Y-54101000D02*
G75*
G03*
X164964366Y-53974000I-623637J214359D01*
G01*
X171679366Y-53715000D02*
X171679366Y-53898000D01*
X169761366Y-54330000D02*
G75*
G03*
X169988366Y-54182000I-281587J679976D01*
G01*
X172772366Y-54098000D02*
G75*
G03*
X172834366Y-54237000I323575J61001D01*
G01*
X172580366Y-53669000D02*
G75*
G03*
X172552366Y-53546000I-671560J-88189D01*
G01*
X169504366Y-53458000D02*
G75*
G03*
X169344366Y-53487000I-6797J-418384D01*
G01*
X165568366Y-55902000D02*
G75*
G03*
X165697366Y-55929000I128032J290045D01*
G01*
X168556366Y-53491000D02*
G75*
G03*
X168451366Y-53471000I-98471J-231345D01*
G01*
X174296366Y-54158000D02*
G75*
G03*
X174402366Y-54138000I6761J255062D01*
G01*
X164751366Y-53715000D02*
G75*
G03*
X164732366Y-53605000I-356091J-4866D01*
G01*
X168661366Y-53295000D02*
G75*
G03*
X168568366Y-53260000I-160252J-284756D01*
G01*
D11*
X166694366Y-50716000D02*
X166127366Y-51553000D01*
D10*
X169797366Y-53335000D02*
G75*
G03*
X169665366Y-53271000I-247859J-343084D01*
G01*
X166093367Y-55958000D02*
G75*
G03*
X166143366Y-55859000I-333430J230524D01*
G01*
X169693366Y-53592000D02*
X169685366Y-53627000D01*
X172218366Y-55476000D02*
X171919366Y-55476000D01*
X167859366Y-55046000D02*
G75*
G03*
X167761366Y-55017000I-171059J-397975D01*
G01*
X165211366Y-53303000D02*
G75*
G03*
X165039366Y-53440000I291803J-542823D01*
G01*
X168335366Y-53260001D02*
G75*
G03*
X168242366Y-53295000I69184J-324889D01*
G01*
X170028366Y-55138000D02*
X170028366Y-54574000D01*
X168220366Y-53918000D02*
X168217366Y-53815000D01*
X167266366Y-54142000D02*
G75*
G03*
X167352366Y-54158000I84178J213336D01*
G01*
X172875366Y-55105000D02*
G75*
G03*
X172786366Y-55225000I191890J-235323D01*
G01*
X174087366Y-54334000D02*
G75*
G03*
X174180366Y-54368000I161220J296793D01*
G01*
X164518366Y-53458000D02*
G75*
G03*
X164429366Y-53475000I-1084J-235798D01*
G01*
X170434366Y-55808000D02*
G75*
G03*
X170465366Y-55571000I-810321J226518D01*
G01*
X170059366Y-55341000D02*
G75*
G03*
X170028366Y-55571000I817950J-227335D01*
G01*
X172506366Y-53446000D02*
G75*
G03*
X172442366Y-53372000I-270227J-169034D01*
G01*
X166438367Y-53702000D02*
G75*
G03*
X166421366Y-53598000I-293025J5491D01*
G01*
X166504366Y-55229000D02*
G75*
G03*
X166430366Y-55243000I1648J-211287D01*
G01*
D11*
X169922366Y-44917000D02*
X168911366Y-44917000D01*
D10*
X168899366Y-53970000D02*
G75*
G03*
X168906366Y-53813000I-1554921J147983D01*
G01*
X170840366Y-53609000D02*
G75*
G03*
X170825366Y-53709000I281309J-93322D01*
G01*
X165306366Y-53500000D02*
G75*
G03*
X165203366Y-53587000I154998J-287976D01*
G01*
X169177366Y-54291000D02*
G75*
G03*
X169325366Y-54357000I276983J422174D01*
G01*
X173842366Y-53813000D02*
G75*
G03*
X173848366Y-53970000I1548440J-19439D01*
G01*
X169806366Y-56124000D02*
X170028366Y-56124000D01*
X169547366Y-53696000D02*
X169364366Y-53709000D01*
X171919366Y-56128000D02*
X171919366Y-56031000D01*
X164085366Y-54201000D02*
G75*
G03*
X164172366Y-54284000I406182J338661D01*
G01*
X166438366Y-54366000D02*
X166660366Y-54366000D01*
X165891365Y-55282000D02*
G75*
G03*
X165818366Y-55233000I-153956J-150486D01*
G01*
X167591366Y-56134000D02*
G75*
G03*
X167687366Y-56141000I93125J615368D01*
G01*
D11*
X170648366Y-51928000D02*
X171028366Y-51771000D01*
D10*
X171679366Y-53898000D02*
X172367366Y-53898000D01*
X170603366Y-54366000D02*
X170825366Y-54366000D01*
X167853366Y-55737000D02*
G75*
G03*
X167818366Y-55695000I-96573J-44894D01*
G01*
X168242366Y-54334000D02*
G75*
G03*
X168335366Y-54368000I161509J297583D01*
G01*
X167848366Y-56115001D02*
G75*
G03*
X167964366Y-56044000I-96586J288062D01*
G01*
X166941366Y-56124000D02*
X166941366Y-55020000D01*
D11*
X171028366Y-46336000D02*
X170197366Y-45992000D01*
D10*
X172997366Y-55031000D02*
G75*
G03*
X172875366Y-55105000I175823J-427440D01*
G01*
X165941366Y-55363000D02*
G75*
G03*
X165891366Y-55282000I-208542J-72798D01*
G01*
X166438366Y-53702000D02*
X166438366Y-54366000D01*
X166309366Y-55028000D02*
G75*
G03*
X166197366Y-55092000I150681J-393693D01*
G01*
X173268366Y-54151001D02*
G75*
G03*
X173322366Y-54130000I-39324J181047D01*
G01*
X174506366Y-54334000D02*
G75*
G03*
X174578366Y-54288000I-278721J515605D01*
G01*
X168629366Y-54077000D02*
G75*
G03*
X168672366Y-53984000I-201507J149610D01*
G01*
X165885366Y-55038000D02*
G75*
G03*
X165727366Y-55007000I-158670J-390559D01*
G01*
X173411366Y-55138000D02*
G75*
G03*
X173288366Y-55040000I-262872J-203742D01*
G01*
X167150366Y-54021000D02*
G75*
G03*
X167196366Y-54096000I187661J63492D01*
G01*
D11*
X166916366Y-52342000D02*
X167753366Y-51776000D01*
D10*
X170684366Y-55399000D02*
G75*
G03*
X170672366Y-55289000I-815386J-33297D01*
G01*
X172579366Y-53974000D02*
G75*
G03*
X172589366Y-53818000I-1105835J149207D01*
G01*
X173040366Y-55292000D02*
G75*
G03*
X172993366Y-55367000I142751J-141685D01*
G01*
X174180366Y-54368000D02*
G75*
G03*
X174296366Y-54379000I110436J547466D01*
G01*
X169437366Y-55020000D02*
X169225366Y-55793000D01*
X167469366Y-55900000D02*
X167446366Y-55877000D01*
X166371366Y-53526000D02*
G75*
G03*
X166223366Y-53471000I-148277J-172372D01*
G01*
X166715366Y-55138000D02*
G75*
G03*
X166591366Y-55040000I-262988J-205311D01*
G01*
X166035366Y-55130000D02*
G75*
G03*
X165885366Y-55038000I-364181J-425491D01*
G01*
X164732366Y-53605000D02*
G75*
G03*
X164682366Y-53524000I-207692J-72273D01*
G01*
X165898366Y-54075000D02*
G75*
G03*
X165927366Y-53956000I-594120J207819D01*
G01*
X170935366Y-55243000D02*
G75*
G03*
X170862366Y-55284000I104127J-270885D01*
G01*
X174296366Y-53471001D02*
G75*
G03*
X174191366Y-53491000I-6351J-252287D01*
G01*
X170844366Y-53273000D02*
G75*
G03*
X170722366Y-53347000I175008J-426095D01*
G01*
X169651366Y-53496000D02*
G75*
G03*
X169594366Y-53468000I-85181J-101387D01*
G01*
X171262366Y-53262000D02*
X171262366Y-53380000D01*
X166719366Y-55020000D02*
X166719366Y-55138000D01*
X173638366Y-56124000D02*
X173638366Y-56124000D01*
X170684366Y-55744000D02*
G75*
G03*
X170688366Y-55571000I-3171134J159867D01*
G01*
X174578366Y-53341000D02*
G75*
G03*
X174506366Y-53295000I-375778J-508827D01*
G01*
X166223366Y-53471000D02*
G75*
G03*
X166149366Y-53485000I1932J-212784D01*
G01*
X165960366Y-55473000D02*
X165960366Y-55473000D01*
X174075366Y-53984000D02*
G75*
G03*
X174117366Y-54077000I274080J67794D01*
G01*
X174117366Y-54077000D02*
G75*
G03*
X174191366Y-54138000I148925J105278D01*
G01*
X168971366Y-55020000D02*
X168809366Y-55020000D01*
X167418366Y-55740000D02*
X167418366Y-55659000D01*
X165273366Y-55473000D02*
X165273366Y-55656000D01*
X174180366Y-53260000D02*
G75*
G03*
X174087366Y-53295000I68894J-324120D01*
G01*
X167868366Y-55501000D02*
G75*
G03*
X167717366Y-55476000I-148730J-429808D01*
G01*
X167638366Y-55216000D02*
X167708366Y-55221000D01*
X171679366Y-53898000D02*
X171679366Y-53898000D01*
X167764366Y-54162000D02*
G75*
G03*
X167786366Y-54085000I-334832J137309D01*
G01*
X166197366Y-55092000D02*
X166357366Y-55284000D01*
X174191366Y-53491000D02*
G75*
G03*
X174117366Y-53552000I74718J-166028D01*
G01*
X166023366Y-56027001D02*
G75*
G03*
X166093366Y-55958000I-160899J233238D01*
G01*
X172955366Y-54339000D02*
G75*
G03*
X173036366Y-54369000I147743J274557D01*
G01*
X167418366Y-56031000D02*
X167422366Y-56031000D01*
X167439366Y-54142000D02*
G75*
G03*
X167510366Y-54096000I-74294J192463D01*
G01*
D11*
X172139366Y-47390000D02*
X172705366Y-46554000D01*
D10*
X166719366Y-55138000D02*
X166715366Y-55138000D01*
X168451366Y-54158000D02*
G75*
G03*
X168556366Y-54138000I6261J252750D01*
G01*
X169806366Y-54574000D02*
X169806366Y-56124000D01*
X166719366Y-55460000D02*
X166719366Y-56124000D01*
X166438366Y-53380000D02*
X166434366Y-53380000D01*
X168681366Y-53916000D02*
X168672366Y-53984000D01*
D11*
X172705366Y-46554000D02*
G75*
G03*
X172698365Y-46486000I-44604J29768D01*
G01*
D10*
X170121366Y-55257000D02*
G75*
G03*
X170059366Y-55341000I71213J-117443D01*
G01*
X169217366Y-53741000D02*
G75*
G03*
X169118366Y-53815000I95384J-230832D01*
G01*
X174075366Y-53984000D02*
X174066366Y-53918000D01*
X168657366Y-56124000D02*
X168657366Y-56124000D01*
X171224366Y-55460000D02*
G75*
G03*
X171208366Y-55356000I-294448J7931D01*
G01*
X173127366Y-54151000D02*
G75*
G03*
X173197366Y-54158000I68516J331660D01*
G01*
X171135366Y-53282000D02*
G75*
G03*
X170971366Y-53249000I-157876J-360576D01*
G01*
X171974366Y-54144000D02*
G75*
G03*
X172104366Y-54171000I128437J291941D01*
G01*
X164305366Y-53605000D02*
G75*
G03*
X164285366Y-53715000I342570J-119104D01*
G01*
X174518366Y-53646000D02*
X174526366Y-53712000D01*
X164675366Y-53280000D02*
G75*
G03*
X164518366Y-53249000I-158204J-388162D01*
G01*
X172043366Y-55224000D02*
G75*
G03*
X171974366Y-55250000I33922J-194583D01*
G01*
X170887366Y-53534000D02*
G75*
G03*
X170840366Y-53609000I142228J-141357D01*
G01*
X167467366Y-55027000D02*
G75*
G03*
X167325366Y-55087000I99714J-434025D01*
G01*
X167674366Y-54282000D02*
G75*
G03*
X167764366Y-54162000I-190494J236619D01*
G01*
X168461366Y-56124000D02*
X168657366Y-56124000D01*
X168003366Y-53970000D02*
G75*
G03*
X168024366Y-54081000I563508J49123D01*
G01*
D11*
X172698366Y-51620000D02*
G75*
G03*
X172705366Y-51553000I-36999J37731D01*
G01*
X170165366Y-45952000D02*
G75*
G03*
X170197365Y-45991999I53047J9638D01*
G01*
X172478366Y-48272000D02*
G75*
G03*
X172517365Y-48304000I49138J20121D01*
G01*
D10*
X170971366Y-53249000D02*
G75*
G03*
X170844366Y-53273000I-1302J-341134D01*
G01*
D11*
X172517366Y-49803000D02*
X173509366Y-49611000D01*
D10*
X169266366Y-54029000D02*
G75*
G03*
X169281366Y-54091000I121056J-3527D01*
G01*
X165643366Y-54072000D02*
G75*
G03*
X165697366Y-53965000I-219052J177675D01*
G01*
X171200366Y-53534000D02*
G75*
G03*
X171130366Y-53487000I-147448J-143975D01*
G01*
X168661366Y-54334000D02*
G75*
G03*
X168733366Y-54288000I-288260J530537D01*
G01*
X170313366Y-55007000D02*
G75*
G03*
X170159366Y-55043000I-4741J-327112D01*
G01*
X170672366Y-55856000D02*
G75*
G03*
X170684366Y-55744000I-827960J145352D01*
G01*
D11*
X168184366Y-51928000D02*
G75*
G03*
X168254365Y-51899000I20552J49372D01*
G01*
D10*
X167325366Y-55086999D02*
G75*
G03*
X167234365Y-55200000I149905J-213864D01*
G01*
D11*
X166694366Y-50716000D02*
G75*
G03*
X166699365Y-50666000I-43916J29641D01*
G01*
D10*
X166146366Y-55304000D02*
G75*
G03*
X166100366Y-55204000I-422932J-133969D01*
G01*
X165381366Y-56042000D02*
G75*
G03*
X165479366Y-56096000I255389J347559D01*
G01*
X173869366Y-53548000D02*
G75*
G03*
X173848366Y-53658000I546501J-161337D01*
G01*
X168559366Y-55793000D02*
X168555366Y-55793000D01*
X168888366Y-55352000D02*
X168892366Y-55352000D01*
X170465366Y-55571000D02*
G75*
G03*
X170434366Y-55337000I-832102J8817D01*
G01*
X174063366Y-53815000D02*
X174066366Y-53713000D01*
X169484366Y-54171000D02*
G75*
G03*
X169673366Y-54135000I3412J496209D01*
G01*
X173322366Y-53499000D02*
G75*
G03*
X173268366Y-53478000I-92028J-156714D01*
G01*
X172046366Y-55926000D02*
G75*
G03*
X172162366Y-55933000I95916J624836D01*
G01*
X165643366Y-53557000D02*
G75*
G03*
X165553366Y-53493000I-169173J-142618D01*
G01*
X167552366Y-54355000D02*
G75*
G03*
X167674366Y-54282000I-169097J421045D01*
G01*
X174632366Y-53390000D02*
G75*
G03*
X174578366Y-53341000I-295750J-271673D01*
G01*
X172320366Y-55695000D02*
G75*
G03*
X172261366Y-55670000I-95799J-143965D01*
G01*
X169547366Y-53696000D02*
G75*
G03*
X169618366Y-53684000I-15919J310228D01*
G01*
X171970366Y-55900000D02*
G75*
G03*
X172046366Y-55926000I104624J181747D01*
G01*
X164355366Y-53524000D02*
G75*
G03*
X164305366Y-53605000I161104J-155380D01*
G01*
X170610366Y-53544000D02*
G75*
G03*
X170603366Y-53632000I488466J-83134D01*
G01*
X170028366Y-56124000D02*
X170028366Y-56124000D01*
X172465366Y-56044000D02*
G75*
G03*
X172542366Y-55937000I-207116J230251D01*
G01*
X167753366Y-55922000D02*
G75*
G03*
X167815366Y-55889000I-37042J144336D01*
G01*
X173415366Y-53262000D02*
X173415366Y-53378000D01*
X164973366Y-53818000D02*
G75*
G03*
X164964366Y-53669000I-1097029J8508D01*
G01*
X167424366Y-54379000D02*
G75*
G03*
X167552366Y-54355000I659J349814D01*
G01*
X171919366Y-56031000D02*
X171924366Y-56031000D01*
X172834366Y-53392000D02*
G75*
G03*
X172772366Y-53531000I267093J-202463D01*
G01*
X168346366Y-53491000D02*
G75*
G03*
X168272365Y-53552000I75264J-166691D01*
G01*
X168451366Y-53249000D02*
G75*
G03*
X168335366Y-53260000I-7498J-538068D01*
G01*
X172224366Y-53475000D02*
G75*
G03*
X172133366Y-53458000I-89445J-226734D01*
G01*
X167996366Y-53813000D02*
G75*
G03*
X168003366Y-53970000I1548959J-9595D01*
G01*
X172756366Y-53815000D02*
G75*
G03*
X172760366Y-53988000I3105063J-14753D01*
G01*
D11*
X167753366Y-46331000D02*
G75*
G03*
X167804365Y-46336000I30137J44801D01*
G01*
D10*
X170489366Y-56097000D02*
G75*
G03*
X170609366Y-55995000I-167132J318213D01*
G01*
X168568366Y-54368001D02*
G75*
G03*
X168661366Y-54334000I-67243J328120D01*
G01*
X169266366Y-54029000D02*
X169275366Y-53986000D01*
X164751366Y-53715000D02*
X164285366Y-53715000D01*
X168556366Y-54138000D02*
G75*
G03*
X168629366Y-54077000I-73605J162264D01*
G01*
X173288366Y-55040001D02*
G75*
G03*
X173124366Y-55007000I-157643J-359420D01*
G01*
X171969366Y-55027000D02*
G75*
G03*
X171827366Y-55087000I100118J-434980D01*
G01*
X171933366Y-55295000D02*
G75*
G03*
X171919366Y-55359000I124779J-60827D01*
G01*
X174015366Y-53341000D02*
G75*
G03*
X173960366Y-53390000I240861J-325722D01*
G01*
X169325366Y-54357000D02*
G75*
G03*
X169501366Y-54379000I169617J641940D01*
G01*
X167815366Y-55889000D02*
G75*
G03*
X167851366Y-55845000I-89826J110221D01*
G01*
X164826366Y-53372000D02*
G75*
G03*
X164675366Y-53280000I-362320J-424758D01*
G01*
X165553366Y-53493000D02*
G75*
G03*
X165427366Y-53471000I-120112J-316094D01*
G01*
D11*
X168635366Y-45992000D02*
G75*
G03*
X168667366Y-45952000I-21048J49638D01*
G01*
D10*
X167794366Y-53996000D02*
X167794366Y-53262000D01*
X173415366Y-55467000D02*
G75*
G03*
X173400366Y-55367000I-298363J6370D01*
G01*
X167422366Y-56031000D02*
G75*
G03*
X167515366Y-56114000I158670J84184D01*
G01*
X174413366Y-53260000D02*
G75*
G03*
X174296366Y-53249000I-109703J-539108D01*
G01*
X172367366Y-53715000D02*
X172367366Y-53715000D01*
X169342366Y-53932000D02*
X169401366Y-53921000D01*
X165697366Y-53665000D02*
G75*
G03*
X165643366Y-53557000I-275645J-70323D01*
G01*
X171861366Y-54064000D02*
G75*
G03*
X171974366Y-54144000I263783J252787D01*
G01*
X171736366Y-55200000D02*
G75*
G03*
X171713366Y-55279000I344406J-143119D01*
G01*
D11*
X167753366Y-46331000D02*
X166916366Y-45764000D01*
D10*
X166427366Y-55007000D02*
G75*
G03*
X166309366Y-55028000I-424J-339644D01*
G01*
X167851367Y-55845000D02*
G75*
G03*
X167863366Y-55793000I-100306J50531D01*
G01*
X165697366Y-53965000D02*
G75*
G03*
X165715366Y-53815000I-544913J141469D01*
G01*
X169673366Y-54135000D02*
G75*
G03*
X169832366Y-54029000I-188392J454837D01*
G01*
X173197366Y-54158000D02*
G75*
G03*
X173268366Y-54151000I4077J322210D01*
G01*
X171861366Y-54064000D02*
X171700366Y-54201000D01*
X172978366Y-56124000D02*
X172978366Y-55467000D01*
D11*
X171079366Y-51776000D02*
X171916366Y-52342000D01*
D10*
X164063366Y-53898000D02*
X164751366Y-53898000D01*
X170489366Y-55048000D02*
G75*
G03*
X170408366Y-55017000I-151079J-273431D01*
G01*
X172479366Y-55572000D02*
G75*
G03*
X172370366Y-55501000I-202076J-191061D01*
G01*
X170028366Y-54574000D02*
X169806366Y-54574000D01*
X169618366Y-53684000D02*
G75*
G03*
X169662366Y-53659000I-29768J103610D01*
G01*
X171224366Y-55138000D02*
X171220366Y-55138000D01*
X167708366Y-55221000D02*
X167766366Y-55234000D01*
X169988366Y-54182000D02*
X169988366Y-54182000D01*
X169504366Y-53249000D02*
G75*
G03*
X169369366Y-53259000I-6156J-833145D01*
G01*
X165915366Y-53334000D02*
X166076366Y-53526000D01*
X166028366Y-53270000D02*
G75*
G03*
X165915366Y-53334000I147372J-391963D01*
G01*
X172367366Y-53715000D02*
X171901366Y-53715000D01*
X166653366Y-55284000D02*
G75*
G03*
X166504366Y-55229000I-148670J-173433D01*
G01*
X167544366Y-55926000D02*
G75*
G03*
X167660366Y-55933000I95883J624278D01*
G01*
X165273366Y-55656000D02*
X165273366Y-55656000D01*
X172104366Y-54171000D02*
G75*
G03*
X172208366Y-54154000I3660J304224D01*
G01*
X171446366Y-55020000D02*
X171224366Y-55020000D01*
D11*
X172705366Y-51553000D02*
X172139366Y-50716000D01*
D10*
X165455366Y-55822000D02*
G75*
G03*
X165568366Y-55902000I264314J253537D01*
G01*
X166660366Y-54366000D02*
X166660366Y-54366000D01*
D11*
X167804366Y-51771000D02*
G75*
G03*
X167753366Y-51776000I-20863J-49802D01*
G01*
D10*
X169077366Y-54184000D02*
G75*
G03*
X169177366Y-54291000I257926J140823D01*
G01*
X170121366Y-55888001D02*
G75*
G03*
X170176366Y-55909000I93962J163570D01*
G01*
X166719366Y-55460000D02*
G75*
G03*
X166703366Y-55356000I-296466J7620D01*
G01*
X170245366Y-55229000D02*
X170245366Y-55229000D01*
X168451366Y-54379000D02*
G75*
G03*
X168568366Y-54368000I6623J557280D01*
G01*
X165514367Y-55363000D02*
G75*
G03*
X165494366Y-55473000I343550J-119283D01*
G01*
X172567366Y-55804000D02*
G75*
G03*
X172545366Y-55677000I-355282J3860D01*
G01*
X171919366Y-55476000D02*
X171919366Y-55359000D01*
X168170366Y-53341000D02*
G75*
G03*
X168115366Y-53390000I240861J-325722D01*
G01*
X174063366Y-53815000D02*
X174063366Y-53815000D01*
X167649366Y-55008001D02*
G75*
G03*
X167467366Y-55027000I-14310J-744116D01*
G01*
X171009366Y-55229000D02*
G75*
G03*
X170935366Y-55243000I1543J-210729D01*
G01*
X164964366Y-53974000D02*
G75*
G03*
X164973366Y-53818000I-1119996J142874D01*
G01*
X166434366Y-53380000D02*
G75*
G03*
X166310366Y-53282000I-262283J-204419D01*
G01*
X171971366Y-53524000D02*
G75*
G03*
X171921366Y-53605000I162165J-156035D01*
G01*
X171970366Y-55900000D02*
X171948366Y-55877000D01*
X166660366Y-54366000D02*
X166660366Y-53262000D01*
X171919366Y-55740000D02*
G75*
G03*
X171932366Y-55842000I344074J-7976D01*
G01*
X168878366Y-54081000D02*
G75*
G03*
X168899366Y-53970000I-545967J160777D01*
G01*
X165638366Y-55233000D02*
G75*
G03*
X165564366Y-55282000I79990J-201180D01*
G01*
X168217366Y-53815000D02*
X168220366Y-53713000D01*
X172343366Y-55303000D02*
X172513366Y-55169000D01*
X172760366Y-53642000D02*
G75*
G03*
X172756366Y-53815000I3121896J-158729D01*
G01*
X172349366Y-56115000D02*
G75*
G03*
X172465366Y-56044000I-96519J287953D01*
G01*
X173110366Y-55245000D02*
G75*
G03*
X173040366Y-55292000I77915J-191672D01*
G01*
X172254366Y-55922001D02*
G75*
G03*
X172316366Y-55889000I-36570J143449D01*
G01*
X169344366Y-53487000D02*
G75*
G03*
X169208366Y-53561000I285424J-686538D01*
G01*
D11*
X168955366Y-50183000D02*
G75*
G03*
X168927366Y-50115000I-49411J19419D01*
G01*
D10*
X165727366Y-55216000D02*
G75*
G03*
X165638366Y-55233000I-1351J-234403D01*
G01*
X165203366Y-54042000D02*
G75*
G03*
X165305366Y-54129000I254247J194790D01*
G01*
X165427366Y-53471000D02*
G75*
G03*
X165306366Y-53500000I-1330J-261383D01*
G01*
X172834366Y-54237000D02*
G75*
G03*
X172955366Y-54339000I296630J229115D01*
G01*
X173009366Y-54051000D02*
G75*
G03*
X173072365Y-54131000I126943J35161D01*
G01*
X171262366Y-53709000D02*
G75*
G03*
X171247366Y-53609000I-296310J6678D01*
G01*
X164246366Y-54064000D02*
G75*
G03*
X164359366Y-54144000I263783J252787D01*
G01*
X170371366Y-55889000D02*
G75*
G03*
X170434365Y-55808000I-64456J115131D01*
G01*
X172552366Y-53546000D02*
G75*
G03*
X172506366Y-53446000I-421304J-133220D01*
G01*
X164652366Y-54352000D02*
G75*
G03*
X164814366Y-54269000I-211386J612180D01*
G01*
X168044366Y-55677000D02*
G75*
G03*
X167977366Y-55572000I-294084J-113777D01*
G01*
X167964366Y-56044000D02*
G75*
G03*
X168040366Y-55937000I-207542J227903D01*
G01*
D11*
X171916366Y-45764000D02*
X171079366Y-46331000D01*
D10*
X165960366Y-55473000D02*
X165494366Y-55473000D01*
X174402366Y-54138001D02*
G75*
G03*
X174475366Y-54077000I-72484J160923D01*
G01*
X166912366Y-54366000D02*
X167134366Y-54366000D01*
X170059367Y-55804000D02*
G75*
G03*
X170121365Y-55888000I133212J33442D01*
G01*
X165039366Y-53440000D02*
X165203366Y-53587000D01*
X173869366Y-54081000D02*
G75*
G03*
X173960366Y-54239000I404709J127886D01*
G01*
D11*
X171028366Y-46336000D02*
G75*
G03*
X171079365Y-46331000I20851J49914D01*
G01*
D10*
X167794366Y-53262000D02*
X167572366Y-53262000D01*
X167431366Y-55295000D02*
G75*
G03*
X167418365Y-55359000I125251J-58763D01*
G01*
X173072366Y-54131000D02*
G75*
G03*
X173127366Y-54151000I92341J168313D01*
G01*
X172370366Y-55501000D02*
G75*
G03*
X172218366Y-55476000I-149169J-432362D01*
G01*
X173197366Y-54158000D02*
X173197366Y-54158000D01*
X170316366Y-55909000D02*
G75*
G03*
X170371366Y-55889000I-36602J186279D01*
G01*
X165553366Y-54137000D02*
G75*
G03*
X165643366Y-54072000I-82766J209406D01*
G01*
X169062367Y-53918000D02*
G75*
G03*
X169044366Y-54040000I370938J-117057D01*
G01*
X174745366Y-53970000D02*
G75*
G03*
X174752366Y-53813000I-1529234J146838D01*
G01*
X170825366Y-54366000D02*
X170825366Y-53709000D01*
X164063366Y-53898000D02*
X164063366Y-53898000D01*
X172442366Y-53372000D02*
G75*
G03*
X172291366Y-53280000I-362320J-424758D01*
G01*
X165294366Y-55959000D02*
G75*
G03*
X165381366Y-56042000I408724J341325D01*
G01*
X168230366Y-53984000D02*
G75*
G03*
X168272366Y-54077000I274151J67826D01*
G01*
X169893366Y-53716000D02*
G75*
G03*
X169915366Y-53590000I-312286J119446D01*
G01*
X169221366Y-55793000D02*
X168971366Y-55020000D01*
X173385366Y-53583000D02*
G75*
G03*
X173322366Y-53499000I-132961J-34096D01*
G01*
X167469366Y-55900000D02*
G75*
G03*
X167544366Y-55926000I104070J179030D01*
G01*
X171208366Y-55356000D02*
G75*
G03*
X171158366Y-55284000I-158539J-56735D01*
G01*
X170028366Y-55571000D02*
G75*
G03*
X170059366Y-55804000I859282J-4238D01*
G01*
X167841366Y-55303000D02*
X168012366Y-55169000D01*
D11*
X166849366Y-52335000D02*
G75*
G03*
X166916365Y-52342000I37737J37058D01*
G01*
D10*
X164593366Y-54154000D02*
G75*
G03*
X164677366Y-54103000I-81750J229322D01*
G01*
X169364366Y-53709000D02*
G75*
G03*
X169284366Y-53720000I32245J-530920D01*
G01*
X168230366Y-53984000D02*
X168220366Y-53918000D01*
D11*
X172133366Y-50666000D02*
X172478366Y-49835000D01*
D10*
X170933366Y-55007000D02*
G75*
G03*
X170814366Y-55028000I-957J-342245D01*
G01*
X165557366Y-55038000D02*
G75*
G03*
X165409366Y-55133000I178902J-441495D01*
G01*
X171919366Y-55659000D02*
X172178366Y-55659000D01*
D11*
X171079366Y-51776000D02*
G75*
G03*
X171028365Y-51771000I-30149J-44915D01*
G01*
D10*
X172756366Y-55390000D02*
X172756366Y-56124000D01*
D11*
X172133366Y-50666000D02*
G75*
G03*
X172139365Y-50715999I49968J-19364D01*
G01*
D10*
X167638366Y-55216000D02*
G75*
G03*
X167541366Y-55224000I-12025J-446267D01*
G01*
X167556366Y-54021000D02*
G75*
G03*
X167572366Y-53921000I-283450J96631D01*
G01*
X171247366Y-53609000D02*
G75*
G03*
X171200366Y-53534000I-189229J-66357D01*
G01*
X167472366Y-55250000D02*
G75*
G03*
X167431366Y-55295000I59888J-95743D01*
G01*
X167515366Y-56114000D02*
G75*
G03*
X167591366Y-56134000I120873J304919D01*
G01*
D11*
X166315366Y-48304000D02*
G75*
G03*
X166354365Y-48272000I-10246J52252D01*
G01*
D10*
X171485366Y-54366000D02*
X171485366Y-53262000D01*
X169915366Y-53590000D02*
G75*
G03*
X169886366Y-53442000I-349531J8352D01*
G01*
X166146366Y-53249000D02*
G75*
G03*
X166028366Y-53270000I-836J-337330D01*
G01*
X172545365Y-55677000D02*
G75*
G03*
X172479366Y-55572000I-294798J-112059D01*
G01*
X167418366Y-55740000D02*
X167418366Y-55740000D01*
X173009366Y-53579000D02*
G75*
G03*
X172978366Y-53815000I815186J-227116D01*
G01*
X165273366Y-55656000D02*
X165960366Y-55656000D01*
X168115366Y-53390000D02*
G75*
G03*
X168024366Y-53548000I313893J-285993D01*
G01*
X164964366Y-53669000D02*
G75*
G03*
X164937366Y-53546000I-685961J-86114D01*
G01*
X165937366Y-53815000D02*
G75*
G03*
X165927366Y-53674000I-952477J3303D01*
G01*
X172955366Y-53290000D02*
G75*
G03*
X172834366Y-53392000I188055J-345856D01*
G01*
X169886366Y-53442000D02*
G75*
G03*
X169797366Y-53335000I-248556J-116229D01*
G01*
X172499366Y-54200000D02*
G75*
G03*
X172549366Y-54101000I-323801J225661D01*
G01*
X172549366Y-54101000D02*
G75*
G03*
X172579366Y-53974000I-620327J213577D01*
G01*
X165727366Y-55007001D02*
G75*
G03*
X165557366Y-55038000I-4547J-456698D01*
G01*
X167134366Y-54366000D02*
X167134366Y-54249000D01*
X169693367Y-53592000D02*
G75*
G03*
X169651366Y-53496000I-124353J2783D01*
G01*
X174752366Y-53813000D02*
X174752366Y-53813000D01*
X166438366Y-53262000D02*
X166438366Y-53380000D01*
X166310366Y-53282000D02*
G75*
G03*
X166146366Y-53249000I-157945J-360922D01*
G01*
X168906366Y-53813000D02*
X168906366Y-53813000D01*
X164429366Y-53475001D02*
G75*
G03*
X164355366Y-53524000I81338J-203214D01*
G01*
X168346366Y-54138001D02*
G75*
G03*
X168451366Y-54158000I98369J230818D01*
G01*
X171924366Y-56031000D02*
G75*
G03*
X172016365Y-56114000I157836J82462D01*
G01*
X168568366Y-53260000D02*
G75*
G03*
X168451366Y-53249000I-109569J-537683D01*
G01*
X168272366Y-53552000D02*
G75*
G03*
X168230366Y-53646000I243604J-165228D01*
G01*
X164733366Y-54017000D02*
G75*
G03*
X164751366Y-53898000I-331795J111048D01*
G01*
X174402366Y-53491001D02*
G75*
G03*
X174296366Y-53471000I-98971J-233643D01*
G01*
X170176366Y-55909000D02*
G75*
G03*
X170245366Y-55916000I65666J303712D01*
G01*
X170245366Y-55916001D02*
G75*
G03*
X170316366Y-55909000I2389J339334D01*
G01*
X174087366Y-53295000D02*
G75*
G03*
X174015366Y-53341000I307597J-560805D01*
G01*
X167418366Y-56128000D02*
X167418366Y-56031000D01*
X165927366Y-53674000D02*
G75*
G03*
X165898366Y-53555000I-625383J-89371D01*
G01*
X167262366Y-54347001D02*
G75*
G03*
X167424366Y-54379000I154349J355333D01*
G01*
X167203366Y-56128000D02*
X167418366Y-56128000D01*
D11*
X166916366Y-45764000D02*
G75*
G03*
X166849365Y-45771000I-29263J-44059D01*
G01*
X168254366Y-51899000D02*
X168955366Y-50183000D01*
X165323366Y-49611000D02*
X166315366Y-49803000D01*
D10*
X172293366Y-54103000D02*
G75*
G03*
X172348366Y-54017000I-144955J153290D01*
G01*
X173197366Y-53471000D02*
G75*
G03*
X173127366Y-53478000I-2652J-326987D01*
G01*
X166143366Y-55859000D02*
G75*
G03*
X166173366Y-55732000I-623563J214341D01*
G01*
X166149366Y-53485000D02*
G75*
G03*
X166076366Y-53526000I105444J-273231D01*
G01*
X171815366Y-53375000D02*
G75*
G03*
X171713366Y-53523000I274796J-298536D01*
G01*
X171224366Y-55020000D02*
X171224366Y-55138000D01*
X172263366Y-55017000D02*
G75*
G03*
X172151366Y-55008000I-101511J-561859D01*
G01*
X174724366Y-54081000D02*
G75*
G03*
X174745366Y-53970000I-539443J159543D01*
G01*
X169723366Y-53874001D02*
G75*
G03*
X169825366Y-53812000I-123448J317994D01*
G01*
X168555366Y-55793000D02*
X168343366Y-55020000D01*
X165861366Y-56110000D02*
G75*
G03*
X166023366Y-56027000I-211806J613000D01*
G01*
X168220366Y-53713000D02*
X168230366Y-53646000D01*
D12*
X209119530Y-135724295D02*
X208848597Y-136537095D01*
X208577663Y-135724295D01*
X208306730Y-136537095D02*
X208306730Y-135724295D01*
X208035797Y-136304866D01*
X207764863Y-135724295D01*
X207764863Y-136537095D01*
X207261701Y-136537095D02*
X207339111Y-136498390D01*
X207377816Y-136459685D01*
X207416520Y-136382276D01*
X207416520Y-136150047D01*
X207377816Y-136072638D01*
X207339111Y-136033933D01*
X207261701Y-135995228D01*
X207145587Y-135995228D01*
X207068178Y-136033933D01*
X207029473Y-136072638D01*
X206990768Y-136150047D01*
X206990768Y-136382276D01*
X207029473Y-136459685D01*
X207068178Y-136498390D01*
X207145587Y-136537095D01*
X207261701Y-136537095D01*
X206758540Y-135995228D02*
X206448901Y-135995228D01*
X206642425Y-135724295D02*
X206642425Y-136420980D01*
X206603720Y-136498390D01*
X206526311Y-136537095D01*
X206448901Y-136537095D01*
X209247619Y-63536285D02*
X208824285Y-63536285D01*
X208642857Y-64201523D02*
X209247619Y-64201523D01*
X209247619Y-62931523D01*
X208642857Y-62931523D01*
X208219523Y-64201523D02*
X207554285Y-63354857D01*
X208219523Y-63354857D02*
X207554285Y-64201523D01*
X207070476Y-63354857D02*
X207070476Y-64624857D01*
X207070476Y-63415333D02*
X206949523Y-63354857D01*
X206707619Y-63354857D01*
X206586666Y-63415333D01*
X206526190Y-63475809D01*
X206465714Y-63596761D01*
X206465714Y-63959619D01*
X206526190Y-64080571D01*
X206586666Y-64141047D01*
X206707619Y-64201523D01*
X206949523Y-64201523D01*
X207070476Y-64141047D01*
X205377142Y-64201523D02*
X205377142Y-63536285D01*
X205437619Y-63415333D01*
X205558571Y-63354857D01*
X205800476Y-63354857D01*
X205921428Y-63415333D01*
X205377142Y-64141047D02*
X205498095Y-64201523D01*
X205800476Y-64201523D01*
X205921428Y-64141047D01*
X205981904Y-64020095D01*
X205981904Y-63899142D01*
X205921428Y-63778190D01*
X205800476Y-63717714D01*
X205498095Y-63717714D01*
X205377142Y-63657238D01*
X204772380Y-63354857D02*
X204772380Y-64201523D01*
X204772380Y-63475809D02*
X204711904Y-63415333D01*
X204590952Y-63354857D01*
X204409523Y-63354857D01*
X204288571Y-63415333D01*
X204228095Y-63536285D01*
X204228095Y-64201523D01*
X203683809Y-64141047D02*
X203562857Y-64201523D01*
X203320952Y-64201523D01*
X203200000Y-64141047D01*
X203139523Y-64020095D01*
X203139523Y-63959619D01*
X203200000Y-63838666D01*
X203320952Y-63778190D01*
X203502380Y-63778190D01*
X203623333Y-63717714D01*
X203683809Y-63596761D01*
X203683809Y-63536285D01*
X203623333Y-63415333D01*
X203502380Y-63354857D01*
X203320952Y-63354857D01*
X203200000Y-63415333D01*
X202595238Y-64201523D02*
X202595238Y-63354857D01*
X202595238Y-62931523D02*
X202655714Y-62992000D01*
X202595238Y-63052476D01*
X202534761Y-62992000D01*
X202595238Y-62931523D01*
X202595238Y-63052476D01*
X201809047Y-64201523D02*
X201930000Y-64141047D01*
X201990476Y-64080571D01*
X202050952Y-63959619D01*
X202050952Y-63596761D01*
X201990476Y-63475809D01*
X201930000Y-63415333D01*
X201809047Y-63354857D01*
X201627619Y-63354857D01*
X201506666Y-63415333D01*
X201446190Y-63475809D01*
X201385714Y-63596761D01*
X201385714Y-63959619D01*
X201446190Y-64080571D01*
X201506666Y-64141047D01*
X201627619Y-64201523D01*
X201809047Y-64201523D01*
X200841428Y-63354857D02*
X200841428Y-64201523D01*
X200841428Y-63475809D02*
X200780952Y-63415333D01*
X200660000Y-63354857D01*
X200478571Y-63354857D01*
X200357619Y-63415333D01*
X200297142Y-63536285D01*
X200297142Y-64201523D01*
X197999047Y-64080571D02*
X198059523Y-64141047D01*
X198240952Y-64201523D01*
X198361904Y-64201523D01*
X198543333Y-64141047D01*
X198664285Y-64020095D01*
X198724761Y-63899142D01*
X198785238Y-63657238D01*
X198785238Y-63475809D01*
X198724761Y-63233904D01*
X198664285Y-63112952D01*
X198543333Y-62992000D01*
X198361904Y-62931523D01*
X198240952Y-62931523D01*
X198059523Y-62992000D01*
X197999047Y-63052476D01*
X197273333Y-64201523D02*
X197394285Y-64141047D01*
X197454761Y-64080571D01*
X197515238Y-63959619D01*
X197515238Y-63596761D01*
X197454761Y-63475809D01*
X197394285Y-63415333D01*
X197273333Y-63354857D01*
X197091904Y-63354857D01*
X196970952Y-63415333D01*
X196910476Y-63475809D01*
X196850000Y-63596761D01*
X196850000Y-63959619D01*
X196910476Y-64080571D01*
X196970952Y-64141047D01*
X197091904Y-64201523D01*
X197273333Y-64201523D01*
X196305714Y-63354857D02*
X196305714Y-64201523D01*
X196305714Y-63475809D02*
X196245238Y-63415333D01*
X196124285Y-63354857D01*
X195942857Y-63354857D01*
X195821904Y-63415333D01*
X195761428Y-63536285D01*
X195761428Y-64201523D01*
X195156666Y-63354857D02*
X195156666Y-64201523D01*
X195156666Y-63475809D02*
X195096190Y-63415333D01*
X194975238Y-63354857D01*
X194793809Y-63354857D01*
X194672857Y-63415333D01*
X194612380Y-63536285D01*
X194612380Y-64201523D01*
X209395060Y-48453523D02*
X210120774Y-48453523D01*
X209757917Y-48453523D02*
X209757917Y-47183523D01*
X209878869Y-47364952D01*
X209999821Y-47485904D01*
X210120774Y-47546380D01*
X208911250Y-47304476D02*
X208850774Y-47244000D01*
X208729821Y-47183523D01*
X208427440Y-47183523D01*
X208306488Y-47244000D01*
X208246012Y-47304476D01*
X208185536Y-47425428D01*
X208185536Y-47546380D01*
X208246012Y-47727809D01*
X208971726Y-48453523D01*
X208185536Y-48453523D01*
X207822679Y-47183523D02*
X207399345Y-48453523D01*
X206976012Y-47183523D01*
X208577663Y-140843000D02*
X208655073Y-140804295D01*
X208771187Y-140804295D01*
X208887301Y-140843000D01*
X208964711Y-140920409D01*
X209003416Y-140997819D01*
X209042120Y-141152638D01*
X209042120Y-141268752D01*
X209003416Y-141423571D01*
X208964711Y-141500980D01*
X208887301Y-141578390D01*
X208771187Y-141617095D01*
X208693778Y-141617095D01*
X208577663Y-141578390D01*
X208538959Y-141539685D01*
X208538959Y-141268752D01*
X208693778Y-141268752D01*
X208190616Y-141075228D02*
X208190616Y-141617095D01*
X208190616Y-141152638D02*
X208151911Y-141113933D01*
X208074501Y-141075228D01*
X207958387Y-141075228D01*
X207880978Y-141113933D01*
X207842273Y-141191342D01*
X207842273Y-141617095D01*
X207106882Y-141617095D02*
X207106882Y-140804295D01*
X207106882Y-141578390D02*
X207184292Y-141617095D01*
X207339111Y-141617095D01*
X207416520Y-141578390D01*
X207455225Y-141539685D01*
X207493930Y-141462276D01*
X207493930Y-141230047D01*
X207455225Y-141152638D01*
X207416520Y-141113933D01*
X207339111Y-141075228D01*
X207184292Y-141075228D01*
X207106882Y-141113933D01*
X199847320Y-52324000D02*
X199968273Y-52263523D01*
X200149701Y-52263523D01*
X200331130Y-52324000D01*
X200452082Y-52444952D01*
X200512559Y-52565904D01*
X200573035Y-52807809D01*
X200573035Y-52989238D01*
X200512559Y-53231142D01*
X200452082Y-53352095D01*
X200331130Y-53473047D01*
X200149701Y-53533523D01*
X200028749Y-53533523D01*
X199847320Y-53473047D01*
X199786844Y-53412571D01*
X199786844Y-52989238D01*
X200028749Y-52989238D01*
X199242559Y-53533523D02*
X199242559Y-52263523D01*
X198758749Y-52263523D01*
X198637797Y-52324000D01*
X198577320Y-52384476D01*
X198516844Y-52505428D01*
X198516844Y-52686857D01*
X198577320Y-52807809D01*
X198637797Y-52868285D01*
X198758749Y-52928761D01*
X199242559Y-52928761D01*
X197307320Y-53533523D02*
X198033035Y-53533523D01*
X197670178Y-53533523D02*
X197670178Y-52263523D01*
X197791130Y-52444952D01*
X197912082Y-52565904D01*
X198033035Y-52626380D01*
X196883987Y-52263523D02*
X196097797Y-52263523D01*
X196521130Y-52747333D01*
X196339701Y-52747333D01*
X196218749Y-52807809D01*
X196158273Y-52868285D01*
X196097797Y-52989238D01*
X196097797Y-53291619D01*
X196158273Y-53412571D01*
X196218749Y-53473047D01*
X196339701Y-53533523D01*
X196702559Y-53533523D01*
X196823511Y-53473047D01*
X196883987Y-53412571D01*
D13*
X168583428Y-61915523D02*
X168583428Y-60645523D01*
X167857714Y-61915523D02*
X168402000Y-61189809D01*
X167857714Y-60645523D02*
X168583428Y-61371238D01*
X167313428Y-61915523D02*
X167313428Y-61068857D01*
X167313428Y-60645523D02*
X167373904Y-60706000D01*
X167313428Y-60766476D01*
X167252952Y-60706000D01*
X167313428Y-60645523D01*
X167313428Y-60766476D01*
X165982952Y-61794571D02*
X166043428Y-61855047D01*
X166224857Y-61915523D01*
X166345809Y-61915523D01*
X166527238Y-61855047D01*
X166648190Y-61734095D01*
X166708666Y-61613142D01*
X166769142Y-61371238D01*
X166769142Y-61189809D01*
X166708666Y-60947904D01*
X166648190Y-60826952D01*
X166527238Y-60706000D01*
X166345809Y-60645523D01*
X166224857Y-60645523D01*
X166043428Y-60706000D01*
X165982952Y-60766476D01*
X164894380Y-61915523D02*
X164894380Y-61250285D01*
X164954857Y-61129333D01*
X165075809Y-61068857D01*
X165317714Y-61068857D01*
X165438666Y-61129333D01*
X164894380Y-61855047D02*
X165015333Y-61915523D01*
X165317714Y-61915523D01*
X165438666Y-61855047D01*
X165499142Y-61734095D01*
X165499142Y-61613142D01*
X165438666Y-61492190D01*
X165317714Y-61431714D01*
X165015333Y-61431714D01*
X164894380Y-61371238D01*
X163745333Y-61915523D02*
X163745333Y-60645523D01*
X163745333Y-61855047D02*
X163866285Y-61915523D01*
X164108190Y-61915523D01*
X164229142Y-61855047D01*
X164289619Y-61794571D01*
X164350095Y-61673619D01*
X164350095Y-61310761D01*
X164289619Y-61189809D01*
X164229142Y-61129333D01*
X164108190Y-61068857D01*
X163866285Y-61068857D01*
X163745333Y-61129333D01*
X162172952Y-61915523D02*
X162172952Y-60645523D01*
X161689142Y-60645523D01*
X161568190Y-60706000D01*
X161507714Y-60766476D01*
X161447238Y-60887428D01*
X161447238Y-61068857D01*
X161507714Y-61189809D01*
X161568190Y-61250285D01*
X161689142Y-61310761D01*
X162172952Y-61310761D01*
X160721523Y-61915523D02*
X160842476Y-61855047D01*
X160902952Y-61794571D01*
X160963428Y-61673619D01*
X160963428Y-61310761D01*
X160902952Y-61189809D01*
X160842476Y-61129333D01*
X160721523Y-61068857D01*
X160540095Y-61068857D01*
X160419142Y-61129333D01*
X160358666Y-61189809D01*
X160298190Y-61310761D01*
X160298190Y-61673619D01*
X160358666Y-61794571D01*
X160419142Y-61855047D01*
X160540095Y-61915523D01*
X160721523Y-61915523D01*
X159753904Y-61915523D02*
X159753904Y-61068857D01*
X159753904Y-61310761D02*
X159693428Y-61189809D01*
X159632952Y-61129333D01*
X159512000Y-61068857D01*
X159391047Y-61068857D01*
X159149142Y-61068857D02*
X158665333Y-61068857D01*
X158967714Y-60645523D02*
X158967714Y-61734095D01*
X158907238Y-61855047D01*
X158786285Y-61915523D01*
X158665333Y-61915523D01*
X156246285Y-61915523D02*
X156306761Y-61915523D01*
X156427714Y-61855047D01*
X156609142Y-61673619D01*
X156911523Y-61310761D01*
X157032476Y-61129333D01*
X157092952Y-60947904D01*
X157092952Y-60826952D01*
X157032476Y-60706000D01*
X156911523Y-60645523D01*
X156851047Y-60645523D01*
X156730095Y-60706000D01*
X156669619Y-60826952D01*
X156669619Y-60887428D01*
X156730095Y-61008380D01*
X156790571Y-61068857D01*
X157153428Y-61310761D01*
X157213904Y-61371238D01*
X157274380Y-61492190D01*
X157274380Y-61673619D01*
X157213904Y-61794571D01*
X157153428Y-61855047D01*
X157032476Y-61915523D01*
X156851047Y-61915523D01*
X156730095Y-61855047D01*
X156669619Y-61794571D01*
X156488190Y-61552666D01*
X156427714Y-61371238D01*
X156427714Y-61250285D01*
X154734380Y-61915523D02*
X154734380Y-60645523D01*
X154311047Y-61552666D01*
X153887714Y-60645523D01*
X153887714Y-61915523D01*
X153101523Y-61915523D02*
X153222476Y-61855047D01*
X153282952Y-61794571D01*
X153343428Y-61673619D01*
X153343428Y-61310761D01*
X153282952Y-61189809D01*
X153222476Y-61129333D01*
X153101523Y-61068857D01*
X152920095Y-61068857D01*
X152799142Y-61129333D01*
X152738666Y-61189809D01*
X152678190Y-61310761D01*
X152678190Y-61673619D01*
X152738666Y-61794571D01*
X152799142Y-61855047D01*
X152920095Y-61915523D01*
X153101523Y-61915523D01*
X151589619Y-61915523D02*
X151589619Y-60645523D01*
X151589619Y-61855047D02*
X151710571Y-61915523D01*
X151952476Y-61915523D01*
X152073428Y-61855047D01*
X152133904Y-61794571D01*
X152194380Y-61673619D01*
X152194380Y-61310761D01*
X152133904Y-61189809D01*
X152073428Y-61129333D01*
X151952476Y-61068857D01*
X151710571Y-61068857D01*
X151589619Y-61129333D01*
X150984857Y-61915523D02*
X150984857Y-61068857D01*
X150984857Y-60645523D02*
X151045333Y-60706000D01*
X150984857Y-60766476D01*
X150924380Y-60706000D01*
X150984857Y-60645523D01*
X150984857Y-60766476D01*
X150561523Y-61068857D02*
X150077714Y-61068857D01*
X150380095Y-61915523D02*
X150380095Y-60826952D01*
X150319619Y-60706000D01*
X150198666Y-60645523D01*
X150077714Y-60645523D01*
X149654380Y-61915523D02*
X149654380Y-61068857D01*
X149654380Y-60645523D02*
X149714857Y-60706000D01*
X149654380Y-60766476D01*
X149593904Y-60706000D01*
X149654380Y-60645523D01*
X149654380Y-60766476D01*
X148505333Y-61855047D02*
X148626285Y-61915523D01*
X148868190Y-61915523D01*
X148989142Y-61855047D01*
X149049619Y-61794571D01*
X149110095Y-61673619D01*
X149110095Y-61310761D01*
X149049619Y-61189809D01*
X148989142Y-61129333D01*
X148868190Y-61068857D01*
X148626285Y-61068857D01*
X148505333Y-61129333D01*
X147416761Y-61915523D02*
X147416761Y-61250285D01*
X147477238Y-61129333D01*
X147598190Y-61068857D01*
X147840095Y-61068857D01*
X147961047Y-61129333D01*
X147416761Y-61855047D02*
X147537714Y-61915523D01*
X147840095Y-61915523D01*
X147961047Y-61855047D01*
X148021523Y-61734095D01*
X148021523Y-61613142D01*
X147961047Y-61492190D01*
X147840095Y-61431714D01*
X147537714Y-61431714D01*
X147416761Y-61371238D01*
X146993428Y-61068857D02*
X146509619Y-61068857D01*
X146812000Y-60645523D02*
X146812000Y-61734095D01*
X146751523Y-61855047D01*
X146630571Y-61915523D01*
X146509619Y-61915523D01*
X146086285Y-61915523D02*
X146086285Y-61068857D01*
X146086285Y-60645523D02*
X146146761Y-60706000D01*
X146086285Y-60766476D01*
X146025809Y-60706000D01*
X146086285Y-60645523D01*
X146086285Y-60766476D01*
X145300095Y-61915523D02*
X145421047Y-61855047D01*
X145481523Y-61794571D01*
X145542000Y-61673619D01*
X145542000Y-61310761D01*
X145481523Y-61189809D01*
X145421047Y-61129333D01*
X145300095Y-61068857D01*
X145118666Y-61068857D01*
X144997714Y-61129333D01*
X144937238Y-61189809D01*
X144876761Y-61310761D01*
X144876761Y-61673619D01*
X144937238Y-61794571D01*
X144997714Y-61855047D01*
X145118666Y-61915523D01*
X145300095Y-61915523D01*
X144332476Y-61068857D02*
X144332476Y-61915523D01*
X144332476Y-61189809D02*
X144272000Y-61129333D01*
X144151047Y-61068857D01*
X143969619Y-61068857D01*
X143848666Y-61129333D01*
X143788190Y-61250285D01*
X143788190Y-61915523D01*
X143243904Y-61855047D02*
X143122952Y-61915523D01*
X142881047Y-61915523D01*
X142760095Y-61855047D01*
X142699619Y-61734095D01*
X142699619Y-61673619D01*
X142760095Y-61552666D01*
X142881047Y-61492190D01*
X143062476Y-61492190D01*
X143183428Y-61431714D01*
X143243904Y-61310761D01*
X143243904Y-61250285D01*
X143183428Y-61129333D01*
X143062476Y-61068857D01*
X142881047Y-61068857D01*
X142760095Y-61129333D01*
X141187714Y-61915523D02*
X141187714Y-60645523D01*
X141187714Y-61129333D02*
X141066761Y-61068857D01*
X140824857Y-61068857D01*
X140703904Y-61129333D01*
X140643428Y-61189809D01*
X140582952Y-61310761D01*
X140582952Y-61673619D01*
X140643428Y-61794571D01*
X140703904Y-61855047D01*
X140824857Y-61915523D01*
X141066761Y-61915523D01*
X141187714Y-61855047D01*
X140159619Y-61068857D02*
X139857238Y-61915523D01*
X139554857Y-61068857D02*
X139857238Y-61915523D01*
X139978190Y-62217904D01*
X140038666Y-62278380D01*
X140159619Y-62338857D01*
X138103428Y-61915523D02*
X138103428Y-60645523D01*
X137559142Y-61915523D02*
X137559142Y-61250285D01*
X137619619Y-61129333D01*
X137740571Y-61068857D01*
X137922000Y-61068857D01*
X138042952Y-61129333D01*
X138103428Y-61189809D01*
X137135809Y-61068857D02*
X136652000Y-61068857D01*
X136954380Y-60645523D02*
X136954380Y-61734095D01*
X136893904Y-61855047D01*
X136772952Y-61915523D01*
X136652000Y-61915523D01*
X136410095Y-61068857D02*
X135926285Y-61068857D01*
X136228666Y-60645523D02*
X136228666Y-61734095D01*
X136168190Y-61855047D01*
X136047238Y-61915523D01*
X135926285Y-61915523D01*
X135502952Y-61068857D02*
X135502952Y-62338857D01*
X135502952Y-61129333D02*
X135382000Y-61068857D01*
X135140095Y-61068857D01*
X135019142Y-61129333D01*
X134958666Y-61189809D01*
X134898190Y-61310761D01*
X134898190Y-61673619D01*
X134958666Y-61794571D01*
X135019142Y-61855047D01*
X135140095Y-61915523D01*
X135382000Y-61915523D01*
X135502952Y-61855047D01*
X134414380Y-61855047D02*
X134293428Y-61915523D01*
X134051523Y-61915523D01*
X133930571Y-61855047D01*
X133870095Y-61734095D01*
X133870095Y-61673619D01*
X133930571Y-61552666D01*
X134051523Y-61492190D01*
X134232952Y-61492190D01*
X134353904Y-61431714D01*
X134414380Y-61310761D01*
X134414380Y-61250285D01*
X134353904Y-61129333D01*
X134232952Y-61068857D01*
X134051523Y-61068857D01*
X133930571Y-61129333D01*
X133325809Y-61794571D02*
X133265333Y-61855047D01*
X133325809Y-61915523D01*
X133386285Y-61855047D01*
X133325809Y-61794571D01*
X133325809Y-61915523D01*
X133325809Y-61129333D02*
X133265333Y-61189809D01*
X133325809Y-61250285D01*
X133386285Y-61189809D01*
X133325809Y-61129333D01*
X133325809Y-61250285D01*
X131813904Y-60585047D02*
X132902476Y-62217904D01*
X130483428Y-60585047D02*
X131572000Y-62217904D01*
X129515809Y-61068857D02*
X129515809Y-62096952D01*
X129576285Y-62217904D01*
X129636761Y-62278380D01*
X129757714Y-62338857D01*
X129939142Y-62338857D01*
X130060095Y-62278380D01*
X129515809Y-61855047D02*
X129636761Y-61915523D01*
X129878666Y-61915523D01*
X129999619Y-61855047D01*
X130060095Y-61794571D01*
X130120571Y-61673619D01*
X130120571Y-61310761D01*
X130060095Y-61189809D01*
X129999619Y-61129333D01*
X129878666Y-61068857D01*
X129636761Y-61068857D01*
X129515809Y-61129333D01*
X128911047Y-61915523D02*
X128911047Y-61068857D01*
X128911047Y-60645523D02*
X128971523Y-60706000D01*
X128911047Y-60766476D01*
X128850571Y-60706000D01*
X128911047Y-60645523D01*
X128911047Y-60766476D01*
X128487714Y-61068857D02*
X128003904Y-61068857D01*
X128306285Y-60645523D02*
X128306285Y-61734095D01*
X128245809Y-61855047D01*
X128124857Y-61915523D01*
X128003904Y-61915523D01*
X127580571Y-61915523D02*
X127580571Y-60645523D01*
X127036285Y-61915523D02*
X127036285Y-61250285D01*
X127096761Y-61129333D01*
X127217714Y-61068857D01*
X127399142Y-61068857D01*
X127520095Y-61129333D01*
X127580571Y-61189809D01*
X125887238Y-61068857D02*
X125887238Y-61915523D01*
X126431523Y-61068857D02*
X126431523Y-61734095D01*
X126371047Y-61855047D01*
X126250095Y-61915523D01*
X126068666Y-61915523D01*
X125947714Y-61855047D01*
X125887238Y-61794571D01*
X125282476Y-61915523D02*
X125282476Y-60645523D01*
X125282476Y-61129333D02*
X125161523Y-61068857D01*
X124919619Y-61068857D01*
X124798666Y-61129333D01*
X124738190Y-61189809D01*
X124677714Y-61310761D01*
X124677714Y-61673619D01*
X124738190Y-61794571D01*
X124798666Y-61855047D01*
X124919619Y-61915523D01*
X125161523Y-61915523D01*
X125282476Y-61855047D01*
X124133428Y-61794571D02*
X124072952Y-61855047D01*
X124133428Y-61915523D01*
X124193904Y-61855047D01*
X124133428Y-61794571D01*
X124133428Y-61915523D01*
X122984380Y-61855047D02*
X123105333Y-61915523D01*
X123347238Y-61915523D01*
X123468190Y-61855047D01*
X123528666Y-61794571D01*
X123589142Y-61673619D01*
X123589142Y-61310761D01*
X123528666Y-61189809D01*
X123468190Y-61129333D01*
X123347238Y-61068857D01*
X123105333Y-61068857D01*
X122984380Y-61129333D01*
X122258666Y-61915523D02*
X122379619Y-61855047D01*
X122440095Y-61794571D01*
X122500571Y-61673619D01*
X122500571Y-61310761D01*
X122440095Y-61189809D01*
X122379619Y-61129333D01*
X122258666Y-61068857D01*
X122077238Y-61068857D01*
X121956285Y-61129333D01*
X121895809Y-61189809D01*
X121835333Y-61310761D01*
X121835333Y-61673619D01*
X121895809Y-61794571D01*
X121956285Y-61855047D01*
X122077238Y-61915523D01*
X122258666Y-61915523D01*
X121291047Y-61915523D02*
X121291047Y-61068857D01*
X121291047Y-61189809D02*
X121230571Y-61129333D01*
X121109619Y-61068857D01*
X120928190Y-61068857D01*
X120807238Y-61129333D01*
X120746761Y-61250285D01*
X120746761Y-61915523D01*
X120746761Y-61250285D02*
X120686285Y-61129333D01*
X120565333Y-61068857D01*
X120383904Y-61068857D01*
X120262952Y-61129333D01*
X120202476Y-61250285D01*
X120202476Y-61915523D01*
X118690571Y-60585047D02*
X119779142Y-62217904D01*
X118327714Y-61855047D02*
X118146285Y-61915523D01*
X117843904Y-61915523D01*
X117722952Y-61855047D01*
X117662476Y-61794571D01*
X117602000Y-61673619D01*
X117602000Y-61552666D01*
X117662476Y-61431714D01*
X117722952Y-61371238D01*
X117843904Y-61310761D01*
X118085809Y-61250285D01*
X118206761Y-61189809D01*
X118267238Y-61129333D01*
X118327714Y-61008380D01*
X118327714Y-60887428D01*
X118267238Y-60766476D01*
X118206761Y-60706000D01*
X118085809Y-60645523D01*
X117783428Y-60645523D01*
X117602000Y-60706000D01*
X117239142Y-61068857D02*
X116755333Y-61068857D01*
X117057714Y-60645523D02*
X117057714Y-61734095D01*
X116997238Y-61855047D01*
X116876285Y-61915523D01*
X116755333Y-61915523D01*
X115848190Y-61855047D02*
X115969142Y-61915523D01*
X116211047Y-61915523D01*
X116332000Y-61855047D01*
X116392476Y-61734095D01*
X116392476Y-61250285D01*
X116332000Y-61129333D01*
X116211047Y-61068857D01*
X115969142Y-61068857D01*
X115848190Y-61129333D01*
X115787714Y-61250285D01*
X115787714Y-61371238D01*
X116392476Y-61492190D01*
X115243428Y-61068857D02*
X115243428Y-62338857D01*
X115243428Y-61129333D02*
X115122476Y-61068857D01*
X114880571Y-61068857D01*
X114759619Y-61129333D01*
X114699142Y-61189809D01*
X114638666Y-61310761D01*
X114638666Y-61673619D01*
X114699142Y-61794571D01*
X114759619Y-61855047D01*
X114880571Y-61915523D01*
X115122476Y-61915523D01*
X115243428Y-61855047D01*
X114094380Y-61915523D02*
X114094380Y-60645523D01*
X113550095Y-61915523D02*
X113550095Y-61250285D01*
X113610571Y-61129333D01*
X113731523Y-61068857D01*
X113912952Y-61068857D01*
X114033904Y-61129333D01*
X114094380Y-61189809D01*
X113005809Y-61855047D02*
X112824380Y-61915523D01*
X112522000Y-61915523D01*
X112401047Y-61855047D01*
X112340571Y-61794571D01*
X112280095Y-61673619D01*
X112280095Y-61552666D01*
X112340571Y-61431714D01*
X112401047Y-61371238D01*
X112522000Y-61310761D01*
X112763904Y-61250285D01*
X112884857Y-61189809D01*
X112945333Y-61129333D01*
X113005809Y-61008380D01*
X113005809Y-60887428D01*
X112945333Y-60766476D01*
X112884857Y-60706000D01*
X112763904Y-60645523D01*
X112461523Y-60645523D01*
X112280095Y-60706000D01*
D12*
X200385559Y-61153523D02*
X200385559Y-59883523D01*
X199841273Y-60004476D02*
X199780797Y-59944000D01*
X199659844Y-59883523D01*
X199357463Y-59883523D01*
X199236511Y-59944000D01*
X199176035Y-60004476D01*
X199115559Y-60125428D01*
X199115559Y-60246380D01*
X199176035Y-60427809D01*
X199901749Y-61153523D01*
X199115559Y-61153523D01*
X198631749Y-61093047D02*
X198450320Y-61153523D01*
X198147940Y-61153523D01*
X198026987Y-61093047D01*
X197966511Y-61032571D01*
X197906035Y-60911619D01*
X197906035Y-60790666D01*
X197966511Y-60669714D01*
X198026987Y-60609238D01*
X198147940Y-60548761D01*
X198389844Y-60488285D01*
X198510797Y-60427809D01*
X198571273Y-60367333D01*
X198631749Y-60246380D01*
X198631749Y-60125428D01*
X198571273Y-60004476D01*
X198510797Y-59944000D01*
X198389844Y-59883523D01*
X198087463Y-59883523D01*
X197906035Y-59944000D01*
X197119844Y-59883523D02*
X196877940Y-59883523D01*
X196756987Y-59944000D01*
X196636035Y-60064952D01*
X196575559Y-60306857D01*
X196575559Y-60730190D01*
X196636035Y-60972095D01*
X196756987Y-61093047D01*
X196877940Y-61153523D01*
X197119844Y-61153523D01*
X197240797Y-61093047D01*
X197361749Y-60972095D01*
X197422225Y-60730190D01*
X197422225Y-60306857D01*
X197361749Y-60064952D01*
X197240797Y-59944000D01*
X197119844Y-59883523D01*
X196333654Y-61274476D02*
X195366035Y-61274476D01*
X195124130Y-60004476D02*
X195063654Y-59944000D01*
X194942701Y-59883523D01*
X194640320Y-59883523D01*
X194519368Y-59944000D01*
X194458892Y-60004476D01*
X194398416Y-60125428D01*
X194398416Y-60246380D01*
X194458892Y-60427809D01*
X195184606Y-61153523D01*
X194398416Y-61153523D01*
X193793654Y-61153523D02*
X193551749Y-61153523D01*
X193430797Y-61093047D01*
X193370320Y-61032571D01*
X193249368Y-60851142D01*
X193188892Y-60609238D01*
X193188892Y-60125428D01*
X193249368Y-60004476D01*
X193309844Y-59944000D01*
X193430797Y-59883523D01*
X193672701Y-59883523D01*
X193793654Y-59944000D01*
X193854130Y-60004476D01*
X193914606Y-60125428D01*
X193914606Y-60427809D01*
X193854130Y-60548761D01*
X193793654Y-60609238D01*
X193672701Y-60669714D01*
X193430797Y-60669714D01*
X193309844Y-60609238D01*
X193249368Y-60548761D01*
X193188892Y-60427809D01*
X209328536Y-52324000D02*
X209449488Y-52263523D01*
X209630917Y-52263523D01*
X209812345Y-52324000D01*
X209933298Y-52444952D01*
X209993774Y-52565904D01*
X210054250Y-52807809D01*
X210054250Y-52989238D01*
X209993774Y-53231142D01*
X209933298Y-53352095D01*
X209812345Y-53473047D01*
X209630917Y-53533523D01*
X209509964Y-53533523D01*
X209328536Y-53473047D01*
X209268060Y-53412571D01*
X209268060Y-52989238D01*
X209509964Y-52989238D01*
X208723774Y-52686857D02*
X208723774Y-53533523D01*
X208723774Y-52807809D02*
X208663298Y-52747333D01*
X208542345Y-52686857D01*
X208360917Y-52686857D01*
X208239964Y-52747333D01*
X208179488Y-52868285D01*
X208179488Y-53533523D01*
X207030440Y-53533523D02*
X207030440Y-52263523D01*
X207030440Y-53473047D02*
X207151393Y-53533523D01*
X207393298Y-53533523D01*
X207514250Y-53473047D01*
X207574726Y-53412571D01*
X207635202Y-53291619D01*
X207635202Y-52928761D01*
X207574726Y-52807809D01*
X207514250Y-52747333D01*
X207393298Y-52686857D01*
X207151393Y-52686857D01*
X207030440Y-52747333D01*
X199847320Y-49784000D02*
X199968273Y-49723523D01*
X200149701Y-49723523D01*
X200331130Y-49784000D01*
X200452082Y-49904952D01*
X200512559Y-50025904D01*
X200573035Y-50267809D01*
X200573035Y-50449238D01*
X200512559Y-50691142D01*
X200452082Y-50812095D01*
X200331130Y-50933047D01*
X200149701Y-50993523D01*
X200028749Y-50993523D01*
X199847320Y-50933047D01*
X199786844Y-50872571D01*
X199786844Y-50449238D01*
X200028749Y-50449238D01*
X199242559Y-50993523D02*
X199242559Y-49723523D01*
X198758749Y-49723523D01*
X198637797Y-49784000D01*
X198577320Y-49844476D01*
X198516844Y-49965428D01*
X198516844Y-50146857D01*
X198577320Y-50267809D01*
X198637797Y-50328285D01*
X198758749Y-50388761D01*
X199242559Y-50388761D01*
X197307320Y-50993523D02*
X198033035Y-50993523D01*
X197670178Y-50993523D02*
X197670178Y-49723523D01*
X197791130Y-49904952D01*
X197912082Y-50025904D01*
X198033035Y-50086380D01*
X196158273Y-49723523D02*
X196763035Y-49723523D01*
X196823511Y-50328285D01*
X196763035Y-50267809D01*
X196642082Y-50207333D01*
X196339701Y-50207333D01*
X196218749Y-50267809D01*
X196158273Y-50328285D01*
X196097797Y-50449238D01*
X196097797Y-50751619D01*
X196158273Y-50872571D01*
X196218749Y-50933047D01*
X196339701Y-50993523D01*
X196642082Y-50993523D01*
X196763035Y-50933047D01*
X196823511Y-50872571D01*
X199847320Y-54864000D02*
X199968273Y-54803523D01*
X200149701Y-54803523D01*
X200331130Y-54864000D01*
X200452082Y-54984952D01*
X200512559Y-55105904D01*
X200573035Y-55347809D01*
X200573035Y-55529238D01*
X200512559Y-55771142D01*
X200452082Y-55892095D01*
X200331130Y-56013047D01*
X200149701Y-56073523D01*
X200028749Y-56073523D01*
X199847320Y-56013047D01*
X199786844Y-55952571D01*
X199786844Y-55529238D01*
X200028749Y-55529238D01*
X199242559Y-56073523D02*
X199242559Y-54803523D01*
X198758749Y-54803523D01*
X198637797Y-54864000D01*
X198577320Y-54924476D01*
X198516844Y-55045428D01*
X198516844Y-55226857D01*
X198577320Y-55347809D01*
X198637797Y-55408285D01*
X198758749Y-55468761D01*
X199242559Y-55468761D01*
X197307320Y-56073523D02*
X198033035Y-56073523D01*
X197670178Y-56073523D02*
X197670178Y-54803523D01*
X197791130Y-54984952D01*
X197912082Y-55105904D01*
X198033035Y-55166380D01*
X196218749Y-55226857D02*
X196218749Y-56073523D01*
X196521130Y-54743047D02*
X196823511Y-55650190D01*
X196037320Y-55650190D01*
X208704663Y-135140095D02*
X209169120Y-135140095D01*
X208936892Y-135140095D02*
X208936892Y-134327295D01*
X209014301Y-134443409D01*
X209091711Y-134520819D01*
X209169120Y-134559523D01*
X208395025Y-134404704D02*
X208356320Y-134366000D01*
X208278911Y-134327295D01*
X208085387Y-134327295D01*
X208007978Y-134366000D01*
X207969273Y-134404704D01*
X207930568Y-134482114D01*
X207930568Y-134559523D01*
X207969273Y-134675638D01*
X208433730Y-135140095D01*
X207930568Y-135140095D01*
X207582225Y-134830457D02*
X206962949Y-134830457D01*
X206227559Y-134598228D02*
X206227559Y-135140095D01*
X206421082Y-134288590D02*
X206614606Y-134869161D01*
X206111444Y-134869161D01*
X205685692Y-134675638D02*
X205763101Y-134636933D01*
X205801806Y-134598228D01*
X205840511Y-134520819D01*
X205840511Y-134482114D01*
X205801806Y-134404704D01*
X205763101Y-134366000D01*
X205685692Y-134327295D01*
X205530873Y-134327295D01*
X205453463Y-134366000D01*
X205414759Y-134404704D01*
X205376054Y-134482114D01*
X205376054Y-134520819D01*
X205414759Y-134598228D01*
X205453463Y-134636933D01*
X205530873Y-134675638D01*
X205685692Y-134675638D01*
X205763101Y-134714342D01*
X205801806Y-134753047D01*
X205840511Y-134830457D01*
X205840511Y-134985276D01*
X205801806Y-135062685D01*
X205763101Y-135101390D01*
X205685692Y-135140095D01*
X205530873Y-135140095D01*
X205453463Y-135101390D01*
X205414759Y-135062685D01*
X205376054Y-134985276D01*
X205376054Y-134830457D01*
X205414759Y-134753047D01*
X205453463Y-134714342D01*
X205530873Y-134675638D01*
X205143825Y-134327295D02*
X204872892Y-135140095D01*
X204601959Y-134327295D01*
X199847320Y-47244000D02*
X199968273Y-47183523D01*
X200149701Y-47183523D01*
X200331130Y-47244000D01*
X200452082Y-47364952D01*
X200512559Y-47485904D01*
X200573035Y-47727809D01*
X200573035Y-47909238D01*
X200512559Y-48151142D01*
X200452082Y-48272095D01*
X200331130Y-48393047D01*
X200149701Y-48453523D01*
X200028749Y-48453523D01*
X199847320Y-48393047D01*
X199786844Y-48332571D01*
X199786844Y-47909238D01*
X200028749Y-47909238D01*
X199242559Y-48453523D02*
X199242559Y-47183523D01*
X198758749Y-47183523D01*
X198637797Y-47244000D01*
X198577320Y-47304476D01*
X198516844Y-47425428D01*
X198516844Y-47606857D01*
X198577320Y-47727809D01*
X198637797Y-47788285D01*
X198758749Y-47848761D01*
X199242559Y-47848761D01*
X197307320Y-48453523D02*
X198033035Y-48453523D01*
X197670178Y-48453523D02*
X197670178Y-47183523D01*
X197791130Y-47364952D01*
X197912082Y-47485904D01*
X198033035Y-47546380D01*
X196823511Y-47304476D02*
X196763035Y-47244000D01*
X196642082Y-47183523D01*
X196339701Y-47183523D01*
X196218749Y-47244000D01*
X196158273Y-47304476D01*
X196097797Y-47425428D01*
X196097797Y-47546380D01*
X196158273Y-47727809D01*
X196883987Y-48453523D01*
X196097797Y-48453523D01*
X211862488Y-61153523D02*
X211862488Y-59883523D01*
X211318202Y-61093047D02*
X211136774Y-61153523D01*
X210834393Y-61153523D01*
X210713440Y-61093047D01*
X210652964Y-61032571D01*
X210592488Y-60911619D01*
X210592488Y-60790666D01*
X210652964Y-60669714D01*
X210713440Y-60609238D01*
X210834393Y-60548761D01*
X211076298Y-60488285D01*
X211197250Y-60427809D01*
X211257726Y-60367333D01*
X211318202Y-60246380D01*
X211318202Y-60125428D01*
X211257726Y-60004476D01*
X211197250Y-59944000D01*
X211076298Y-59883523D01*
X210773917Y-59883523D01*
X210592488Y-59944000D01*
X209806298Y-59883523D02*
X209564393Y-59883523D01*
X209443440Y-59944000D01*
X209322488Y-60064952D01*
X209262012Y-60306857D01*
X209262012Y-60730190D01*
X209322488Y-60972095D01*
X209443440Y-61093047D01*
X209564393Y-61153523D01*
X209806298Y-61153523D01*
X209927250Y-61093047D01*
X210048202Y-60972095D01*
X210108679Y-60730190D01*
X210108679Y-60306857D01*
X210048202Y-60064952D01*
X209927250Y-59944000D01*
X209806298Y-59883523D01*
X208838679Y-59883523D02*
X208052488Y-59883523D01*
X208475821Y-60367333D01*
X208294393Y-60367333D01*
X208173440Y-60427809D01*
X208112964Y-60488285D01*
X208052488Y-60609238D01*
X208052488Y-60911619D01*
X208112964Y-61032571D01*
X208173440Y-61093047D01*
X208294393Y-61153523D01*
X208657250Y-61153523D01*
X208778202Y-61093047D01*
X208838679Y-61032571D01*
X206842964Y-61153523D02*
X207568679Y-61153523D01*
X207205821Y-61153523D02*
X207205821Y-59883523D01*
X207326774Y-60064952D01*
X207447726Y-60185904D01*
X207568679Y-60246380D01*
X208323663Y-120408095D02*
X208788120Y-120408095D01*
X208555892Y-120408095D02*
X208555892Y-119595295D01*
X208633301Y-119711409D01*
X208710711Y-119788819D01*
X208788120Y-119827523D01*
X208014025Y-119672704D02*
X207975320Y-119634000D01*
X207897911Y-119595295D01*
X207704387Y-119595295D01*
X207626978Y-119634000D01*
X207588273Y-119672704D01*
X207549568Y-119750114D01*
X207549568Y-119827523D01*
X207588273Y-119943638D01*
X208052730Y-120408095D01*
X207549568Y-120408095D01*
X207317340Y-119595295D02*
X207046406Y-120408095D01*
X206775473Y-119595295D01*
X208246012Y-54803523D02*
X208850774Y-54803523D01*
X208911250Y-55408285D01*
X208850774Y-55347809D01*
X208729821Y-55287333D01*
X208427440Y-55287333D01*
X208306488Y-55347809D01*
X208246012Y-55408285D01*
X208185536Y-55529238D01*
X208185536Y-55831619D01*
X208246012Y-55952571D01*
X208306488Y-56013047D01*
X208427440Y-56073523D01*
X208729821Y-56073523D01*
X208850774Y-56013047D01*
X208911250Y-55952571D01*
X207822679Y-54803523D02*
X207399345Y-56073523D01*
X206976012Y-54803523D01*
X209328536Y-49784000D02*
X209449488Y-49723523D01*
X209630917Y-49723523D01*
X209812345Y-49784000D01*
X209933298Y-49904952D01*
X209993774Y-50025904D01*
X210054250Y-50267809D01*
X210054250Y-50449238D01*
X209993774Y-50691142D01*
X209933298Y-50812095D01*
X209812345Y-50933047D01*
X209630917Y-50993523D01*
X209509964Y-50993523D01*
X209328536Y-50933047D01*
X209268060Y-50872571D01*
X209268060Y-50449238D01*
X209509964Y-50449238D01*
X208723774Y-50146857D02*
X208723774Y-50993523D01*
X208723774Y-50267809D02*
X208663298Y-50207333D01*
X208542345Y-50146857D01*
X208360917Y-50146857D01*
X208239964Y-50207333D01*
X208179488Y-50328285D01*
X208179488Y-50993523D01*
X207030440Y-50993523D02*
X207030440Y-49723523D01*
X207030440Y-50933047D02*
X207151393Y-50993523D01*
X207393298Y-50993523D01*
X207514250Y-50933047D01*
X207574726Y-50872571D01*
X207635202Y-50751619D01*
X207635202Y-50388761D01*
X207574726Y-50267809D01*
X207514250Y-50207333D01*
X207393298Y-50146857D01*
X207151393Y-50146857D01*
X207030440Y-50207333D01*
D13*
X166333714Y-59290857D02*
X166188571Y-59363428D01*
X165898285Y-59363428D01*
X165753142Y-59290857D01*
X165680571Y-59145714D01*
X165680571Y-59073142D01*
X165753142Y-58928000D01*
X165898285Y-58855428D01*
X166116000Y-58855428D01*
X166261142Y-58782857D01*
X166333714Y-58637714D01*
X166333714Y-58565142D01*
X166261142Y-58420000D01*
X166116000Y-58347428D01*
X165898285Y-58347428D01*
X165753142Y-58420000D01*
X165027428Y-58347428D02*
X165027428Y-59871428D01*
X165027428Y-58420000D02*
X164882285Y-58347428D01*
X164592000Y-58347428D01*
X164446857Y-58420000D01*
X164374285Y-58492571D01*
X164301714Y-58637714D01*
X164301714Y-59073142D01*
X164374285Y-59218285D01*
X164446857Y-59290857D01*
X164592000Y-59363428D01*
X164882285Y-59363428D01*
X165027428Y-59290857D01*
X163068000Y-59290857D02*
X163213142Y-59363428D01*
X163503428Y-59363428D01*
X163648571Y-59290857D01*
X163721142Y-59145714D01*
X163721142Y-58565142D01*
X163648571Y-58420000D01*
X163503428Y-58347428D01*
X163213142Y-58347428D01*
X163068000Y-58420000D01*
X162995428Y-58565142D01*
X162995428Y-58710285D01*
X163721142Y-58855428D01*
X161689142Y-59290857D02*
X161834285Y-59363428D01*
X162124571Y-59363428D01*
X162269714Y-59290857D01*
X162342285Y-59218285D01*
X162414857Y-59073142D01*
X162414857Y-58637714D01*
X162342285Y-58492571D01*
X162269714Y-58420000D01*
X162124571Y-58347428D01*
X161834285Y-58347428D01*
X161689142Y-58420000D01*
X161036000Y-59363428D02*
X161036000Y-58347428D01*
X161036000Y-57839428D02*
X161108571Y-57912000D01*
X161036000Y-57984571D01*
X160963428Y-57912000D01*
X161036000Y-57839428D01*
X161036000Y-57984571D01*
X159657142Y-59363428D02*
X159657142Y-58565142D01*
X159729714Y-58420000D01*
X159874857Y-58347428D01*
X160165142Y-58347428D01*
X160310285Y-58420000D01*
X159657142Y-59290857D02*
X159802285Y-59363428D01*
X160165142Y-59363428D01*
X160310285Y-59290857D01*
X160382857Y-59145714D01*
X160382857Y-59000571D01*
X160310285Y-58855428D01*
X160165142Y-58782857D01*
X159802285Y-58782857D01*
X159657142Y-58710285D01*
X158713714Y-59363428D02*
X158858857Y-59290857D01*
X158931428Y-59145714D01*
X158931428Y-57839428D01*
X157189714Y-58347428D02*
X156609142Y-58347428D01*
X156972000Y-57839428D02*
X156972000Y-59145714D01*
X156899428Y-59290857D01*
X156754285Y-59363428D01*
X156609142Y-59363428D01*
X156101142Y-59363428D02*
X156101142Y-57839428D01*
X155448000Y-59363428D02*
X155448000Y-58565142D01*
X155520571Y-58420000D01*
X155665714Y-58347428D01*
X155883428Y-58347428D01*
X156028571Y-58420000D01*
X156101142Y-58492571D01*
X154069142Y-59363428D02*
X154069142Y-58565142D01*
X154141714Y-58420000D01*
X154286857Y-58347428D01*
X154577142Y-58347428D01*
X154722285Y-58420000D01*
X154069142Y-59290857D02*
X154214285Y-59363428D01*
X154577142Y-59363428D01*
X154722285Y-59290857D01*
X154794857Y-59145714D01*
X154794857Y-59000571D01*
X154722285Y-58855428D01*
X154577142Y-58782857D01*
X154214285Y-58782857D01*
X154069142Y-58710285D01*
X153343428Y-58347428D02*
X153343428Y-59363428D01*
X153343428Y-58492571D02*
X153270857Y-58420000D01*
X153125714Y-58347428D01*
X152908000Y-58347428D01*
X152762857Y-58420000D01*
X152690285Y-58565142D01*
X152690285Y-59363428D01*
X151964571Y-59363428D02*
X151964571Y-57839428D01*
X151819428Y-58782857D02*
X151384000Y-59363428D01*
X151384000Y-58347428D02*
X151964571Y-58928000D01*
X150803428Y-59290857D02*
X150658285Y-59363428D01*
X150368000Y-59363428D01*
X150222857Y-59290857D01*
X150150285Y-59145714D01*
X150150285Y-59073142D01*
X150222857Y-58928000D01*
X150368000Y-58855428D01*
X150585714Y-58855428D01*
X150730857Y-58782857D01*
X150803428Y-58637714D01*
X150803428Y-58565142D01*
X150730857Y-58420000D01*
X150585714Y-58347428D01*
X150368000Y-58347428D01*
X150222857Y-58420000D01*
X148553714Y-58347428D02*
X147973142Y-58347428D01*
X148336000Y-57839428D02*
X148336000Y-59145714D01*
X148263428Y-59290857D01*
X148118285Y-59363428D01*
X147973142Y-59363428D01*
X147247428Y-59363428D02*
X147392571Y-59290857D01*
X147465142Y-59218285D01*
X147537714Y-59073142D01*
X147537714Y-58637714D01*
X147465142Y-58492571D01*
X147392571Y-58420000D01*
X147247428Y-58347428D01*
X147029714Y-58347428D01*
X146884571Y-58420000D01*
X146812000Y-58492571D01*
X146739428Y-58637714D01*
X146739428Y-59073142D01*
X146812000Y-59218285D01*
X146884571Y-59290857D01*
X147029714Y-59363428D01*
X147247428Y-59363428D01*
X143981714Y-58637714D02*
X144054285Y-58565142D01*
X144199428Y-58492571D01*
X144344571Y-58492571D01*
X144489714Y-58565142D01*
X144562285Y-58637714D01*
X144634857Y-58782857D01*
X144634857Y-58928000D01*
X144562285Y-59073142D01*
X144489714Y-59145714D01*
X144344571Y-59218285D01*
X144199428Y-59218285D01*
X144054285Y-59145714D01*
X143981714Y-59073142D01*
X143981714Y-58492571D02*
X143981714Y-59073142D01*
X143909142Y-59145714D01*
X143836571Y-59145714D01*
X143691428Y-59073142D01*
X143618857Y-58928000D01*
X143618857Y-58565142D01*
X143764000Y-58347428D01*
X143981714Y-58202285D01*
X144272000Y-58129714D01*
X144562285Y-58202285D01*
X144780000Y-58347428D01*
X144925142Y-58565142D01*
X144997714Y-58855428D01*
X144925142Y-59145714D01*
X144780000Y-59363428D01*
X144562285Y-59508571D01*
X144272000Y-59581142D01*
X143981714Y-59508571D01*
X143764000Y-59363428D01*
X142965714Y-59363428D02*
X142965714Y-57839428D01*
X142457714Y-58928000D01*
X141949714Y-57839428D01*
X141949714Y-59363428D01*
X141224000Y-59363428D02*
X141224000Y-58347428D01*
X141224000Y-57839428D02*
X141296571Y-57912000D01*
X141224000Y-57984571D01*
X141151428Y-57912000D01*
X141224000Y-57839428D01*
X141224000Y-57984571D01*
X140716000Y-58347428D02*
X140135428Y-58347428D01*
X140498285Y-57839428D02*
X140498285Y-59145714D01*
X140425714Y-59290857D01*
X140280571Y-59363428D01*
X140135428Y-59363428D01*
X138974285Y-59290857D02*
X139119428Y-59363428D01*
X139409714Y-59363428D01*
X139554857Y-59290857D01*
X139627428Y-59218285D01*
X139700000Y-59073142D01*
X139700000Y-58637714D01*
X139627428Y-58492571D01*
X139554857Y-58420000D01*
X139409714Y-58347428D01*
X139119428Y-58347428D01*
X138974285Y-58420000D01*
X138321142Y-59363428D02*
X138321142Y-57839428D01*
X137668000Y-59363428D02*
X137668000Y-58565142D01*
X137740571Y-58420000D01*
X137885714Y-58347428D01*
X138103428Y-58347428D01*
X138248571Y-58420000D01*
X138321142Y-58492571D01*
X136434285Y-58565142D02*
X136216571Y-58637714D01*
X136144000Y-58710285D01*
X136071428Y-58855428D01*
X136071428Y-59073142D01*
X136144000Y-59218285D01*
X136216571Y-59290857D01*
X136361714Y-59363428D01*
X136942285Y-59363428D01*
X136942285Y-57839428D01*
X136434285Y-57839428D01*
X136289142Y-57912000D01*
X136216571Y-57984571D01*
X136144000Y-58129714D01*
X136144000Y-58274857D01*
X136216571Y-58420000D01*
X136289142Y-58492571D01*
X136434285Y-58565142D01*
X136942285Y-58565142D01*
X135418285Y-59363428D02*
X135418285Y-58347428D01*
X135418285Y-58637714D02*
X135345714Y-58492571D01*
X135273142Y-58420000D01*
X135128000Y-58347428D01*
X134982857Y-58347428D01*
X133821714Y-59363428D02*
X133821714Y-58565142D01*
X133894285Y-58420000D01*
X134039428Y-58347428D01*
X134329714Y-58347428D01*
X134474857Y-58420000D01*
X133821714Y-59290857D02*
X133966857Y-59363428D01*
X134329714Y-59363428D01*
X134474857Y-59290857D01*
X134547428Y-59145714D01*
X134547428Y-59000571D01*
X134474857Y-58855428D01*
X134329714Y-58782857D01*
X133966857Y-58782857D01*
X133821714Y-58710285D01*
X132442857Y-59363428D02*
X132442857Y-57839428D01*
X132442857Y-59290857D02*
X132588000Y-59363428D01*
X132878285Y-59363428D01*
X133023428Y-59290857D01*
X133096000Y-59218285D01*
X133168571Y-59073142D01*
X133168571Y-58637714D01*
X133096000Y-58492571D01*
X133023428Y-58420000D01*
X132878285Y-58347428D01*
X132588000Y-58347428D01*
X132442857Y-58420000D01*
X131499428Y-59363428D02*
X131644571Y-59290857D01*
X131717142Y-59145714D01*
X131717142Y-57839428D01*
X130338285Y-59290857D02*
X130483428Y-59363428D01*
X130773714Y-59363428D01*
X130918857Y-59290857D01*
X130991428Y-59145714D01*
X130991428Y-58565142D01*
X130918857Y-58420000D01*
X130773714Y-58347428D01*
X130483428Y-58347428D01*
X130338285Y-58420000D01*
X130265714Y-58565142D01*
X130265714Y-58710285D01*
X130991428Y-58855428D01*
X129757714Y-58347428D02*
X129394857Y-59363428D01*
X129032000Y-58347428D02*
X129394857Y-59363428D01*
X129540000Y-59726285D01*
X129612571Y-59798857D01*
X129757714Y-59871428D01*
X126637142Y-59363428D02*
X126637142Y-58565142D01*
X126709714Y-58420000D01*
X126854857Y-58347428D01*
X127145142Y-58347428D01*
X127290285Y-58420000D01*
X126637142Y-59290857D02*
X126782285Y-59363428D01*
X127145142Y-59363428D01*
X127290285Y-59290857D01*
X127362857Y-59145714D01*
X127362857Y-59000571D01*
X127290285Y-58855428D01*
X127145142Y-58782857D01*
X126782285Y-58782857D01*
X126637142Y-58710285D01*
X125911428Y-58347428D02*
X125911428Y-59363428D01*
X125911428Y-58492571D02*
X125838857Y-58420000D01*
X125693714Y-58347428D01*
X125476000Y-58347428D01*
X125330857Y-58420000D01*
X125258285Y-58565142D01*
X125258285Y-59363428D01*
X123879428Y-59363428D02*
X123879428Y-57839428D01*
X123879428Y-59290857D02*
X124024571Y-59363428D01*
X124314857Y-59363428D01*
X124460000Y-59290857D01*
X124532571Y-59218285D01*
X124605142Y-59073142D01*
X124605142Y-58637714D01*
X124532571Y-58492571D01*
X124460000Y-58420000D01*
X124314857Y-58347428D01*
X124024571Y-58347428D01*
X123879428Y-58420000D01*
X121049142Y-58637714D02*
X121121714Y-58565142D01*
X121266857Y-58492571D01*
X121412000Y-58492571D01*
X121557142Y-58565142D01*
X121629714Y-58637714D01*
X121702285Y-58782857D01*
X121702285Y-58928000D01*
X121629714Y-59073142D01*
X121557142Y-59145714D01*
X121412000Y-59218285D01*
X121266857Y-59218285D01*
X121121714Y-59145714D01*
X121049142Y-59073142D01*
X121049142Y-58492571D02*
X121049142Y-59073142D01*
X120976571Y-59145714D01*
X120904000Y-59145714D01*
X120758857Y-59073142D01*
X120686285Y-58928000D01*
X120686285Y-58565142D01*
X120831428Y-58347428D01*
X121049142Y-58202285D01*
X121339428Y-58129714D01*
X121629714Y-58202285D01*
X121847428Y-58347428D01*
X121992571Y-58565142D01*
X122065142Y-58855428D01*
X121992571Y-59145714D01*
X121847428Y-59363428D01*
X121629714Y-59508571D01*
X121339428Y-59581142D01*
X121049142Y-59508571D01*
X120831428Y-59363428D01*
X119815428Y-59363428D02*
X119960571Y-59290857D01*
X120033142Y-59218285D01*
X120105714Y-59073142D01*
X120105714Y-58637714D01*
X120033142Y-58492571D01*
X119960571Y-58420000D01*
X119815428Y-58347428D01*
X119597714Y-58347428D01*
X119452571Y-58420000D01*
X119380000Y-58492571D01*
X119307428Y-58637714D01*
X119307428Y-59073142D01*
X119380000Y-59218285D01*
X119452571Y-59290857D01*
X119597714Y-59363428D01*
X119815428Y-59363428D01*
X118001142Y-59363428D02*
X118001142Y-57839428D01*
X118001142Y-59290857D02*
X118146285Y-59363428D01*
X118436571Y-59363428D01*
X118581714Y-59290857D01*
X118654285Y-59218285D01*
X118726857Y-59073142D01*
X118726857Y-58637714D01*
X118654285Y-58492571D01*
X118581714Y-58420000D01*
X118436571Y-58347428D01*
X118146285Y-58347428D01*
X118001142Y-58420000D01*
X116622285Y-59363428D02*
X116622285Y-58565142D01*
X116694857Y-58420000D01*
X116840000Y-58347428D01*
X117130285Y-58347428D01*
X117275428Y-58420000D01*
X116622285Y-59290857D02*
X116767428Y-59363428D01*
X117130285Y-59363428D01*
X117275428Y-59290857D01*
X117348000Y-59145714D01*
X117348000Y-59000571D01*
X117275428Y-58855428D01*
X117130285Y-58782857D01*
X116767428Y-58782857D01*
X116622285Y-58710285D01*
X115896571Y-59363428D02*
X115896571Y-57839428D01*
X115751428Y-58782857D02*
X115316000Y-59363428D01*
X115316000Y-58347428D02*
X115896571Y-58928000D01*
X114662857Y-59363428D02*
X114662857Y-58347428D01*
X114662857Y-57839428D02*
X114735428Y-57912000D01*
X114662857Y-57984571D01*
X114590285Y-57912000D01*
X114662857Y-57839428D01*
X114662857Y-57984571D01*
D11*
X164719000Y-40785142D02*
X165154428Y-40785142D01*
X165372142Y-40894000D01*
X165481000Y-41002857D01*
X165698714Y-41329428D01*
X165807571Y-41764857D01*
X165807571Y-42635714D01*
X165698714Y-42853428D01*
X165589857Y-42962285D01*
X165372142Y-43071142D01*
X164936714Y-43071142D01*
X164719000Y-42962285D01*
X164610142Y-42853428D01*
X164501285Y-42635714D01*
X164501285Y-42091428D01*
X164610142Y-41873714D01*
X164719000Y-41764857D01*
X164936714Y-41656000D01*
X165372142Y-41656000D01*
X165589857Y-41764857D01*
X165698714Y-41873714D01*
X165807571Y-42091428D01*
X163521571Y-42200285D02*
X161779857Y-42200285D01*
X160691285Y-43071142D02*
X160691285Y-40785142D01*
X159820428Y-40785142D01*
X159602714Y-40894000D01*
X159493857Y-41002857D01*
X159385000Y-41220571D01*
X159385000Y-41547142D01*
X159493857Y-41764857D01*
X159602714Y-41873714D01*
X159820428Y-41982571D01*
X160691285Y-41982571D01*
X157425571Y-43071142D02*
X157425571Y-41873714D01*
X157534428Y-41656000D01*
X157752142Y-41547142D01*
X158187571Y-41547142D01*
X158405285Y-41656000D01*
X157425571Y-42962285D02*
X157643285Y-43071142D01*
X158187571Y-43071142D01*
X158405285Y-42962285D01*
X158514142Y-42744571D01*
X158514142Y-42526857D01*
X158405285Y-42309142D01*
X158187571Y-42200285D01*
X157643285Y-42200285D01*
X157425571Y-42091428D01*
X155357285Y-42962285D02*
X155575000Y-43071142D01*
X156010428Y-43071142D01*
X156228142Y-42962285D01*
X156337000Y-42853428D01*
X156445857Y-42635714D01*
X156445857Y-41982571D01*
X156337000Y-41764857D01*
X156228142Y-41656000D01*
X156010428Y-41547142D01*
X155575000Y-41547142D01*
X155357285Y-41656000D01*
X154377571Y-43071142D02*
X154377571Y-40785142D01*
X154159857Y-42200285D02*
X153506714Y-43071142D01*
X153506714Y-41547142D02*
X154377571Y-42418000D01*
X149479000Y-42853428D02*
X149587857Y-42962285D01*
X149914428Y-43071142D01*
X150132142Y-43071142D01*
X150458714Y-42962285D01*
X150676428Y-42744571D01*
X150785285Y-42526857D01*
X150894142Y-42091428D01*
X150894142Y-41764857D01*
X150785285Y-41329428D01*
X150676428Y-41111714D01*
X150458714Y-40894000D01*
X150132142Y-40785142D01*
X149914428Y-40785142D01*
X149587857Y-40894000D01*
X149479000Y-41002857D01*
X148499285Y-43071142D02*
X148499285Y-40785142D01*
X147193000Y-43071142D01*
X147193000Y-40785142D01*
X144798142Y-42853428D02*
X144907000Y-42962285D01*
X145233571Y-43071142D01*
X145451285Y-43071142D01*
X145777857Y-42962285D01*
X145995571Y-42744571D01*
X146104428Y-42526857D01*
X146213285Y-42091428D01*
X146213285Y-41764857D01*
X146104428Y-41329428D01*
X145995571Y-41111714D01*
X145777857Y-40894000D01*
X145451285Y-40785142D01*
X145233571Y-40785142D01*
X144907000Y-40894000D01*
X144798142Y-41002857D01*
X140770428Y-42853428D02*
X140879285Y-42962285D01*
X141205857Y-43071142D01*
X141423571Y-43071142D01*
X141750142Y-42962285D01*
X141967857Y-42744571D01*
X142076714Y-42526857D01*
X142185571Y-42091428D01*
X142185571Y-41764857D01*
X142076714Y-41329428D01*
X141967857Y-41111714D01*
X141750142Y-40894000D01*
X141423571Y-40785142D01*
X141205857Y-40785142D01*
X140879285Y-40894000D01*
X140770428Y-41002857D01*
X139464142Y-43071142D02*
X139681857Y-42962285D01*
X139790714Y-42853428D01*
X139899571Y-42635714D01*
X139899571Y-41982571D01*
X139790714Y-41764857D01*
X139681857Y-41656000D01*
X139464142Y-41547142D01*
X139137571Y-41547142D01*
X138919857Y-41656000D01*
X138811000Y-41764857D01*
X138702142Y-41982571D01*
X138702142Y-42635714D01*
X138811000Y-42853428D01*
X138919857Y-42962285D01*
X139137571Y-43071142D01*
X139464142Y-43071142D01*
X137722428Y-41547142D02*
X137722428Y-43071142D01*
X137722428Y-41764857D02*
X137613571Y-41656000D01*
X137395857Y-41547142D01*
X137069285Y-41547142D01*
X136851571Y-41656000D01*
X136742714Y-41873714D01*
X136742714Y-43071142D01*
X135980714Y-41547142D02*
X135109857Y-41547142D01*
X135654142Y-40785142D02*
X135654142Y-42744571D01*
X135545285Y-42962285D01*
X135327571Y-43071142D01*
X135109857Y-43071142D01*
X134347857Y-43071142D02*
X134347857Y-41547142D01*
X134347857Y-41982571D02*
X134239000Y-41764857D01*
X134130142Y-41656000D01*
X133912428Y-41547142D01*
X133694714Y-41547142D01*
X132606142Y-43071142D02*
X132823857Y-42962285D01*
X132932714Y-42853428D01*
X133041571Y-42635714D01*
X133041571Y-41982571D01*
X132932714Y-41764857D01*
X132823857Y-41656000D01*
X132606142Y-41547142D01*
X132279571Y-41547142D01*
X132061857Y-41656000D01*
X131953000Y-41764857D01*
X131844142Y-41982571D01*
X131844142Y-42635714D01*
X131953000Y-42853428D01*
X132061857Y-42962285D01*
X132279571Y-43071142D01*
X132606142Y-43071142D01*
X130537857Y-43071142D02*
X130755571Y-42962285D01*
X130864428Y-42744571D01*
X130864428Y-40785142D01*
X129340428Y-43071142D02*
X129558142Y-42962285D01*
X129667000Y-42744571D01*
X129667000Y-40785142D01*
X127598714Y-42962285D02*
X127816428Y-43071142D01*
X128251857Y-43071142D01*
X128469571Y-42962285D01*
X128578428Y-42744571D01*
X128578428Y-41873714D01*
X128469571Y-41656000D01*
X128251857Y-41547142D01*
X127816428Y-41547142D01*
X127598714Y-41656000D01*
X127489857Y-41873714D01*
X127489857Y-42091428D01*
X128578428Y-42309142D01*
X126510142Y-43071142D02*
X126510142Y-41547142D01*
X126510142Y-41982571D02*
X126401285Y-41764857D01*
X126292428Y-41656000D01*
X126074714Y-41547142D01*
X125857000Y-41547142D01*
X123679857Y-40785142D02*
X122917857Y-43071142D01*
X122155857Y-40785142D01*
X120196428Y-43071142D02*
X121502714Y-43071142D01*
X120849571Y-43071142D02*
X120849571Y-40785142D01*
X121067285Y-41111714D01*
X121285000Y-41329428D01*
X121502714Y-41438285D01*
X119216714Y-41547142D02*
X119216714Y-43833142D01*
X119216714Y-41656000D02*
X118999000Y-41547142D01*
X118563571Y-41547142D01*
X118345857Y-41656000D01*
X118237000Y-41764857D01*
X118128142Y-41982571D01*
X118128142Y-42635714D01*
X118237000Y-42853428D01*
X118345857Y-42962285D01*
X118563571Y-43071142D01*
X118999000Y-43071142D01*
X119216714Y-42962285D01*
X116821857Y-41764857D02*
X117039571Y-41656000D01*
X117148428Y-41547142D01*
X117257285Y-41329428D01*
X117257285Y-41220571D01*
X117148428Y-41002857D01*
X117039571Y-40894000D01*
X116821857Y-40785142D01*
X116386428Y-40785142D01*
X116168714Y-40894000D01*
X116059857Y-41002857D01*
X115951000Y-41220571D01*
X115951000Y-41329428D01*
X116059857Y-41547142D01*
X116168714Y-41656000D01*
X116386428Y-41764857D01*
X116821857Y-41764857D01*
X117039571Y-41873714D01*
X117148428Y-41982571D01*
X117257285Y-42200285D01*
X117257285Y-42635714D01*
X117148428Y-42853428D01*
X117039571Y-42962285D01*
X116821857Y-43071142D01*
X116386428Y-43071142D01*
X116168714Y-42962285D01*
X116059857Y-42853428D01*
X115951000Y-42635714D01*
X115951000Y-42200285D01*
X116059857Y-41982571D01*
X116168714Y-41873714D01*
X116386428Y-41764857D01*
X115080142Y-42962285D02*
X114862428Y-43071142D01*
X114427000Y-43071142D01*
X114209285Y-42962285D01*
X114100428Y-42744571D01*
X114100428Y-42635714D01*
X114209285Y-42418000D01*
X114427000Y-42309142D01*
X114753571Y-42309142D01*
X114971285Y-42200285D01*
X115080142Y-41982571D01*
X115080142Y-41873714D01*
X114971285Y-41656000D01*
X114753571Y-41547142D01*
X114427000Y-41547142D01*
X114209285Y-41656000D01*
X160582428Y-45554174D02*
X161344428Y-45554174D01*
X161344428Y-46751602D02*
X161344428Y-44465602D01*
X160255857Y-44465602D01*
X159058428Y-46751602D02*
X159276142Y-46642745D01*
X159385000Y-46533888D01*
X159493857Y-46316174D01*
X159493857Y-45663031D01*
X159385000Y-45445317D01*
X159276142Y-45336460D01*
X159058428Y-45227602D01*
X158731857Y-45227602D01*
X158514142Y-45336460D01*
X158405285Y-45445317D01*
X158296428Y-45663031D01*
X158296428Y-46316174D01*
X158405285Y-46533888D01*
X158514142Y-46642745D01*
X158731857Y-46751602D01*
X159058428Y-46751602D01*
X157316714Y-46751602D02*
X157316714Y-45227602D01*
X157316714Y-45663031D02*
X157207857Y-45445317D01*
X157099000Y-45336460D01*
X156881285Y-45227602D01*
X156663571Y-45227602D01*
X152962428Y-44574460D02*
X153180142Y-44465602D01*
X153506714Y-44465602D01*
X153833285Y-44574460D01*
X154051000Y-44792174D01*
X154159857Y-45009888D01*
X154268714Y-45445317D01*
X154268714Y-45771888D01*
X154159857Y-46207317D01*
X154051000Y-46425031D01*
X153833285Y-46642745D01*
X153506714Y-46751602D01*
X153289000Y-46751602D01*
X152962428Y-46642745D01*
X152853571Y-46533888D01*
X152853571Y-45771888D01*
X153289000Y-45771888D01*
X151873857Y-46751602D02*
X151873857Y-45227602D01*
X151873857Y-45663031D02*
X151765000Y-45445317D01*
X151656142Y-45336460D01*
X151438428Y-45227602D01*
X151220714Y-45227602D01*
X150458714Y-46751602D02*
X150458714Y-44465602D01*
X150458714Y-45336460D02*
X150241000Y-45227602D01*
X149805571Y-45227602D01*
X149587857Y-45336460D01*
X149479000Y-45445317D01*
X149370142Y-45663031D01*
X149370142Y-46316174D01*
X149479000Y-46533888D01*
X149587857Y-46642745D01*
X149805571Y-46751602D01*
X150241000Y-46751602D01*
X150458714Y-46642745D01*
X148063857Y-46751602D02*
X148281571Y-46642745D01*
X148390428Y-46425031D01*
X148390428Y-44465602D01*
X147737285Y-46969317D02*
X145995571Y-46969317D01*
X145451285Y-45554174D02*
X144689285Y-45554174D01*
X144362714Y-46751602D02*
X145451285Y-46751602D01*
X145451285Y-44465602D01*
X144362714Y-44465602D01*
X143491857Y-46642745D02*
X143165285Y-46751602D01*
X142621000Y-46751602D01*
X142403285Y-46642745D01*
X142294428Y-46533888D01*
X142185571Y-46316174D01*
X142185571Y-46098460D01*
X142294428Y-45880745D01*
X142403285Y-45771888D01*
X142621000Y-45663031D01*
X143056428Y-45554174D01*
X143274142Y-45445317D01*
X143383000Y-45336460D01*
X143491857Y-45118745D01*
X143491857Y-44901031D01*
X143383000Y-44683317D01*
X143274142Y-44574460D01*
X143056428Y-44465602D01*
X142512142Y-44465602D01*
X142185571Y-44574460D01*
X141205857Y-46751602D02*
X141205857Y-44465602D01*
X140335000Y-44465602D01*
X140117285Y-44574460D01*
X140008428Y-44683317D01*
X139899571Y-44901031D01*
X139899571Y-45227602D01*
X140008428Y-45445317D01*
X140117285Y-45554174D01*
X140335000Y-45663031D01*
X141205857Y-45663031D01*
X139137571Y-44465602D02*
X137722428Y-44465602D01*
X138484428Y-45336460D01*
X138157857Y-45336460D01*
X137940142Y-45445317D01*
X137831285Y-45554174D01*
X137722428Y-45771888D01*
X137722428Y-46316174D01*
X137831285Y-46533888D01*
X137940142Y-46642745D01*
X138157857Y-46751602D01*
X138811000Y-46751602D01*
X139028714Y-46642745D01*
X139137571Y-46533888D01*
X136851571Y-44683317D02*
X136742714Y-44574460D01*
X136525000Y-44465602D01*
X135980714Y-44465602D01*
X135763000Y-44574460D01*
X135654142Y-44683317D01*
X135545285Y-44901031D01*
X135545285Y-45118745D01*
X135654142Y-45445317D01*
X136960428Y-46751602D01*
X135545285Y-46751602D01*
X132061857Y-45554174D02*
X132823857Y-45554174D01*
X132823857Y-46751602D02*
X132823857Y-44465602D01*
X131735285Y-44465602D01*
X130864428Y-46751602D02*
X130864428Y-45227602D01*
X130864428Y-44465602D02*
X130973285Y-44574460D01*
X130864428Y-44683317D01*
X130755571Y-44574460D01*
X130864428Y-44465602D01*
X130864428Y-44683317D01*
X129775857Y-46751602D02*
X129775857Y-45227602D01*
X129775857Y-45663031D02*
X129667000Y-45445317D01*
X129558142Y-45336460D01*
X129340428Y-45227602D01*
X129122714Y-45227602D01*
X128360714Y-46751602D02*
X128360714Y-45227602D01*
X128360714Y-45445317D02*
X128251857Y-45336460D01*
X128034142Y-45227602D01*
X127707571Y-45227602D01*
X127489857Y-45336460D01*
X127381000Y-45554174D01*
X127381000Y-46751602D01*
X127381000Y-45554174D02*
X127272142Y-45336460D01*
X127054428Y-45227602D01*
X126727857Y-45227602D01*
X126510142Y-45336460D01*
X126401285Y-45554174D01*
X126401285Y-46751602D01*
X125530428Y-45227602D02*
X125095000Y-46751602D01*
X124659571Y-45663031D01*
X124224142Y-46751602D01*
X123788714Y-45227602D01*
X121938142Y-46751602D02*
X121938142Y-45554174D01*
X122047000Y-45336460D01*
X122264714Y-45227602D01*
X122700142Y-45227602D01*
X122917857Y-45336460D01*
X121938142Y-46642745D02*
X122155857Y-46751602D01*
X122700142Y-46751602D01*
X122917857Y-46642745D01*
X123026714Y-46425031D01*
X123026714Y-46207317D01*
X122917857Y-45989602D01*
X122700142Y-45880745D01*
X122155857Y-45880745D01*
X121938142Y-45771888D01*
X120849571Y-46751602D02*
X120849571Y-45227602D01*
X120849571Y-45663031D02*
X120740714Y-45445317D01*
X120631857Y-45336460D01*
X120414142Y-45227602D01*
X120196428Y-45227602D01*
X118563571Y-46642745D02*
X118781285Y-46751602D01*
X119216714Y-46751602D01*
X119434428Y-46642745D01*
X119543285Y-46425031D01*
X119543285Y-45554174D01*
X119434428Y-45336460D01*
X119216714Y-45227602D01*
X118781285Y-45227602D01*
X118563571Y-45336460D01*
X118454714Y-45554174D01*
X118454714Y-45771888D01*
X119543285Y-45989602D01*
X158024285Y-54983380D02*
X158133142Y-54874522D01*
X158350857Y-54547951D01*
X158459714Y-54330237D01*
X158568571Y-54003665D01*
X158677428Y-53459380D01*
X158677428Y-53023951D01*
X158568571Y-52479665D01*
X158459714Y-52153094D01*
X158350857Y-51935380D01*
X158133142Y-51608808D01*
X158024285Y-51499951D01*
X156173714Y-54003665D02*
X156391428Y-54112522D01*
X156826857Y-54112522D01*
X157044571Y-54003665D01*
X157153428Y-53894808D01*
X157262285Y-53677094D01*
X157262285Y-53023951D01*
X157153428Y-52806237D01*
X157044571Y-52697380D01*
X156826857Y-52588522D01*
X156391428Y-52588522D01*
X156173714Y-52697380D01*
X155411714Y-54983380D02*
X155302857Y-54874522D01*
X155085142Y-54547951D01*
X154976285Y-54330237D01*
X154867428Y-54003665D01*
X154758571Y-53459380D01*
X154758571Y-53023951D01*
X154867428Y-52479665D01*
X154976285Y-52153094D01*
X155085142Y-51935380D01*
X155302857Y-51608808D01*
X155411714Y-51499951D01*
X150513142Y-53023951D02*
X150622000Y-52915094D01*
X150839714Y-52806237D01*
X151057428Y-52806237D01*
X151275142Y-52915094D01*
X151384000Y-53023951D01*
X151492857Y-53241665D01*
X151492857Y-53459380D01*
X151384000Y-53677094D01*
X151275142Y-53785951D01*
X151057428Y-53894808D01*
X150839714Y-53894808D01*
X150622000Y-53785951D01*
X150513142Y-53677094D01*
X150513142Y-52806237D02*
X150513142Y-53677094D01*
X150404285Y-53785951D01*
X150295428Y-53785951D01*
X150077714Y-53677094D01*
X149968857Y-53459380D01*
X149968857Y-52915094D01*
X150186571Y-52588522D01*
X150513142Y-52370808D01*
X150948571Y-52261951D01*
X151384000Y-52370808D01*
X151710571Y-52588522D01*
X151928285Y-52915094D01*
X152037142Y-53350522D01*
X151928285Y-53785951D01*
X151710571Y-54112522D01*
X151384000Y-54330237D01*
X150948571Y-54439094D01*
X150513142Y-54330237D01*
X150186571Y-54112522D01*
X148989142Y-54112522D02*
X148989142Y-51826522D01*
X148989142Y-52697380D02*
X148771428Y-52588522D01*
X148336000Y-52588522D01*
X148118285Y-52697380D01*
X148009428Y-52806237D01*
X147900571Y-53023951D01*
X147900571Y-53677094D01*
X148009428Y-53894808D01*
X148118285Y-54003665D01*
X148336000Y-54112522D01*
X148771428Y-54112522D01*
X148989142Y-54003665D01*
X145941142Y-52588522D02*
X145941142Y-54112522D01*
X146920857Y-52588522D02*
X146920857Y-53785951D01*
X146812000Y-54003665D01*
X146594285Y-54112522D01*
X146267714Y-54112522D01*
X146050000Y-54003665D01*
X145941142Y-53894808D01*
X144852571Y-54112522D02*
X144852571Y-52588522D01*
X144852571Y-51826522D02*
X144961428Y-51935380D01*
X144852571Y-52044237D01*
X144743714Y-51935380D01*
X144852571Y-51826522D01*
X144852571Y-52044237D01*
X143437428Y-54112522D02*
X143655142Y-54003665D01*
X143764000Y-53785951D01*
X143764000Y-51826522D01*
X141586857Y-54112522D02*
X141586857Y-51826522D01*
X141586857Y-54003665D02*
X141804571Y-54112522D01*
X142240000Y-54112522D01*
X142457714Y-54003665D01*
X142566571Y-53894808D01*
X142675428Y-53677094D01*
X142675428Y-53023951D01*
X142566571Y-52806237D01*
X142457714Y-52697380D01*
X142240000Y-52588522D01*
X141804571Y-52588522D01*
X141586857Y-52697380D01*
X140171714Y-54112522D02*
X140389428Y-54003665D01*
X140498285Y-53785951D01*
X140498285Y-51826522D01*
X138974285Y-54112522D02*
X139192000Y-54003665D01*
X139300857Y-53894808D01*
X139409714Y-53677094D01*
X139409714Y-53023951D01*
X139300857Y-52806237D01*
X139192000Y-52697380D01*
X138974285Y-52588522D01*
X138647714Y-52588522D01*
X138430000Y-52697380D01*
X138321142Y-52806237D01*
X138212285Y-53023951D01*
X138212285Y-53677094D01*
X138321142Y-53894808D01*
X138430000Y-54003665D01*
X138647714Y-54112522D01*
X138974285Y-54112522D01*
X136252857Y-52588522D02*
X136252857Y-54439094D01*
X136361714Y-54656808D01*
X136470571Y-54765665D01*
X136688285Y-54874522D01*
X137014857Y-54874522D01*
X137232571Y-54765665D01*
X136252857Y-54003665D02*
X136470571Y-54112522D01*
X136906000Y-54112522D01*
X137123714Y-54003665D01*
X137232571Y-53894808D01*
X137341428Y-53677094D01*
X137341428Y-53023951D01*
X137232571Y-52806237D01*
X137123714Y-52697380D01*
X136906000Y-52588522D01*
X136470571Y-52588522D01*
X136252857Y-52697380D01*
X132442857Y-51826522D02*
X132878285Y-51826522D01*
X133096000Y-51935380D01*
X133204857Y-52044237D01*
X133422571Y-52370808D01*
X133531428Y-52806237D01*
X133531428Y-53677094D01*
X133422571Y-53894808D01*
X133313714Y-54003665D01*
X133096000Y-54112522D01*
X132660571Y-54112522D01*
X132442857Y-54003665D01*
X132334000Y-53894808D01*
X132225142Y-53677094D01*
X132225142Y-53132808D01*
X132334000Y-52915094D01*
X132442857Y-52806237D01*
X132660571Y-52697380D01*
X133096000Y-52697380D01*
X133313714Y-52806237D01*
X133422571Y-52915094D01*
X133531428Y-53132808D01*
X129612571Y-51717665D02*
X131572000Y-54656808D01*
X128959428Y-52044237D02*
X128850571Y-51935380D01*
X128632857Y-51826522D01*
X128088571Y-51826522D01*
X127870857Y-51935380D01*
X127762000Y-52044237D01*
X127653142Y-52261951D01*
X127653142Y-52479665D01*
X127762000Y-52806237D01*
X129068285Y-54112522D01*
X127653142Y-54112522D01*
X126238000Y-51826522D02*
X126020285Y-51826522D01*
X125802571Y-51935380D01*
X125693714Y-52044237D01*
X125584857Y-52261951D01*
X125476000Y-52697380D01*
X125476000Y-53241665D01*
X125584857Y-53677094D01*
X125693714Y-53894808D01*
X125802571Y-54003665D01*
X126020285Y-54112522D01*
X126238000Y-54112522D01*
X126455714Y-54003665D01*
X126564571Y-53894808D01*
X126673428Y-53677094D01*
X126782285Y-53241665D01*
X126782285Y-52697380D01*
X126673428Y-52261951D01*
X126564571Y-52044237D01*
X126455714Y-51935380D01*
X126238000Y-51826522D01*
X124605142Y-52044237D02*
X124496285Y-51935380D01*
X124278571Y-51826522D01*
X123734285Y-51826522D01*
X123516571Y-51935380D01*
X123407714Y-52044237D01*
X123298857Y-52261951D01*
X123298857Y-52479665D01*
X123407714Y-52806237D01*
X124714000Y-54112522D01*
X123298857Y-54112522D01*
X121883714Y-51826522D02*
X121666000Y-51826522D01*
X121448285Y-51935380D01*
X121339428Y-52044237D01*
X121230571Y-52261951D01*
X121121714Y-52697380D01*
X121121714Y-53241665D01*
X121230571Y-53677094D01*
X121339428Y-53894808D01*
X121448285Y-54003665D01*
X121666000Y-54112522D01*
X121883714Y-54112522D01*
X122101428Y-54003665D01*
X122210285Y-53894808D01*
X122319142Y-53677094D01*
X122428000Y-53241665D01*
X122428000Y-52697380D01*
X122319142Y-52261951D01*
X122210285Y-52044237D01*
X122101428Y-51935380D01*
X121883714Y-51826522D01*
D12*
X213742088Y-58613523D02*
X213742088Y-57343523D01*
X213219574Y-57464476D02*
X213161517Y-57404000D01*
X213045402Y-57343523D01*
X212755117Y-57343523D01*
X212639002Y-57404000D01*
X212580945Y-57464476D01*
X212522888Y-57585428D01*
X212522888Y-57706380D01*
X212580945Y-57887809D01*
X213277631Y-58613523D01*
X212522888Y-58613523D01*
X212058431Y-58553047D02*
X211884260Y-58613523D01*
X211593974Y-58613523D01*
X211477860Y-58553047D01*
X211419802Y-58492571D01*
X211361745Y-58371619D01*
X211361745Y-58250666D01*
X211419802Y-58129714D01*
X211477860Y-58069238D01*
X211593974Y-58008761D01*
X211826202Y-57948285D01*
X211942317Y-57887809D01*
X212000374Y-57827333D01*
X212058431Y-57706380D01*
X212058431Y-57585428D01*
X212000374Y-57464476D01*
X211942317Y-57404000D01*
X211826202Y-57343523D01*
X211535917Y-57343523D01*
X211361745Y-57404000D01*
X210607002Y-57343523D02*
X210374774Y-57343523D01*
X210258660Y-57404000D01*
X210142545Y-57524952D01*
X210084488Y-57766857D01*
X210084488Y-58190190D01*
X210142545Y-58432095D01*
X210258660Y-58553047D01*
X210374774Y-58613523D01*
X210607002Y-58613523D01*
X210723117Y-58553047D01*
X210839231Y-58432095D01*
X210897288Y-58190190D01*
X210897288Y-57766857D01*
X210839231Y-57524952D01*
X210723117Y-57404000D01*
X210607002Y-57343523D01*
X209852260Y-58734476D02*
X208923345Y-58734476D01*
X208749174Y-57343523D02*
X207994431Y-57343523D01*
X208400831Y-57827333D01*
X208226660Y-57827333D01*
X208110545Y-57887809D01*
X208052488Y-57948285D01*
X207994431Y-58069238D01*
X207994431Y-58371619D01*
X208052488Y-58492571D01*
X208110545Y-58553047D01*
X208226660Y-58613523D01*
X208575002Y-58613523D01*
X208691117Y-58553047D01*
X208749174Y-58492571D01*
X207239688Y-57343523D02*
X207123574Y-57343523D01*
X207007460Y-57404000D01*
X206949402Y-57464476D01*
X206891345Y-57585428D01*
X206833288Y-57827333D01*
X206833288Y-58129714D01*
X206891345Y-58371619D01*
X206949402Y-58492571D01*
X207007460Y-58553047D01*
X207123574Y-58613523D01*
X207239688Y-58613523D01*
X207355802Y-58553047D01*
X207413860Y-58492571D01*
X207471917Y-58371619D01*
X207529974Y-58129714D01*
X207529974Y-57827333D01*
X207471917Y-57585428D01*
X207413860Y-57464476D01*
X207355802Y-57404000D01*
X207239688Y-57343523D01*
X200385559Y-58613523D02*
X200385559Y-57343523D01*
X199841273Y-57464476D02*
X199780797Y-57404000D01*
X199659844Y-57343523D01*
X199357463Y-57343523D01*
X199236511Y-57404000D01*
X199176035Y-57464476D01*
X199115559Y-57585428D01*
X199115559Y-57706380D01*
X199176035Y-57887809D01*
X199901749Y-58613523D01*
X199115559Y-58613523D01*
X198631749Y-58553047D02*
X198450320Y-58613523D01*
X198147940Y-58613523D01*
X198026987Y-58553047D01*
X197966511Y-58492571D01*
X197906035Y-58371619D01*
X197906035Y-58250666D01*
X197966511Y-58129714D01*
X198026987Y-58069238D01*
X198147940Y-58008761D01*
X198389844Y-57948285D01*
X198510797Y-57887809D01*
X198571273Y-57827333D01*
X198631749Y-57706380D01*
X198631749Y-57585428D01*
X198571273Y-57464476D01*
X198510797Y-57404000D01*
X198389844Y-57343523D01*
X198087463Y-57343523D01*
X197906035Y-57404000D01*
X197119844Y-57343523D02*
X196998892Y-57343523D01*
X196877940Y-57404000D01*
X196817463Y-57464476D01*
X196756987Y-57585428D01*
X196696511Y-57827333D01*
X196696511Y-58129714D01*
X196756987Y-58371619D01*
X196817463Y-58492571D01*
X196877940Y-58553047D01*
X196998892Y-58613523D01*
X197119844Y-58613523D01*
X197240797Y-58553047D01*
X197301273Y-58492571D01*
X197361749Y-58371619D01*
X197422225Y-58129714D01*
X197422225Y-57827333D01*
X197361749Y-57585428D01*
X197301273Y-57464476D01*
X197240797Y-57404000D01*
X197119844Y-57343523D01*
X196454606Y-58734476D02*
X195486987Y-58734476D01*
X195245082Y-57464476D02*
X195184606Y-57404000D01*
X195063654Y-57343523D01*
X194761273Y-57343523D01*
X194640320Y-57404000D01*
X194579844Y-57464476D01*
X194519368Y-57585428D01*
X194519368Y-57706380D01*
X194579844Y-57887809D01*
X195305559Y-58613523D01*
X194519368Y-58613523D01*
X193793654Y-57887809D02*
X193914606Y-57827333D01*
X193975082Y-57766857D01*
X194035559Y-57645904D01*
X194035559Y-57585428D01*
X193975082Y-57464476D01*
X193914606Y-57404000D01*
X193793654Y-57343523D01*
X193551749Y-57343523D01*
X193430797Y-57404000D01*
X193370320Y-57464476D01*
X193309844Y-57585428D01*
X193309844Y-57645904D01*
X193370320Y-57766857D01*
X193430797Y-57827333D01*
X193551749Y-57887809D01*
X193793654Y-57887809D01*
X193914606Y-57948285D01*
X193975082Y-58008761D01*
X194035559Y-58129714D01*
X194035559Y-58371619D01*
X193975082Y-58492571D01*
X193914606Y-58553047D01*
X193793654Y-58613523D01*
X193551749Y-58613523D01*
X193430797Y-58553047D01*
X193370320Y-58492571D01*
X193309844Y-58371619D01*
X193309844Y-58129714D01*
X193370320Y-58008761D01*
X193430797Y-57948285D01*
X193551749Y-57887809D01*
X208323663Y-124587000D02*
X208401073Y-124548295D01*
X208517187Y-124548295D01*
X208633301Y-124587000D01*
X208710711Y-124664409D01*
X208749416Y-124741819D01*
X208788120Y-124896638D01*
X208788120Y-125012752D01*
X208749416Y-125167571D01*
X208710711Y-125244980D01*
X208633301Y-125322390D01*
X208517187Y-125361095D01*
X208439778Y-125361095D01*
X208323663Y-125322390D01*
X208284959Y-125283685D01*
X208284959Y-125012752D01*
X208439778Y-125012752D01*
X207936616Y-124819228D02*
X207936616Y-125361095D01*
X207936616Y-124896638D02*
X207897911Y-124857933D01*
X207820501Y-124819228D01*
X207704387Y-124819228D01*
X207626978Y-124857933D01*
X207588273Y-124935342D01*
X207588273Y-125361095D01*
X206852882Y-125361095D02*
X206852882Y-124548295D01*
X206852882Y-125322390D02*
X206930292Y-125361095D01*
X207085111Y-125361095D01*
X207162520Y-125322390D01*
X207201225Y-125283685D01*
X207239930Y-125206276D01*
X207239930Y-124974047D01*
X207201225Y-124896638D01*
X207162520Y-124857933D01*
X207085111Y-124819228D01*
X206930292Y-124819228D01*
X206852882Y-124857933D01*
M02*
