M48
; DRILL file {KiCad (5.99.0-13025-gf345eacf13)} date Sun Oct 31 04:57:59 2021
; FORMAT={-:-/ absolute / inch / decimal}
; #@! TF.CreationDate,2021-10-31T04:57:59-07:00
; #@! TF.GenerationSoftware,Kicad,Pcbnew,(5.99.0-13025-gf345eacf13)
; #@! TF.FileFunction,MixedPlating,1,2
FMAT,2
INCH
; #@! TA.AperFunction,Plated,PTH,ViaDrill
T1C0.0120
; #@! TA.AperFunction,Plated,PTH,ViaDrill
T2C0.0191
; #@! TA.AperFunction,Plated,PTH,ViaDrill
T3C0.0200
; #@! TA.AperFunction,Plated,PTH,ViaDrill
T4C0.0350
; #@! TA.AperFunction,Plated,PTH,ComponentDrill
T5C0.0394
; #@! TA.AperFunction,Plated,PTH,ComponentDrill
T6C0.0472
; #@! TA.AperFunction,Plated,PTH,ComponentDrill
T7C0.0512
; #@! TA.AperFunction,Plated,PTH,ComponentDrill
T8C0.1378
; #@! TA.AperFunction,NonPlated,NPTH,ComponentDrill
T9C0.0394
; #@! TA.AperFunction,NonPlated,NPTH,ComponentDrill
T10C0.1378
%
G90
G05
T1
X3.285Y-4.595
X3.345Y-5.095
X3.37Y-3.636
X3.37Y-5.51
X3.374Y-4.166
X3.405Y-3.185
X3.41Y-2.93
X3.42Y-5.8
X3.45Y-2.855
X3.45Y-4.28
X3.46Y-5.935
X3.5Y-3.724
X3.51Y-3.22
X3.55Y-2.82
X3.595Y-4.75
X3.6Y-3.812
X3.625Y-4.695
X3.635Y-6.13
X3.65Y-2.785
X3.665Y-5.275
X3.72Y-4.79
X3.72Y-4.86
X3.73Y-6.08
X3.734Y-3.77
X3.734Y-3.846
X3.74Y-3.638
X3.7501Y-2.75
X3.752Y-4.132
X3.77Y-2.44
X3.78Y-2.57
X3.8001Y-2.365
X3.835Y-4.785
X3.84Y-3.725
X3.84Y-3.812
X3.84Y-3.855
X3.84Y-3.9
X3.84Y-3.942
X3.845Y-2.605
X3.85Y-4.955
X3.85Y-5.12
X3.85Y-5.31
X3.88Y-4.955
X3.88Y-5.12
X3.88Y-5.31
X3.895Y-3.695
X3.895Y-3.77
X3.9Y-4.23
X3.91Y-2.64
X3.91Y-4.955
X3.91Y-5.12
X3.91Y-5.31
X3.925Y-4.785
X3.93Y-2.71
X3.94Y-4.662
X3.98Y-3.698
X3.98Y-3.77
X3.98Y-3.955
X3.98Y-4.05
X4.0Y-2.675
X4.005Y-5.5
X4.02Y-2.535
X4.1Y-3.5
X4.1501Y-4.015
X4.175Y-6.05
X4.196Y-5.95
X4.2Y-3.54
X4.2Y-4.198
X4.21Y-3.815
X4.221Y-5.65
X4.235Y-4.995
X4.245Y-3.725
X4.245Y-3.78
X4.254Y-4.662
X4.255Y-4.795
X4.305Y-3.715
X4.33Y-4.695
X4.33Y-4.745
X4.33Y-4.795
X4.33Y-4.845
X4.33Y-4.895
X4.36Y-4.23
X4.39Y-4.025
X4.39Y-4.11
X4.425Y-4.795
X4.425Y-5.99
X4.4402Y-4.52
X4.45Y-3.54
X4.48Y-4.21
X4.48Y-4.71
X4.5Y-3.54
X4.515Y-4.745
X4.52Y-5.99
X4.55Y-4.67
X4.555Y-4.8
X4.56Y-4.965
X4.57Y-4.11
X4.6Y-3.52
X4.63Y-4.11
X4.63Y-4.67
X4.635Y-4.785
X4.64Y-4.04
X4.65Y-3.22
X4.65Y-4.955
X4.65Y-5.12
X4.65Y-5.31
X4.68Y-4.955
X4.68Y-5.12
X4.68Y-5.31
X4.7Y-3.52
X4.71Y-4.955
X4.71Y-5.12
X4.71Y-5.31
X4.725Y-4.785
X4.75Y-2.855
X4.75Y-3.22
X4.795Y-5.5
X4.8Y-3.52
X4.85Y-2.82
X4.85Y-3.19
X4.85Y-4.71
X4.87Y-2.54
X4.88Y-4.685
X4.9Y-2.365
X4.915Y-4.23
X4.92Y-4.11
X4.93Y-3.785
X4.93Y-3.91
X4.95Y-2.785
X4.95Y-4.08
X4.99Y-3.705
X4.995Y-4.075
X5.035Y-2.54
X5.0501Y-2.75
X5.14Y-3.34
X5.17Y-3.535
X5.19Y-4.265
X5.195Y-3.915
X5.21Y-4.58
X5.215Y-6.13
X5.2438Y-3.4688
X5.27Y-4.71
X5.28Y-4.955
X5.285Y-4.8
X5.295Y-4.375
X5.3Y-4.525
X5.305Y-6.08
X5.31Y-4.695
X5.315Y-3.915
X5.34Y-4.37
X5.38Y-4.37
X5.38Y-4.6
X5.38Y-4.665
X5.42Y-4.37
X5.42Y-4.63
X5.435Y-4.785
X5.45Y-2.57
X5.45Y-4.955
X5.45Y-5.12
X5.45Y-5.31
X5.46Y-4.37
X5.46Y-4.66
X5.48Y-4.955
X5.48Y-5.12
X5.48Y-5.31
X5.49Y-3.15
X5.49Y-4.52
X5.49Y-4.57
X5.495Y-2.57
X5.5Y-4.375
X5.51Y-4.955
X5.51Y-5.12
X5.51Y-5.31
X5.525Y-4.785
X5.56Y-3.9
X5.56Y-4.04
X5.585Y-5.5
X5.61Y-3.15
X5.65Y-3.88
X5.66Y-4.04
X5.7Y-4.375
X5.77Y-3.9
X5.77Y-6.05
X5.791Y-5.95
X5.81Y-4.53
X5.813Y-5.6501
X5.835Y-4.995
X5.84Y-4.04
X5.855Y-4.795
X5.931Y-4.695
X5.931Y-4.745
X5.931Y-4.795
X5.931Y-4.845
X5.931Y-4.895
X5.935Y-4.375
X6.005Y-5.99
X6.01Y-5.92
X6.01Y-5.95
X6.015Y-4.54
X6.025Y-4.795
X6.05Y-2.855
X6.06Y-3.92
X6.06Y-4.02
X6.06Y-4.16
X6.06Y-4.21
X6.06Y-4.26
X6.06Y-4.82
X6.065Y-4.995
X6.1Y-5.99
X6.109Y-4.72
X6.12Y-4.375
X6.14Y-4.6
X6.15Y-2.82
X6.16Y-3.92
X6.16Y-4.02
X6.17Y-4.71
X6.205Y-3.865
X6.205Y-3.915
X6.205Y-3.965
X6.23Y-4.785
X6.25Y-2.785
X6.25Y-3.48
X6.25Y-4.955
X6.25Y-5.12
X6.25Y-5.31
X6.28Y-4.955
X6.28Y-5.12
X6.28Y-5.31
X6.31Y-4.955
X6.31Y-5.12
X6.31Y-5.31
X6.32Y-3.72
X6.325Y-3.865
X6.325Y-3.915
X6.325Y-3.965
X6.33Y-4.785
X6.345Y-4.33
X6.3501Y-2.75
X6.37Y-4.16
X6.37Y-4.2
X6.37Y-4.24
X6.375Y-5.5
X6.42Y-4.16
X6.42Y-4.2
X6.42Y-4.24
X6.425Y-4.305
X6.45Y-2.71
X6.55Y-2.64
X6.57Y-4.16
X6.57Y-4.33
X6.63Y-4.27
X6.65Y-2.605
X6.675Y-4.265
X6.7Y-4.53
X6.75Y-2.675
X6.78Y-2.72
X6.795Y-6.13
X6.87Y-4.8
X6.87Y-4.97
X6.89Y-6.08
X6.9Y-4.695
X6.915Y-3.775
X6.93Y-4.63
X6.935Y-4.2
X6.935Y-4.285
X6.98Y-4.623
X7.035Y-4.785
X7.05Y-4.48
X7.05Y-4.955
X7.05Y-5.12
X7.05Y-5.31
X7.08Y-4.955
X7.08Y-5.12
X7.08Y-5.31
X7.11Y-4.955
X7.11Y-5.12
X7.11Y-5.31
X7.125Y-4.785
X7.165Y-5.5
X7.195Y-3.2992
X7.2579Y-3.3386
X7.31Y-4.006
X7.3185Y-3.378
X7.32Y-2.72
X7.35Y-2.855
X7.35Y-6.05
X7.3713Y-3.4252
X7.375Y-5.95
X7.395Y-5.65
X7.4Y-2.72
X7.4Y-3.83
X7.425Y-4.581
X7.43Y-3.8
X7.43Y-4.28
X7.435Y-4.995
X7.445Y-4.22
X7.45Y-2.82
X7.455Y-4.795
X7.465Y-3.76
X7.465Y-4.48
X7.495Y-3.8
X7.5Y-2.72
X7.525Y-3.76
X7.53Y-4.695
X7.53Y-4.745
X7.53Y-4.795
X7.53Y-4.845
X7.53Y-4.895
X7.54Y-4.48
X7.545Y-4.581
X7.55Y-2.785
X7.585Y-5.99
X7.6Y-2.72
X7.61Y-4.48
X7.6121Y-4.125
X7.614Y-4.795
X7.615Y-3.925
X7.615Y-4.025
X7.615Y-4.285
X7.65Y-2.75
X7.655Y-3.34
X7.665Y-4.995
X7.67Y-3.79
X7.674Y-4.125
X7.675Y-5.99
X7.69Y-3.375
X7.7Y-3.16
X7.72Y-2.72
X7.72Y-4.285
X7.72Y-4.48
X7.72Y-4.66
X7.725Y-3.41
X7.75Y-2.855
X7.76Y-3.445
X7.836Y-4.785
X7.85Y-2.82
X7.85Y-4.955
X7.85Y-5.12
X7.85Y-5.31
X7.88Y-4.955
X7.88Y-5.12
X7.88Y-5.31
X7.91Y-4.955
X7.91Y-5.12
X7.91Y-5.31
X7.925Y-4.785
X7.95Y-2.785
X7.955Y-5.5
X8.05Y-2.75
X8.1Y-4.995
X8.105Y-3.16
X8.13Y-4.475
X8.13Y-5.515
X8.13Y-5.56
X8.13Y-5.605
X8.13Y-5.65
X8.18Y-3.79
X8.18Y-4.285
X8.29Y-4.87
X8.29Y-4.97
X8.29Y-5.51
X8.29Y-5.61
X8.32Y-4.51
X8.39Y-4.87
X8.39Y-4.97
X8.39Y-5.51
X8.39Y-5.61
T2
X4.59Y-3.745
X4.69Y-3.745
X4.79Y-3.745
X4.89Y-3.745
T3
X3.32Y-4.63
X3.665Y-4.62
X3.665Y-5.23
X4.295Y-4.945
X5.0Y-2.14
X5.19Y-3.77
X5.25Y-4.415
X5.25Y-4.62
X5.895Y-4.945
X5.955Y-4.48
X7.495Y-4.945
X8.175Y-4.43
X8.3Y-5.06
X8.3Y-5.13
X8.3Y-5.2
X8.3Y-5.27
X8.38Y-5.06
X8.38Y-5.13
X8.38Y-5.2
X8.38Y-5.27
T4
X4.35Y-2.93
X5.65Y-2.93
X6.23Y-4.41
X6.95Y-2.93
X8.25Y-4.3503
T5
X3.25Y-3.35
X3.25Y-3.45
X3.25Y-4.35
X3.25Y-4.45
X3.31Y-5.2306
X3.31Y-5.3306
X3.31Y-5.4306
X3.32Y-6.02
X3.32Y-6.12
X3.32Y-6.22
X3.35Y-3.09
X3.35Y-3.35
X3.35Y-3.45
X3.35Y-4.35
X3.35Y-4.45
X3.35Y-4.825
X3.35Y-4.925
X3.35Y-5.025
X3.45Y-3.09
X3.45Y-3.35
X3.45Y-3.45
X3.45Y-4.35
X3.45Y-4.45
X3.4501Y-4.825
X3.4501Y-4.925
X3.4501Y-5.025
X3.55Y-3.09
X3.55Y-3.35
X3.55Y-3.45
X3.55Y-4.35
X3.55Y-4.45
X3.55Y-4.825
X3.55Y-4.925
X3.55Y-5.025
X3.57Y-5.4
X3.57Y-5.5
X3.57Y-5.6
X3.57Y-5.7
X3.57Y-5.8
X3.57Y-5.9
X3.57Y-6.0
X3.57Y-6.1
X3.65Y-3.09
X3.65Y-3.35
X3.65Y-3.45
X3.65Y-4.35
X3.65Y-4.45
X3.67Y-5.4
X3.75Y-3.09
X3.75Y-3.35
X3.75Y-3.45
X3.75Y-4.35
X3.75Y-4.45
X3.77Y-5.4
X3.8Y-2.14
X3.8Y-2.24
X3.85Y-3.09
X3.85Y-3.35
X3.85Y-3.45
X3.85Y-4.35
X3.85Y-4.45
X3.9Y-2.14
X3.9Y-2.24
X3.95Y-3.09
X3.95Y-3.35
X3.95Y-3.45
X3.95Y-4.35
X3.95Y-4.45
X4.0Y-2.14
X4.0Y-2.24
X4.05Y-3.09
X4.05Y-3.35
X4.05Y-3.45
X4.05Y-4.35
X4.05Y-4.45
X4.07Y-5.4
X4.07Y-5.5
X4.07Y-5.6
X4.07Y-5.7
X4.07Y-5.8
X4.07Y-5.9
X4.07Y-6.0
X4.07Y-6.1
X4.1Y-2.14
X4.1Y-2.24
X4.15Y-3.09
X4.15Y-3.35
X4.15Y-3.45
X4.15Y-4.35
X4.15Y-4.45
X4.2Y-2.14
X4.2Y-2.24
X4.25Y-3.09
X4.25Y-3.35
X4.25Y-3.45
X4.25Y-4.35
X4.25Y-4.45
X4.35Y-3.09
X4.35Y-3.35
X4.35Y-3.45
X4.35Y-4.35
X4.35Y-4.45
X4.36Y-3.805
X4.36Y-3.905
X4.36Y-5.4
X4.36Y-5.5
X4.36Y-5.6
X4.36Y-5.7
X4.36Y-5.8
X4.36Y-5.9
X4.36Y-6.0
X4.36Y-6.1
X4.45Y-3.09
X4.45Y-3.35
X4.45Y-3.45
X4.45Y-4.35
X4.45Y-4.45
X4.46Y-3.805
X4.46Y-3.905
X4.46Y-5.4
X4.55Y-3.35
X4.55Y-3.45
X4.55Y-4.35
X4.55Y-4.45
X4.56Y-3.805
X4.56Y-3.905
X4.56Y-5.4
X4.65Y-3.09
X4.65Y-3.35
X4.65Y-3.45
X4.65Y-4.35
X4.65Y-4.45
X4.66Y-3.805
X4.66Y-3.905
X4.75Y-3.09
X4.75Y-3.35
X4.75Y-3.45
X4.75Y-4.35
X4.75Y-4.45
X4.76Y-3.805
X4.76Y-3.905
X4.85Y-3.09
X4.85Y-3.35
X4.85Y-3.45
X4.85Y-4.35
X4.85Y-4.45
X4.86Y-3.805
X4.86Y-3.905
X4.86Y-5.4
X4.86Y-5.5
X4.86Y-5.6
X4.86Y-5.7
X4.86Y-5.8
X4.86Y-5.9
X4.86Y-6.0
X4.86Y-6.1
X4.95Y-3.09
X4.95Y-3.35
X4.95Y-3.45
X4.95Y-4.35
X4.95Y-4.45
X5.05Y-3.09
X5.05Y-3.35
X5.05Y-3.45
X5.05Y-4.35
X5.05Y-4.45
X5.15Y-3.09
X5.15Y-5.4
X5.15Y-5.5
X5.15Y-5.6
X5.15Y-5.7
X5.15Y-5.8
X5.15Y-5.9
X5.15Y-6.0
X5.15Y-6.1
X5.25Y-3.09
X5.25Y-5.4
X5.35Y-3.09
X5.35Y-5.4
X5.45Y-3.09
X5.5106Y-3.97
X5.55Y-3.09
X5.6106Y-3.97
X5.65Y-3.09
X5.65Y-5.4
X5.65Y-5.5
X5.65Y-5.6
X5.65Y-5.7
X5.65Y-5.8
X5.65Y-5.9
X5.65Y-6.0
X5.65Y-6.1
X5.7106Y-3.97
X5.75Y-3.09
X5.94Y-5.4
X5.94Y-5.5
X5.94Y-5.6
X5.94Y-5.7
X5.94Y-5.8
X5.94Y-5.9
X5.94Y-6.0
X5.94Y-6.1
X5.95Y-3.09
X6.04Y-5.4
X6.05Y-3.09
X6.14Y-5.4
X6.15Y-3.09
X6.25Y-3.09
X6.35Y-3.09
X6.44Y-5.4
X6.44Y-5.5
X6.44Y-5.6
X6.44Y-5.7
X6.44Y-5.8
X6.44Y-5.9
X6.44Y-6.0
X6.44Y-6.1
X6.45Y-3.09
X6.55Y-3.09
X6.65Y-3.09
X6.73Y-5.4
X6.73Y-5.5
X6.73Y-5.6
X6.73Y-5.7
X6.73Y-5.8
X6.73Y-5.9
X6.73Y-6.0
X6.73Y-6.1
X6.75Y-3.09
X6.83Y-5.4
X6.85Y-3.09
X6.8501Y-3.35
X6.8501Y-3.45
X6.8501Y-3.55
X6.8501Y-3.65
X6.8501Y-3.75
X6.8501Y-3.85
X6.8501Y-3.95
X6.8501Y-4.05
X6.8501Y-4.15
X6.8501Y-4.25
X6.8501Y-4.35
X6.8501Y-4.45
X6.93Y-5.4
X6.95Y-3.09
X7.05Y-3.09
X7.23Y-5.4
X7.23Y-5.5
X7.23Y-5.6
X7.23Y-5.7
X7.23Y-5.8
X7.23Y-5.9
X7.23Y-6.0
X7.23Y-6.1
X7.25Y-3.09
X7.35Y-3.09
X7.45Y-3.09
X7.52Y-5.4
X7.52Y-5.5
X7.52Y-5.6
X7.52Y-5.7
X7.52Y-5.8
X7.52Y-5.9
X7.52Y-6.0
X7.52Y-6.1
X7.55Y-3.09
X7.62Y-5.4
X7.65Y-3.09
X7.72Y-5.4
X7.75Y-3.09
X7.85Y-3.09
X7.95Y-3.09
X7.99Y-1.89
X7.99Y-1.99
X7.99Y-2.09
X7.99Y-2.19
X7.99Y-2.29
X7.99Y-2.39
X8.02Y-5.4
X8.02Y-5.5
X8.02Y-5.6
X8.02Y-5.7
X8.02Y-5.8
X8.02Y-5.9
X8.02Y-6.0
X8.02Y-6.1
X8.05Y-3.09
X8.09Y-1.89
X8.09Y-1.99
X8.09Y-2.09
X8.09Y-2.19
X8.09Y-2.29
X8.09Y-2.39
X8.15Y-3.09
X8.25Y-3.09
X8.35Y-3.09
X8.355Y-5.9006
X8.355Y-6.0006
X8.355Y-6.1006
T6
X3.62Y-6.45
X3.7578Y-6.45
X3.8956Y-6.45
X4.0334Y-6.45
X4.41Y-6.45
X4.5478Y-6.45
X4.6856Y-6.45
X4.8234Y-6.45
X5.1933Y-6.45
X5.3311Y-6.45
X5.4689Y-6.45
X5.6067Y-6.45
X5.99Y-6.45
X6.1278Y-6.45
X6.2656Y-6.45
X6.4034Y-6.45
X6.78Y-6.45
X6.9178Y-6.45
X7.0556Y-6.45
X7.1934Y-6.45
X7.57Y-6.45
X7.7078Y-6.45
X7.8456Y-6.45
X7.9834Y-6.45
T7
X8.34Y-4.7231
X8.34Y-4.92
X8.34Y-5.3631
X8.34Y-5.56
T8
X3.35Y-1.6
X3.35Y-6.6
X6.6Y-3.35
X8.3379Y-2.6152
X8.35Y-1.6
X8.35Y-6.6
T9
X3.3608Y-3.7019
X3.3608Y-4.0168
T10
X3.4067Y-1.9483
X4.7067Y-1.9483
X6.0067Y-1.9483
X7.3067Y-1.9483
X7.9918Y-3.4067
T0
M30
