%TF.GenerationSoftware,KiCad,Pcbnew,(5.99.0-13025-gf345eacf13)*%
%TF.CreationDate,2021-10-31T04:57:43-07:00*%
%TF.ProjectId,6_axis_I2S_v1p8s,365f6178-6973-45f4-9932-535f76317038,rev?*%
%TF.SameCoordinates,Original*%
%TF.FileFunction,Soldermask,Top*%
%TF.FilePolarity,Negative*%
%FSLAX46Y46*%
G04 Gerber Fmt 4.6, Leading zero omitted, Abs format (unit mm)*
G04 Created by KiCad (PCBNEW (5.99.0-13025-gf345eacf13)) date 2021-10-31 04:57:43*
%MOMM*%
%LPD*%
G01*
G04 APERTURE LIST*
G04 Aperture macros list*
%AMRoundRect*
0 Rectangle with rounded corners*
0 $1 Rounding radius*
0 $2 $3 $4 $5 $6 $7 $8 $9 X,Y pos of 4 corners*
0 Add a 4 corners polygon primitive as box body*
4,1,4,$2,$3,$4,$5,$6,$7,$8,$9,$2,$3,0*
0 Add four circle primitives for the rounded corners*
1,1,$1+$1,$2,$3*
1,1,$1+$1,$4,$5*
1,1,$1+$1,$6,$7*
1,1,$1+$1,$8,$9*
0 Add four rect primitives between the rounded corners*
20,1,$1+$1,$2,$3,$4,$5,0*
20,1,$1+$1,$4,$5,$6,$7,0*
20,1,$1+$1,$6,$7,$8,$9,0*
20,1,$1+$1,$8,$9,$2,$3,0*%
G04 Aperture macros list end*
%ADD10R,1.700000X1.700000*%
%ADD11O,1.700000X1.700000*%
%ADD12R,2.400000X2.400000*%
%ADD13C,2.400000*%
%ADD14RoundRect,0.155000X-0.212500X-0.155000X0.212500X-0.155000X0.212500X0.155000X-0.212500X0.155000X0*%
%ADD15C,1.000000*%
%ADD16R,1.300000X0.685800*%
%ADD17R,2.000000X1.200000*%
%ADD18R,1.400000X1.200000*%
%ADD19R,1.400000X1.193800*%
%ADD20RoundRect,0.155000X0.212500X0.155000X-0.212500X0.155000X-0.212500X-0.155000X0.212500X-0.155000X0*%
%ADD21RoundRect,0.155000X-0.155000X0.212500X-0.155000X-0.212500X0.155000X-0.212500X0.155000X0.212500X0*%
%ADD22RoundRect,0.150000X-0.825000X-0.150000X0.825000X-0.150000X0.825000X0.150000X-0.825000X0.150000X0*%
%ADD23C,3.500000*%
%ADD24C,6.000000*%
%ADD25C,3.900000*%
%ADD26RoundRect,0.140000X0.140000X0.170000X-0.140000X0.170000X-0.140000X-0.170000X0.140000X-0.170000X0*%
%ADD27RoundRect,0.140000X0.170000X-0.140000X0.170000X0.140000X-0.170000X0.140000X-0.170000X-0.140000X0*%
%ADD28R,2.600000X2.600000*%
%ADD29C,2.600000*%
%ADD30RoundRect,0.250001X0.799999X-2.049999X0.799999X2.049999X-0.799999X2.049999X-0.799999X-2.049999X0*%
%ADD31R,1.910000X0.610000*%
%ADD32R,1.205000X1.550000*%
%ADD33R,2.500000X1.800000*%
%ADD34RoundRect,0.237500X0.250000X0.237500X-0.250000X0.237500X-0.250000X-0.237500X0.250000X-0.237500X0*%
%ADD35R,2.500000X3.300000*%
%ADD36RoundRect,0.135000X0.135000X0.185000X-0.135000X0.185000X-0.135000X-0.185000X0.135000X-0.185000X0*%
%ADD37RoundRect,0.250000X-0.600000X0.600000X-0.600000X-0.600000X0.600000X-0.600000X0.600000X0.600000X0*%
%ADD38C,1.700000*%
%ADD39RoundRect,0.250000X-1.500000X-0.550000X1.500000X-0.550000X1.500000X0.550000X-1.500000X0.550000X0*%
%ADD40RoundRect,0.250000X-0.250000X-0.475000X0.250000X-0.475000X0.250000X0.475000X-0.250000X0.475000X0*%
%ADD41RoundRect,0.250001X-0.624999X0.462499X-0.624999X-0.462499X0.624999X-0.462499X0.624999X0.462499X0*%
%ADD42RoundRect,0.250000X0.475000X-0.250000X0.475000X0.250000X-0.475000X0.250000X-0.475000X-0.250000X0*%
%ADD43RoundRect,0.250000X0.412500X0.400000X-0.412500X0.400000X-0.412500X-0.400000X0.412500X-0.400000X0*%
%ADD44RoundRect,0.135000X-0.135000X-0.185000X0.135000X-0.185000X0.135000X0.185000X-0.135000X0.185000X0*%
%ADD45R,1.900000X2.500000*%
G04 APERTURE END LIST*
D10*
%TO.C,J18*%
X110744000Y-99187000D03*
D11*
X110744000Y-96647000D03*
X113284000Y-99187000D03*
X113284000Y-96647000D03*
X115824000Y-99187000D03*
X115824000Y-96647000D03*
X118364000Y-99187000D03*
X118364000Y-96647000D03*
X120904000Y-99187000D03*
X120904000Y-96647000D03*
X123444000Y-99187000D03*
X123444000Y-96647000D03*
%TD*%
D12*
%TO.C,TB3*%
X131910000Y-163830000D03*
D13*
X135410000Y-163830000D03*
X138910000Y-163830000D03*
X142410000Y-163830000D03*
%TD*%
D12*
%TO.C,TB6*%
X172212000Y-163830000D03*
D13*
X175712000Y-163830000D03*
X179212000Y-163830000D03*
X182712000Y-163830000D03*
%TD*%
D10*
%TO.C,J9*%
X110744000Y-137160000D03*
D11*
X110744000Y-139700000D03*
X110744000Y-142240000D03*
X110744000Y-144780000D03*
X110744000Y-147320000D03*
X110744000Y-149860000D03*
X110744000Y-152400000D03*
X110744000Y-154940000D03*
%TD*%
D14*
%TO.C,C15*%
X161865500Y-103378000D03*
X163000500Y-103378000D03*
%TD*%
D15*
%TO.C,SD1*%
X85364000Y-102027000D03*
X85364000Y-94027000D03*
D16*
X96204000Y-101227000D03*
X96204000Y-100127000D03*
X96204000Y-99027000D03*
X96204000Y-97927000D03*
X96204000Y-96827000D03*
X96204000Y-95727000D03*
X96204000Y-94627000D03*
X96204000Y-93527000D03*
X96204000Y-92427000D03*
D17*
X85654000Y-106947000D03*
D18*
X95354000Y-106107000D03*
D19*
X95354000Y-91217000D03*
D17*
X85654000Y-91217000D03*
%TD*%
D10*
%TO.C,J13*%
X130810000Y-137160000D03*
D11*
X130810000Y-139700000D03*
X130810000Y-142240000D03*
X130810000Y-144780000D03*
X130810000Y-147320000D03*
X130810000Y-149860000D03*
X130810000Y-152400000D03*
X130810000Y-154940000D03*
%TD*%
D20*
%TO.C,C1*%
X109279500Y-116332000D03*
X108144500Y-116332000D03*
%TD*%
D21*
%TO.C,C5*%
X86868000Y-148022500D03*
X86868000Y-149157500D03*
%TD*%
D10*
%TO.C,J24*%
X84074000Y-132857000D03*
D11*
X84074000Y-135397000D03*
X84074000Y-137937000D03*
%TD*%
D12*
%TO.C,TB5*%
X152146000Y-163830000D03*
D13*
X155646000Y-163830000D03*
X159146000Y-163830000D03*
X162646000Y-163830000D03*
%TD*%
D22*
%TO.C,U1*%
X106237000Y-117983000D03*
X106237000Y-119253000D03*
X106237000Y-120523000D03*
X106237000Y-121793000D03*
X106237000Y-123063000D03*
X106237000Y-124333000D03*
X106237000Y-125603000D03*
X106237000Y-126873000D03*
X111187000Y-126873000D03*
X111187000Y-125603000D03*
X111187000Y-124333000D03*
X111187000Y-123063000D03*
X111187000Y-121793000D03*
X111187000Y-120523000D03*
X111187000Y-119253000D03*
X111187000Y-117983000D03*
%TD*%
D23*
%TO.C,MOD3*%
X152570000Y-49486000D03*
D10*
X179070000Y-78486000D03*
D11*
X176530000Y-78486000D03*
X173990000Y-78486000D03*
X171450000Y-78486000D03*
X168910000Y-78486000D03*
X166370000Y-78486000D03*
X163830000Y-78486000D03*
X161290000Y-78486000D03*
X158750000Y-78486000D03*
X156210000Y-78486000D03*
X153670000Y-78486000D03*
X151130000Y-78486000D03*
%TD*%
D10*
%TO.C,J1*%
X95758000Y-137160000D03*
D11*
X93218000Y-137160000D03*
%TD*%
D10*
%TO.C,J2*%
X90678000Y-137160000D03*
D11*
X90678000Y-139700000D03*
X90678000Y-142240000D03*
X90678000Y-144780000D03*
X90678000Y-147320000D03*
X90678000Y-149860000D03*
X90678000Y-152400000D03*
X90678000Y-154940000D03*
%TD*%
D12*
%TO.C,TB7*%
X192278000Y-163830000D03*
D13*
X195778000Y-163830000D03*
X199278000Y-163830000D03*
X202778000Y-163830000D03*
%TD*%
D22*
%TO.C,U3*%
X187517000Y-117983000D03*
X187517000Y-119253000D03*
X187517000Y-120523000D03*
X187517000Y-121793000D03*
X187517000Y-123063000D03*
X187517000Y-124333000D03*
X187517000Y-125603000D03*
X187517000Y-126873000D03*
X192467000Y-126873000D03*
X192467000Y-125603000D03*
X192467000Y-124333000D03*
X192467000Y-123063000D03*
X192467000Y-121793000D03*
X192467000Y-120523000D03*
X192467000Y-119253000D03*
X192467000Y-117983000D03*
%TD*%
D24*
%TO.C,MH2*%
X212090000Y-40640000D03*
D25*
X212090000Y-40640000D03*
%TD*%
D24*
%TO.C,MH6*%
X211782500Y-66426066D03*
D25*
X211782500Y-66426066D03*
%TD*%
D23*
%TO.C,MOD4*%
X185590000Y-49486000D03*
D10*
X212090000Y-78486000D03*
D11*
X209550000Y-78486000D03*
X207010000Y-78486000D03*
X204470000Y-78486000D03*
X201930000Y-78486000D03*
X199390000Y-78486000D03*
X196850000Y-78486000D03*
X194310000Y-78486000D03*
X191770000Y-78486000D03*
X189230000Y-78486000D03*
X186690000Y-78486000D03*
X184150000Y-78486000D03*
%TD*%
D26*
%TO.C,C21*%
X168374000Y-107950000D03*
X167414000Y-107950000D03*
%TD*%
D10*
%TO.C,JP1*%
X90170000Y-127635000D03*
D11*
X90170000Y-125095000D03*
X90170000Y-122555000D03*
%TD*%
D27*
%TO.C,C23*%
X169545000Y-107795000D03*
X169545000Y-106835000D03*
%TD*%
D28*
%TO.C,TB4*%
X211836000Y-141224000D03*
D29*
X211836000Y-136224000D03*
%TD*%
D30*
%TO.C,C12*%
X118872000Y-132416000D03*
X118872000Y-123616000D03*
%TD*%
D31*
%TO.C,U5*%
X159653000Y-104775000D03*
X159653000Y-106045000D03*
X159653000Y-107315000D03*
X159653000Y-108585000D03*
X165213000Y-108585000D03*
X165213000Y-107315000D03*
X165213000Y-106045000D03*
X165213000Y-104775000D03*
D32*
X163035500Y-105905000D03*
X161830500Y-105905000D03*
X161830500Y-107455000D03*
X163035500Y-107455000D03*
%TD*%
D30*
%TO.C,C22*%
X159512000Y-132416000D03*
X159512000Y-123616000D03*
%TD*%
D10*
%TO.C,J20*%
X170942000Y-137160000D03*
D11*
X170942000Y-139700000D03*
X170942000Y-142240000D03*
X170942000Y-144780000D03*
X170942000Y-147320000D03*
X170942000Y-149860000D03*
X170942000Y-152400000D03*
X170942000Y-154940000D03*
%TD*%
D10*
%TO.C,J23*%
X212217000Y-149875000D03*
D11*
X212217000Y-152415000D03*
X212217000Y-154955000D03*
%TD*%
D33*
%TO.C,D1*%
X131858000Y-97028000D03*
X135858000Y-97028000D03*
%TD*%
D34*
%TO.C,R10*%
X157376500Y-90424000D03*
X155551500Y-90424000D03*
%TD*%
D35*
%TO.C,D2*%
X165960000Y-99441000D03*
X159160000Y-99441000D03*
%TD*%
D36*
%TO.C,R8*%
X121668000Y-93726000D03*
X120648000Y-93726000D03*
%TD*%
D37*
%TO.C,J11*%
X106680000Y-54356000D03*
D38*
X106680000Y-56896000D03*
X104140000Y-54356000D03*
X104140000Y-56896000D03*
X101600000Y-54356000D03*
X101600000Y-56896000D03*
X99060000Y-54356000D03*
X99060000Y-56896000D03*
X96520000Y-54356000D03*
X96520000Y-56896000D03*
%TD*%
D39*
%TO.C,C20*%
X149600000Y-100838000D03*
X155200000Y-100838000D03*
%TD*%
D10*
%TO.C,J21*%
X183642000Y-137160000D03*
D11*
X183642000Y-139700000D03*
X183642000Y-142240000D03*
X183642000Y-144780000D03*
X183642000Y-147320000D03*
X183642000Y-149860000D03*
X183642000Y-152400000D03*
X183642000Y-154940000D03*
%TD*%
D40*
%TO.C,C17*%
X155006000Y-107950000D03*
X156906000Y-107950000D03*
%TD*%
D10*
%TO.C,J4*%
X128270000Y-85090000D03*
D11*
X125730000Y-85090000D03*
X123190000Y-85090000D03*
X120650000Y-85090000D03*
X118110000Y-85090000D03*
X115570000Y-85090000D03*
X113030000Y-85090000D03*
X110490000Y-85090000D03*
X107950000Y-85090000D03*
X105410000Y-85090000D03*
X102870000Y-85090000D03*
X100330000Y-85090000D03*
X97790000Y-85090000D03*
X95250000Y-85090000D03*
X92710000Y-85090000D03*
X90170000Y-85090000D03*
X87630000Y-85090000D03*
X85090000Y-85090000D03*
X82550000Y-85090000D03*
%TD*%
D10*
%TO.C,J14*%
X143510000Y-137160000D03*
D11*
X143510000Y-139700000D03*
X143510000Y-142240000D03*
X143510000Y-144780000D03*
X143510000Y-147320000D03*
X143510000Y-149860000D03*
X143510000Y-152400000D03*
X143510000Y-154940000D03*
%TD*%
D10*
%TO.C,J28*%
X203708000Y-137160000D03*
D11*
X203708000Y-139700000D03*
X203708000Y-142240000D03*
X203708000Y-144780000D03*
X203708000Y-147320000D03*
X203708000Y-149860000D03*
X203708000Y-152400000D03*
X203708000Y-154940000D03*
%TD*%
D28*
%TO.C,TB8*%
X211836000Y-124968000D03*
D29*
X211836000Y-119968000D03*
%TD*%
D41*
%TO.C,C8*%
X131606112Y-84872500D03*
X131606112Y-87847500D03*
%TD*%
D40*
%TO.C,C16*%
X155006000Y-105918000D03*
X156906000Y-105918000D03*
%TD*%
D36*
%TO.C,R3*%
X160657000Y-109982000D03*
X159637000Y-109982000D03*
%TD*%
D24*
%TO.C,MH3*%
X85090000Y-40640000D03*
D25*
X85090000Y-40640000D03*
%TD*%
D20*
%TO.C,C11*%
X190559500Y-116332000D03*
X189424500Y-116332000D03*
%TD*%
D23*
%TO.C,MOD1*%
X86530000Y-49486000D03*
D10*
X113030000Y-78486000D03*
D11*
X110490000Y-78486000D03*
X107950000Y-78486000D03*
X105410000Y-78486000D03*
X102870000Y-78486000D03*
X100330000Y-78486000D03*
X97790000Y-78486000D03*
X95250000Y-78486000D03*
X92710000Y-78486000D03*
X90170000Y-78486000D03*
X87630000Y-78486000D03*
X85090000Y-78486000D03*
%TD*%
D10*
%TO.C,J5*%
X128270000Y-87630000D03*
D11*
X125730000Y-87630000D03*
X123190000Y-87630000D03*
X120650000Y-87630000D03*
X118110000Y-87630000D03*
X115570000Y-87630000D03*
X113030000Y-87630000D03*
X110490000Y-87630000D03*
X107950000Y-87630000D03*
X105410000Y-87630000D03*
X102870000Y-87630000D03*
X100330000Y-87630000D03*
X97790000Y-87630000D03*
X95250000Y-87630000D03*
X92710000Y-87630000D03*
X90170000Y-87630000D03*
X87630000Y-87630000D03*
X85090000Y-87630000D03*
X82550000Y-87630000D03*
%TD*%
D10*
%TO.C,J17*%
X163576000Y-137160000D03*
D11*
X163576000Y-139700000D03*
X163576000Y-142240000D03*
X163576000Y-144780000D03*
X163576000Y-147320000D03*
X163576000Y-149860000D03*
X163576000Y-152400000D03*
X163576000Y-154940000D03*
%TD*%
D36*
%TO.C,R2*%
X164213000Y-109982000D03*
X163193000Y-109982000D03*
%TD*%
D10*
%TO.C,J7*%
X128270000Y-110490000D03*
D11*
X125730000Y-110490000D03*
X123190000Y-110490000D03*
X120650000Y-110490000D03*
X118110000Y-110490000D03*
X115570000Y-110490000D03*
X113030000Y-110490000D03*
X110490000Y-110490000D03*
X107950000Y-110490000D03*
X105410000Y-110490000D03*
X102870000Y-110490000D03*
X100330000Y-110490000D03*
X97790000Y-110490000D03*
X95250000Y-110490000D03*
X92710000Y-110490000D03*
X90170000Y-110490000D03*
X87630000Y-110490000D03*
X85090000Y-110490000D03*
X82550000Y-110490000D03*
%TD*%
D36*
%TO.C,R7*%
X119128000Y-93726000D03*
X118108000Y-93726000D03*
%TD*%
%TO.C,R9*%
X124208000Y-93726000D03*
X123188000Y-93726000D03*
%TD*%
D30*
%TO.C,C24*%
X179832000Y-132416000D03*
X179832000Y-123616000D03*
%TD*%
D14*
%TO.C,C2*%
X108144500Y-128397000D03*
X109279500Y-128397000D03*
%TD*%
D10*
%TO.C,JP4*%
X87632366Y-127635000D03*
D11*
X87632366Y-125095000D03*
X87632366Y-122555000D03*
%TD*%
D10*
%TO.C,J12*%
X135890000Y-137160000D03*
D11*
X133350000Y-137160000D03*
%TD*%
D10*
%TO.C,J3*%
X103378000Y-137160000D03*
D11*
X103378000Y-139700000D03*
X103378000Y-142240000D03*
X103378000Y-144780000D03*
X103378000Y-147320000D03*
X103378000Y-149860000D03*
X103378000Y-152400000D03*
X103378000Y-154940000D03*
%TD*%
D42*
%TO.C,C18*%
X155194000Y-95946000D03*
X155194000Y-94046000D03*
%TD*%
D25*
%TO.C,MH1*%
X212090000Y-167640000D03*
D24*
X212090000Y-167640000D03*
%TD*%
D22*
%TO.C,U2*%
X146877000Y-117983000D03*
X146877000Y-119253000D03*
X146877000Y-120523000D03*
X146877000Y-121793000D03*
X146877000Y-123063000D03*
X146877000Y-124333000D03*
X146877000Y-125603000D03*
X146877000Y-126873000D03*
X151827000Y-126873000D03*
X151827000Y-125603000D03*
X151827000Y-124333000D03*
X151827000Y-123063000D03*
X151827000Y-121793000D03*
X151827000Y-120523000D03*
X151827000Y-119253000D03*
X151827000Y-117983000D03*
%TD*%
D43*
%TO.C,LED1*%
X157426500Y-88392000D03*
X155501500Y-88392000D03*
%TD*%
D10*
%TO.C,J15*%
X155956000Y-137160000D03*
D11*
X153416000Y-137160000D03*
%TD*%
D14*
%TO.C,C13*%
X192853500Y-96266000D03*
X193988500Y-96266000D03*
%TD*%
D24*
%TO.C,MH4*%
X85090000Y-167640000D03*
D25*
X85090000Y-167640000D03*
%TD*%
D30*
%TO.C,C25*%
X200152000Y-132416000D03*
X200152000Y-123616000D03*
%TD*%
D36*
%TO.C,R4*%
X168404000Y-106807000D03*
X167384000Y-106807000D03*
%TD*%
D23*
%TO.C,MOD5*%
X202992366Y-86530000D03*
D10*
X173992366Y-113030000D03*
D11*
X173992366Y-110490000D03*
X173992366Y-107950000D03*
X173992366Y-105410000D03*
X173992366Y-102870000D03*
X173992366Y-100330000D03*
X173992366Y-97790000D03*
X173992366Y-95250000D03*
X173992366Y-92710000D03*
X173992366Y-90170000D03*
X173992366Y-87630000D03*
X173992366Y-85090000D03*
%TD*%
D10*
%TO.C,J22*%
X139969000Y-100838000D03*
D11*
X142509000Y-100838000D03*
X145049000Y-100838000D03*
%TD*%
D12*
%TO.C,TB2*%
X112014000Y-163830000D03*
D13*
X115514000Y-163830000D03*
X119014000Y-163830000D03*
X122514000Y-163830000D03*
%TD*%
D10*
%TO.C,J8*%
X115824000Y-137160000D03*
D11*
X113284000Y-137160000D03*
%TD*%
D14*
%TO.C,C6*%
X189424500Y-128524000D03*
X190559500Y-128524000D03*
%TD*%
D10*
%TO.C,J16*%
X150876000Y-137160000D03*
D11*
X150876000Y-139700000D03*
X150876000Y-142240000D03*
X150876000Y-144780000D03*
X150876000Y-147320000D03*
X150876000Y-149860000D03*
X150876000Y-152400000D03*
X150876000Y-154940000D03*
%TD*%
D12*
%TO.C,TB1*%
X91948000Y-163830000D03*
D13*
X95448000Y-163830000D03*
X98948000Y-163830000D03*
X102448000Y-163830000D03*
%TD*%
D44*
%TO.C,R1*%
X123823000Y-108077000D03*
X124843000Y-108077000D03*
%TD*%
D10*
%TO.C,J25*%
X202946000Y-60706000D03*
D11*
X205486000Y-60706000D03*
X202946000Y-58166000D03*
X205486000Y-58166000D03*
X202946000Y-55626000D03*
X205486000Y-55626000D03*
X202946000Y-53086000D03*
X205486000Y-53086000D03*
X202946000Y-50546000D03*
X205486000Y-50546000D03*
X202946000Y-48006000D03*
X205486000Y-48006000D03*
%TD*%
D10*
%TO.C,J10*%
X123444000Y-137160000D03*
D11*
X123444000Y-139700000D03*
X123444000Y-142240000D03*
X123444000Y-144780000D03*
X123444000Y-147320000D03*
X123444000Y-149860000D03*
X123444000Y-152400000D03*
X123444000Y-154940000D03*
%TD*%
D36*
%TO.C,R6*%
X116588000Y-93726000D03*
X115568000Y-93726000D03*
%TD*%
D14*
%TO.C,C3*%
X189678500Y-108712000D03*
X190813500Y-108712000D03*
%TD*%
D42*
%TO.C,C19*%
X157353000Y-95946000D03*
X157353000Y-94046000D03*
%TD*%
D10*
%TO.C,JP3*%
X84328000Y-157988000D03*
D11*
X84328000Y-155448000D03*
X84328000Y-152908000D03*
%TD*%
D10*
%TO.C,JP2*%
X85090000Y-127635000D03*
D11*
X85090000Y-125095000D03*
X85090000Y-122555000D03*
%TD*%
D10*
%TO.C,J27*%
X191008000Y-137160000D03*
D11*
X191008000Y-139700000D03*
X191008000Y-142240000D03*
X191008000Y-144780000D03*
X191008000Y-147320000D03*
X191008000Y-149860000D03*
X191008000Y-152400000D03*
X191008000Y-154940000D03*
%TD*%
D30*
%TO.C,C10*%
X98552000Y-132416000D03*
X98552000Y-123616000D03*
%TD*%
D22*
%TO.C,U4*%
X187263000Y-98425000D03*
X187263000Y-99695000D03*
X187263000Y-100965000D03*
X187263000Y-102235000D03*
X187263000Y-103505000D03*
X187263000Y-104775000D03*
X187263000Y-106045000D03*
X187263000Y-107315000D03*
X192213000Y-107315000D03*
X192213000Y-106045000D03*
X192213000Y-104775000D03*
X192213000Y-103505000D03*
X192213000Y-102235000D03*
X192213000Y-100965000D03*
X192213000Y-99695000D03*
X192213000Y-98425000D03*
%TD*%
D10*
%TO.C,J19*%
X176022000Y-137160000D03*
D11*
X173482000Y-137160000D03*
%TD*%
D10*
%TO.C,J26*%
X196088000Y-137160000D03*
D11*
X193548000Y-137160000D03*
%TD*%
D25*
%TO.C,MH5*%
X167640000Y-85090000D03*
D24*
X167640000Y-85090000D03*
%TD*%
D36*
%TO.C,R5*%
X166372000Y-109982000D03*
X165352000Y-109982000D03*
%TD*%
D30*
%TO.C,C14*%
X139192000Y-132416000D03*
X139192000Y-123616000D03*
%TD*%
D10*
%TO.C,J6*%
X128270000Y-113030000D03*
D11*
X125730000Y-113030000D03*
X123190000Y-113030000D03*
X120650000Y-113030000D03*
X118110000Y-113030000D03*
X115570000Y-113030000D03*
X113030000Y-113030000D03*
X110490000Y-113030000D03*
X107950000Y-113030000D03*
X105410000Y-113030000D03*
X102870000Y-113030000D03*
X100330000Y-113030000D03*
X97790000Y-113030000D03*
X95250000Y-113030000D03*
X92710000Y-113030000D03*
X90170000Y-113030000D03*
X87630000Y-113030000D03*
X85090000Y-113030000D03*
X82550000Y-113030000D03*
%TD*%
D23*
%TO.C,MOD2*%
X119550000Y-49486000D03*
D10*
X146050000Y-78486000D03*
D11*
X143510000Y-78486000D03*
X140970000Y-78486000D03*
X138430000Y-78486000D03*
X135890000Y-78486000D03*
X133350000Y-78486000D03*
X130810000Y-78486000D03*
X128270000Y-78486000D03*
X125730000Y-78486000D03*
X123190000Y-78486000D03*
X120650000Y-78486000D03*
X118110000Y-78486000D03*
%TD*%
D14*
%TO.C,C4*%
X148784500Y-128524000D03*
X149919500Y-128524000D03*
%TD*%
D45*
%TO.C,L1*%
X164610000Y-93091000D03*
X160510000Y-93091000D03*
%TD*%
D14*
%TO.C,C7*%
X149665500Y-115062000D03*
X148530500Y-115062000D03*
%TD*%
D20*
%TO.C,C9*%
X149665500Y-116332000D03*
X148530500Y-116332000D03*
%TD*%
M02*
