%TF.GenerationSoftware,KiCad,Pcbnew,(5.99.0-13025-gf345eacf13)*%
%TF.CreationDate,2021-10-31T04:57:43-07:00*%
%TF.ProjectId,6_axis_I2S_v1p8s,365f6178-6973-45f4-9932-535f76317038,rev?*%
%TF.SameCoordinates,Original*%
%TF.FileFunction,Soldermask,Bot*%
%TF.FilePolarity,Negative*%
%FSLAX46Y46*%
G04 Gerber Fmt 4.6, Leading zero omitted, Abs format (unit mm)*
G04 Created by KiCad (PCBNEW (5.99.0-13025-gf345eacf13)) date 2021-10-31 04:57:43*
%MOMM*%
%LPD*%
G01*
G04 APERTURE LIST*
G04 Aperture macros list*
%AMRoundRect*
0 Rectangle with rounded corners*
0 $1 Rounding radius*
0 $2 $3 $4 $5 $6 $7 $8 $9 X,Y pos of 4 corners*
0 Add a 4 corners polygon primitive as box body*
4,1,4,$2,$3,$4,$5,$6,$7,$8,$9,$2,$3,0*
0 Add four circle primitives for the rounded corners*
1,1,$1+$1,$2,$3*
1,1,$1+$1,$4,$5*
1,1,$1+$1,$6,$7*
1,1,$1+$1,$8,$9*
0 Add four rect primitives between the rounded corners*
20,1,$1+$1,$2,$3,$4,$5,0*
20,1,$1+$1,$4,$5,$6,$7,0*
20,1,$1+$1,$6,$7,$8,$9,0*
20,1,$1+$1,$8,$9,$2,$3,0*%
G04 Aperture macros list end*
%ADD10R,1.700000X1.700000*%
%ADD11O,1.700000X1.700000*%
%ADD12R,2.400000X2.400000*%
%ADD13C,2.400000*%
%ADD14C,1.000000*%
%ADD15C,3.500000*%
%ADD16C,3.900000*%
%ADD17C,6.000000*%
%ADD18R,2.600000X2.600000*%
%ADD19C,2.600000*%
%ADD20RoundRect,0.250000X-0.600000X0.600000X-0.600000X-0.600000X0.600000X-0.600000X0.600000X0.600000X0*%
%ADD21C,1.700000*%
G04 APERTURE END LIST*
D10*
%TO.C,J18*%
X110744000Y-99187000D03*
D11*
X110744000Y-96647000D03*
X113284000Y-99187000D03*
X113284000Y-96647000D03*
X115824000Y-99187000D03*
X115824000Y-96647000D03*
X118364000Y-99187000D03*
X118364000Y-96647000D03*
X120904000Y-99187000D03*
X120904000Y-96647000D03*
X123444000Y-99187000D03*
X123444000Y-96647000D03*
%TD*%
D12*
%TO.C,TB3*%
X131910000Y-163830000D03*
D13*
X135410000Y-163830000D03*
X138910000Y-163830000D03*
X142410000Y-163830000D03*
%TD*%
D12*
%TO.C,TB6*%
X172212000Y-163830000D03*
D13*
X175712000Y-163830000D03*
X179212000Y-163830000D03*
X182712000Y-163830000D03*
%TD*%
D10*
%TO.C,J9*%
X110744000Y-137160000D03*
D11*
X110744000Y-139700000D03*
X110744000Y-142240000D03*
X110744000Y-144780000D03*
X110744000Y-147320000D03*
X110744000Y-149860000D03*
X110744000Y-152400000D03*
X110744000Y-154940000D03*
%TD*%
D14*
%TO.C,SD1*%
X85364000Y-102027000D03*
X85364000Y-94027000D03*
%TD*%
D10*
%TO.C,J13*%
X130810000Y-137160000D03*
D11*
X130810000Y-139700000D03*
X130810000Y-142240000D03*
X130810000Y-144780000D03*
X130810000Y-147320000D03*
X130810000Y-149860000D03*
X130810000Y-152400000D03*
X130810000Y-154940000D03*
%TD*%
D10*
%TO.C,J24*%
X84074000Y-132857000D03*
D11*
X84074000Y-135397000D03*
X84074000Y-137937000D03*
%TD*%
D12*
%TO.C,TB5*%
X152146000Y-163830000D03*
D13*
X155646000Y-163830000D03*
X159146000Y-163830000D03*
X162646000Y-163830000D03*
%TD*%
D15*
%TO.C,MOD3*%
X152570000Y-49486000D03*
D10*
X179070000Y-78486000D03*
D11*
X176530000Y-78486000D03*
X173990000Y-78486000D03*
X171450000Y-78486000D03*
X168910000Y-78486000D03*
X166370000Y-78486000D03*
X163830000Y-78486000D03*
X161290000Y-78486000D03*
X158750000Y-78486000D03*
X156210000Y-78486000D03*
X153670000Y-78486000D03*
X151130000Y-78486000D03*
%TD*%
D10*
%TO.C,J1*%
X95758000Y-137160000D03*
D11*
X93218000Y-137160000D03*
%TD*%
D10*
%TO.C,J2*%
X90678000Y-137160000D03*
D11*
X90678000Y-139700000D03*
X90678000Y-142240000D03*
X90678000Y-144780000D03*
X90678000Y-147320000D03*
X90678000Y-149860000D03*
X90678000Y-152400000D03*
X90678000Y-154940000D03*
%TD*%
D12*
%TO.C,TB7*%
X192278000Y-163830000D03*
D13*
X195778000Y-163830000D03*
X199278000Y-163830000D03*
X202778000Y-163830000D03*
%TD*%
D16*
%TO.C,MH2*%
X212090000Y-40640000D03*
D17*
X212090000Y-40640000D03*
%TD*%
%TO.C,MH6*%
X211782500Y-66426066D03*
D16*
X211782500Y-66426066D03*
%TD*%
D15*
%TO.C,MOD4*%
X185590000Y-49486000D03*
D10*
X212090000Y-78486000D03*
D11*
X209550000Y-78486000D03*
X207010000Y-78486000D03*
X204470000Y-78486000D03*
X201930000Y-78486000D03*
X199390000Y-78486000D03*
X196850000Y-78486000D03*
X194310000Y-78486000D03*
X191770000Y-78486000D03*
X189230000Y-78486000D03*
X186690000Y-78486000D03*
X184150000Y-78486000D03*
%TD*%
D10*
%TO.C,JP1*%
X90170000Y-127635000D03*
D11*
X90170000Y-125095000D03*
X90170000Y-122555000D03*
%TD*%
D18*
%TO.C,TB4*%
X211836000Y-141224000D03*
D19*
X211836000Y-136224000D03*
%TD*%
D10*
%TO.C,J20*%
X170942000Y-137160000D03*
D11*
X170942000Y-139700000D03*
X170942000Y-142240000D03*
X170942000Y-144780000D03*
X170942000Y-147320000D03*
X170942000Y-149860000D03*
X170942000Y-152400000D03*
X170942000Y-154940000D03*
%TD*%
D10*
%TO.C,J23*%
X212217000Y-149875000D03*
D11*
X212217000Y-152415000D03*
X212217000Y-154955000D03*
%TD*%
D20*
%TO.C,J11*%
X106680000Y-54356000D03*
D21*
X106680000Y-56896000D03*
X104140000Y-54356000D03*
X104140000Y-56896000D03*
X101600000Y-54356000D03*
X101600000Y-56896000D03*
X99060000Y-54356000D03*
X99060000Y-56896000D03*
X96520000Y-54356000D03*
X96520000Y-56896000D03*
%TD*%
D10*
%TO.C,J21*%
X183642000Y-137160000D03*
D11*
X183642000Y-139700000D03*
X183642000Y-142240000D03*
X183642000Y-144780000D03*
X183642000Y-147320000D03*
X183642000Y-149860000D03*
X183642000Y-152400000D03*
X183642000Y-154940000D03*
%TD*%
D10*
%TO.C,J4*%
X128270000Y-85090000D03*
D11*
X125730000Y-85090000D03*
X123190000Y-85090000D03*
X120650000Y-85090000D03*
X118110000Y-85090000D03*
X115570000Y-85090000D03*
X113030000Y-85090000D03*
X110490000Y-85090000D03*
X107950000Y-85090000D03*
X105410000Y-85090000D03*
X102870000Y-85090000D03*
X100330000Y-85090000D03*
X97790000Y-85090000D03*
X95250000Y-85090000D03*
X92710000Y-85090000D03*
X90170000Y-85090000D03*
X87630000Y-85090000D03*
X85090000Y-85090000D03*
X82550000Y-85090000D03*
%TD*%
D10*
%TO.C,J14*%
X143510000Y-137160000D03*
D11*
X143510000Y-139700000D03*
X143510000Y-142240000D03*
X143510000Y-144780000D03*
X143510000Y-147320000D03*
X143510000Y-149860000D03*
X143510000Y-152400000D03*
X143510000Y-154940000D03*
%TD*%
D10*
%TO.C,J28*%
X203708000Y-137160000D03*
D11*
X203708000Y-139700000D03*
X203708000Y-142240000D03*
X203708000Y-144780000D03*
X203708000Y-147320000D03*
X203708000Y-149860000D03*
X203708000Y-152400000D03*
X203708000Y-154940000D03*
%TD*%
D18*
%TO.C,TB8*%
X211836000Y-124968000D03*
D19*
X211836000Y-119968000D03*
%TD*%
D16*
%TO.C,MH3*%
X85090000Y-40640000D03*
D17*
X85090000Y-40640000D03*
%TD*%
D15*
%TO.C,MOD1*%
X86530000Y-49486000D03*
D10*
X113030000Y-78486000D03*
D11*
X110490000Y-78486000D03*
X107950000Y-78486000D03*
X105410000Y-78486000D03*
X102870000Y-78486000D03*
X100330000Y-78486000D03*
X97790000Y-78486000D03*
X95250000Y-78486000D03*
X92710000Y-78486000D03*
X90170000Y-78486000D03*
X87630000Y-78486000D03*
X85090000Y-78486000D03*
%TD*%
D10*
%TO.C,J5*%
X128270000Y-87630000D03*
D11*
X125730000Y-87630000D03*
X123190000Y-87630000D03*
X120650000Y-87630000D03*
X118110000Y-87630000D03*
X115570000Y-87630000D03*
X113030000Y-87630000D03*
X110490000Y-87630000D03*
X107950000Y-87630000D03*
X105410000Y-87630000D03*
X102870000Y-87630000D03*
X100330000Y-87630000D03*
X97790000Y-87630000D03*
X95250000Y-87630000D03*
X92710000Y-87630000D03*
X90170000Y-87630000D03*
X87630000Y-87630000D03*
X85090000Y-87630000D03*
X82550000Y-87630000D03*
%TD*%
D10*
%TO.C,J17*%
X163576000Y-137160000D03*
D11*
X163576000Y-139700000D03*
X163576000Y-142240000D03*
X163576000Y-144780000D03*
X163576000Y-147320000D03*
X163576000Y-149860000D03*
X163576000Y-152400000D03*
X163576000Y-154940000D03*
%TD*%
D10*
%TO.C,J7*%
X128270000Y-110490000D03*
D11*
X125730000Y-110490000D03*
X123190000Y-110490000D03*
X120650000Y-110490000D03*
X118110000Y-110490000D03*
X115570000Y-110490000D03*
X113030000Y-110490000D03*
X110490000Y-110490000D03*
X107950000Y-110490000D03*
X105410000Y-110490000D03*
X102870000Y-110490000D03*
X100330000Y-110490000D03*
X97790000Y-110490000D03*
X95250000Y-110490000D03*
X92710000Y-110490000D03*
X90170000Y-110490000D03*
X87630000Y-110490000D03*
X85090000Y-110490000D03*
X82550000Y-110490000D03*
%TD*%
D10*
%TO.C,JP4*%
X87632366Y-127635000D03*
D11*
X87632366Y-125095000D03*
X87632366Y-122555000D03*
%TD*%
D10*
%TO.C,J12*%
X135890000Y-137160000D03*
D11*
X133350000Y-137160000D03*
%TD*%
D10*
%TO.C,J3*%
X103378000Y-137160000D03*
D11*
X103378000Y-139700000D03*
X103378000Y-142240000D03*
X103378000Y-144780000D03*
X103378000Y-147320000D03*
X103378000Y-149860000D03*
X103378000Y-152400000D03*
X103378000Y-154940000D03*
%TD*%
D16*
%TO.C,MH1*%
X212090000Y-167640000D03*
D17*
X212090000Y-167640000D03*
%TD*%
D10*
%TO.C,J15*%
X155956000Y-137160000D03*
D11*
X153416000Y-137160000D03*
%TD*%
D17*
%TO.C,MH4*%
X85090000Y-167640000D03*
D16*
X85090000Y-167640000D03*
%TD*%
D15*
%TO.C,MOD5*%
X202992366Y-86530000D03*
D10*
X173992366Y-113030000D03*
D11*
X173992366Y-110490000D03*
X173992366Y-107950000D03*
X173992366Y-105410000D03*
X173992366Y-102870000D03*
X173992366Y-100330000D03*
X173992366Y-97790000D03*
X173992366Y-95250000D03*
X173992366Y-92710000D03*
X173992366Y-90170000D03*
X173992366Y-87630000D03*
X173992366Y-85090000D03*
%TD*%
D10*
%TO.C,J22*%
X139969000Y-100838000D03*
D11*
X142509000Y-100838000D03*
X145049000Y-100838000D03*
%TD*%
D12*
%TO.C,TB2*%
X112014000Y-163830000D03*
D13*
X115514000Y-163830000D03*
X119014000Y-163830000D03*
X122514000Y-163830000D03*
%TD*%
D10*
%TO.C,J8*%
X115824000Y-137160000D03*
D11*
X113284000Y-137160000D03*
%TD*%
D10*
%TO.C,J16*%
X150876000Y-137160000D03*
D11*
X150876000Y-139700000D03*
X150876000Y-142240000D03*
X150876000Y-144780000D03*
X150876000Y-147320000D03*
X150876000Y-149860000D03*
X150876000Y-152400000D03*
X150876000Y-154940000D03*
%TD*%
D12*
%TO.C,TB1*%
X91948000Y-163830000D03*
D13*
X95448000Y-163830000D03*
X98948000Y-163830000D03*
X102448000Y-163830000D03*
%TD*%
D10*
%TO.C,J25*%
X202946000Y-60706000D03*
D11*
X205486000Y-60706000D03*
X202946000Y-58166000D03*
X205486000Y-58166000D03*
X202946000Y-55626000D03*
X205486000Y-55626000D03*
X202946000Y-53086000D03*
X205486000Y-53086000D03*
X202946000Y-50546000D03*
X205486000Y-50546000D03*
X202946000Y-48006000D03*
X205486000Y-48006000D03*
%TD*%
D10*
%TO.C,J10*%
X123444000Y-137160000D03*
D11*
X123444000Y-139700000D03*
X123444000Y-142240000D03*
X123444000Y-144780000D03*
X123444000Y-147320000D03*
X123444000Y-149860000D03*
X123444000Y-152400000D03*
X123444000Y-154940000D03*
%TD*%
D10*
%TO.C,JP3*%
X84328000Y-157988000D03*
D11*
X84328000Y-155448000D03*
X84328000Y-152908000D03*
%TD*%
D10*
%TO.C,JP2*%
X85090000Y-127635000D03*
D11*
X85090000Y-125095000D03*
X85090000Y-122555000D03*
%TD*%
D10*
%TO.C,J27*%
X191008000Y-137160000D03*
D11*
X191008000Y-139700000D03*
X191008000Y-142240000D03*
X191008000Y-144780000D03*
X191008000Y-147320000D03*
X191008000Y-149860000D03*
X191008000Y-152400000D03*
X191008000Y-154940000D03*
%TD*%
D10*
%TO.C,J19*%
X176022000Y-137160000D03*
D11*
X173482000Y-137160000D03*
%TD*%
D10*
%TO.C,J26*%
X196088000Y-137160000D03*
D11*
X193548000Y-137160000D03*
%TD*%
D16*
%TO.C,MH5*%
X167640000Y-85090000D03*
D17*
X167640000Y-85090000D03*
%TD*%
D10*
%TO.C,J6*%
X128270000Y-113030000D03*
D11*
X125730000Y-113030000D03*
X123190000Y-113030000D03*
X120650000Y-113030000D03*
X118110000Y-113030000D03*
X115570000Y-113030000D03*
X113030000Y-113030000D03*
X110490000Y-113030000D03*
X107950000Y-113030000D03*
X105410000Y-113030000D03*
X102870000Y-113030000D03*
X100330000Y-113030000D03*
X97790000Y-113030000D03*
X95250000Y-113030000D03*
X92710000Y-113030000D03*
X90170000Y-113030000D03*
X87630000Y-113030000D03*
X85090000Y-113030000D03*
X82550000Y-113030000D03*
%TD*%
D15*
%TO.C,MOD2*%
X119550000Y-49486000D03*
D10*
X146050000Y-78486000D03*
D11*
X143510000Y-78486000D03*
X140970000Y-78486000D03*
X138430000Y-78486000D03*
X135890000Y-78486000D03*
X133350000Y-78486000D03*
X130810000Y-78486000D03*
X128270000Y-78486000D03*
X125730000Y-78486000D03*
X123190000Y-78486000D03*
X120650000Y-78486000D03*
X118110000Y-78486000D03*
%TD*%
M02*
