%TF.GenerationSoftware,KiCad,Pcbnew,(5.99.0-13025-gf345eacf13)*%
%TF.CreationDate,2021-10-31T04:57:43-07:00*%
%TF.ProjectId,6_axis_I2S_v1p8s,365f6178-6973-45f4-9932-535f76317038,rev?*%
%TF.SameCoordinates,Original*%
%TF.FileFunction,Paste,Top*%
%TF.FilePolarity,Positive*%
%FSLAX46Y46*%
G04 Gerber Fmt 4.6, Leading zero omitted, Abs format (unit mm)*
G04 Created by KiCad (PCBNEW (5.99.0-13025-gf345eacf13)) date 2021-10-31 04:57:43*
%MOMM*%
%LPD*%
G01*
G04 APERTURE LIST*
G04 Aperture macros list*
%AMRoundRect*
0 Rectangle with rounded corners*
0 $1 Rounding radius*
0 $2 $3 $4 $5 $6 $7 $8 $9 X,Y pos of 4 corners*
0 Add a 4 corners polygon primitive as box body*
4,1,4,$2,$3,$4,$5,$6,$7,$8,$9,$2,$3,0*
0 Add four circle primitives for the rounded corners*
1,1,$1+$1,$2,$3*
1,1,$1+$1,$4,$5*
1,1,$1+$1,$6,$7*
1,1,$1+$1,$8,$9*
0 Add four rect primitives between the rounded corners*
20,1,$1+$1,$2,$3,$4,$5,0*
20,1,$1+$1,$4,$5,$6,$7,0*
20,1,$1+$1,$6,$7,$8,$9,0*
20,1,$1+$1,$8,$9,$2,$3,0*%
G04 Aperture macros list end*
%ADD10RoundRect,0.155000X-0.212500X-0.155000X0.212500X-0.155000X0.212500X0.155000X-0.212500X0.155000X0*%
%ADD11R,1.300000X0.685800*%
%ADD12R,2.000000X1.200000*%
%ADD13R,1.400000X1.200000*%
%ADD14R,1.400000X1.193800*%
%ADD15RoundRect,0.155000X0.212500X0.155000X-0.212500X0.155000X-0.212500X-0.155000X0.212500X-0.155000X0*%
%ADD16RoundRect,0.155000X-0.155000X0.212500X-0.155000X-0.212500X0.155000X-0.212500X0.155000X0.212500X0*%
%ADD17RoundRect,0.150000X-0.825000X-0.150000X0.825000X-0.150000X0.825000X0.150000X-0.825000X0.150000X0*%
%ADD18RoundRect,0.140000X0.140000X0.170000X-0.140000X0.170000X-0.140000X-0.170000X0.140000X-0.170000X0*%
%ADD19RoundRect,0.140000X0.170000X-0.140000X0.170000X0.140000X-0.170000X0.140000X-0.170000X-0.140000X0*%
%ADD20RoundRect,0.250001X0.799999X-2.049999X0.799999X2.049999X-0.799999X2.049999X-0.799999X-2.049999X0*%
%ADD21R,1.910000X0.610000*%
%ADD22R,0.723000X0.930000*%
%ADD23R,2.500000X1.800000*%
%ADD24RoundRect,0.237500X0.250000X0.237500X-0.250000X0.237500X-0.250000X-0.237500X0.250000X-0.237500X0*%
%ADD25R,2.500000X3.300000*%
%ADD26RoundRect,0.135000X0.135000X0.185000X-0.135000X0.185000X-0.135000X-0.185000X0.135000X-0.185000X0*%
%ADD27RoundRect,0.250000X-1.500000X-0.550000X1.500000X-0.550000X1.500000X0.550000X-1.500000X0.550000X0*%
%ADD28RoundRect,0.250000X-0.250000X-0.475000X0.250000X-0.475000X0.250000X0.475000X-0.250000X0.475000X0*%
%ADD29RoundRect,0.250001X-0.624999X0.462499X-0.624999X-0.462499X0.624999X-0.462499X0.624999X0.462499X0*%
%ADD30RoundRect,0.250000X0.475000X-0.250000X0.475000X0.250000X-0.475000X0.250000X-0.475000X-0.250000X0*%
%ADD31RoundRect,0.250000X0.412500X0.400000X-0.412500X0.400000X-0.412500X-0.400000X0.412500X-0.400000X0*%
%ADD32RoundRect,0.135000X-0.135000X-0.185000X0.135000X-0.185000X0.135000X0.185000X-0.135000X0.185000X0*%
%ADD33R,1.900000X2.500000*%
G04 APERTURE END LIST*
D10*
%TO.C,C15*%
X161865500Y-103378000D03*
X163000500Y-103378000D03*
%TD*%
D11*
%TO.C,SD1*%
X96204000Y-101227000D03*
X96204000Y-100127000D03*
X96204000Y-99027000D03*
X96204000Y-97927000D03*
X96204000Y-96827000D03*
X96204000Y-95727000D03*
X96204000Y-94627000D03*
X96204000Y-93527000D03*
X96204000Y-92427000D03*
D12*
X85654000Y-106947000D03*
D13*
X95354000Y-106107000D03*
D14*
X95354000Y-91217000D03*
D12*
X85654000Y-91217000D03*
%TD*%
D15*
%TO.C,C1*%
X109279500Y-116332000D03*
X108144500Y-116332000D03*
%TD*%
D16*
%TO.C,C5*%
X86868000Y-148022500D03*
X86868000Y-149157500D03*
%TD*%
D17*
%TO.C,U1*%
X106237000Y-117983000D03*
X106237000Y-119253000D03*
X106237000Y-120523000D03*
X106237000Y-121793000D03*
X106237000Y-123063000D03*
X106237000Y-124333000D03*
X106237000Y-125603000D03*
X106237000Y-126873000D03*
X111187000Y-126873000D03*
X111187000Y-125603000D03*
X111187000Y-124333000D03*
X111187000Y-123063000D03*
X111187000Y-121793000D03*
X111187000Y-120523000D03*
X111187000Y-119253000D03*
X111187000Y-117983000D03*
%TD*%
%TO.C,U3*%
X187517000Y-117983000D03*
X187517000Y-119253000D03*
X187517000Y-120523000D03*
X187517000Y-121793000D03*
X187517000Y-123063000D03*
X187517000Y-124333000D03*
X187517000Y-125603000D03*
X187517000Y-126873000D03*
X192467000Y-126873000D03*
X192467000Y-125603000D03*
X192467000Y-124333000D03*
X192467000Y-123063000D03*
X192467000Y-121793000D03*
X192467000Y-120523000D03*
X192467000Y-119253000D03*
X192467000Y-117983000D03*
%TD*%
D18*
%TO.C,C21*%
X168374000Y-107950000D03*
X167414000Y-107950000D03*
%TD*%
D19*
%TO.C,C23*%
X169545000Y-107795000D03*
X169545000Y-106835000D03*
%TD*%
D20*
%TO.C,C12*%
X118872000Y-132416000D03*
X118872000Y-123616000D03*
%TD*%
D21*
%TO.C,U5*%
X159653000Y-104775000D03*
X159653000Y-106045000D03*
X159653000Y-107315000D03*
X159653000Y-108585000D03*
X165213000Y-108585000D03*
X165213000Y-107315000D03*
X165213000Y-106045000D03*
X165213000Y-104775000D03*
D22*
X163035500Y-105905000D03*
X161830500Y-105905000D03*
X161830500Y-107455000D03*
X163035500Y-107455000D03*
%TD*%
D20*
%TO.C,C22*%
X159512000Y-132416000D03*
X159512000Y-123616000D03*
%TD*%
D23*
%TO.C,D1*%
X131858000Y-97028000D03*
X135858000Y-97028000D03*
%TD*%
D24*
%TO.C,R10*%
X157376500Y-90424000D03*
X155551500Y-90424000D03*
%TD*%
D25*
%TO.C,D2*%
X165960000Y-99441000D03*
X159160000Y-99441000D03*
%TD*%
D26*
%TO.C,R8*%
X121668000Y-93726000D03*
X120648000Y-93726000D03*
%TD*%
D27*
%TO.C,C20*%
X149600000Y-100838000D03*
X155200000Y-100838000D03*
%TD*%
D28*
%TO.C,C17*%
X155006000Y-107950000D03*
X156906000Y-107950000D03*
%TD*%
D29*
%TO.C,C8*%
X131606112Y-84872500D03*
X131606112Y-87847500D03*
%TD*%
D28*
%TO.C,C16*%
X155006000Y-105918000D03*
X156906000Y-105918000D03*
%TD*%
D26*
%TO.C,R3*%
X160657000Y-109982000D03*
X159637000Y-109982000D03*
%TD*%
D15*
%TO.C,C11*%
X190559500Y-116332000D03*
X189424500Y-116332000D03*
%TD*%
D26*
%TO.C,R2*%
X164213000Y-109982000D03*
X163193000Y-109982000D03*
%TD*%
%TO.C,R7*%
X119128000Y-93726000D03*
X118108000Y-93726000D03*
%TD*%
%TO.C,R9*%
X124208000Y-93726000D03*
X123188000Y-93726000D03*
%TD*%
D20*
%TO.C,C24*%
X179832000Y-132416000D03*
X179832000Y-123616000D03*
%TD*%
D10*
%TO.C,C2*%
X108144500Y-128397000D03*
X109279500Y-128397000D03*
%TD*%
D30*
%TO.C,C18*%
X155194000Y-95946000D03*
X155194000Y-94046000D03*
%TD*%
D17*
%TO.C,U2*%
X146877000Y-117983000D03*
X146877000Y-119253000D03*
X146877000Y-120523000D03*
X146877000Y-121793000D03*
X146877000Y-123063000D03*
X146877000Y-124333000D03*
X146877000Y-125603000D03*
X146877000Y-126873000D03*
X151827000Y-126873000D03*
X151827000Y-125603000D03*
X151827000Y-124333000D03*
X151827000Y-123063000D03*
X151827000Y-121793000D03*
X151827000Y-120523000D03*
X151827000Y-119253000D03*
X151827000Y-117983000D03*
%TD*%
D31*
%TO.C,LED1*%
X157426500Y-88392000D03*
X155501500Y-88392000D03*
%TD*%
D10*
%TO.C,C13*%
X192853500Y-96266000D03*
X193988500Y-96266000D03*
%TD*%
D20*
%TO.C,C25*%
X200152000Y-132416000D03*
X200152000Y-123616000D03*
%TD*%
D26*
%TO.C,R4*%
X168404000Y-106807000D03*
X167384000Y-106807000D03*
%TD*%
D10*
%TO.C,C6*%
X189424500Y-128524000D03*
X190559500Y-128524000D03*
%TD*%
D32*
%TO.C,R1*%
X123823000Y-108077000D03*
X124843000Y-108077000D03*
%TD*%
D26*
%TO.C,R6*%
X116588000Y-93726000D03*
X115568000Y-93726000D03*
%TD*%
D10*
%TO.C,C3*%
X189678500Y-108712000D03*
X190813500Y-108712000D03*
%TD*%
D30*
%TO.C,C19*%
X157353000Y-95946000D03*
X157353000Y-94046000D03*
%TD*%
D20*
%TO.C,C10*%
X98552000Y-132416000D03*
X98552000Y-123616000D03*
%TD*%
D17*
%TO.C,U4*%
X187263000Y-98425000D03*
X187263000Y-99695000D03*
X187263000Y-100965000D03*
X187263000Y-102235000D03*
X187263000Y-103505000D03*
X187263000Y-104775000D03*
X187263000Y-106045000D03*
X187263000Y-107315000D03*
X192213000Y-107315000D03*
X192213000Y-106045000D03*
X192213000Y-104775000D03*
X192213000Y-103505000D03*
X192213000Y-102235000D03*
X192213000Y-100965000D03*
X192213000Y-99695000D03*
X192213000Y-98425000D03*
%TD*%
D26*
%TO.C,R5*%
X166372000Y-109982000D03*
X165352000Y-109982000D03*
%TD*%
D20*
%TO.C,C14*%
X139192000Y-132416000D03*
X139192000Y-123616000D03*
%TD*%
D10*
%TO.C,C4*%
X148784500Y-128524000D03*
X149919500Y-128524000D03*
%TD*%
D33*
%TO.C,L1*%
X164610000Y-93091000D03*
X160510000Y-93091000D03*
%TD*%
D10*
%TO.C,C7*%
X149665500Y-115062000D03*
X148530500Y-115062000D03*
%TD*%
D15*
%TO.C,C9*%
X149665500Y-116332000D03*
X148530500Y-116332000D03*
%TD*%
M02*
